<svg width="40" height="40" viewBox="0 0 40 40" fill="none" xmlns="http://www.w3.org/2000/svg">
<path d="M0.5 20C0.5 9.23045 9.23045 0.5 20 0.5C30.7696 0.5 39.5 9.23045 39.5 20C39.5 30.7696 30.7696 39.5 20 39.5C9.23045 39.5 0.5 30.7696 0.5 20Z" stroke="#0862C4"/>
<path d="M19.5311 11H27.1981C28.7306 11 29.9773 12.2469 29.9773 13.7794V26.2208C29.9773 27.7531 28.7308 29 27.1981 29H19.5311C19.3234 29 19.1548 28.8314 19.1548 28.6237V27.4948C19.1548 27.2871 19.3234 27.1185 19.5311 27.1185H27.1981C27.693 27.1185 28.0958 26.7158 28.0958 26.2208V13.7792C28.0958 13.2844 27.6933 12.8815 27.1981 12.8815H19.5311C19.3234 12.8815 19.1548 12.7129 19.1548 12.5052V11.3763C19.1548 11.1686 19.3234 11 19.5311 11Z" fill="#E7F2FE"/>
<path d="M23.8239 20.28L16.8772 23.9572C16.8228 23.9858 16.762 24 16.7012 24C16.6405 24 16.5797 23.9858 16.5251 23.9567C16.4161 23.8991 16.349 23.7927 16.349 23.6771V21.9652H10.3522C10.1578 21.9652 10 21.8205 10 21.6423V18.3579C10 18.1796 10.1578 18.035 10.3522 18.035H16.3489V16.3228C16.3489 16.2076 16.416 16.1009 16.525 16.0432C16.634 15.9856 16.7682 15.9856 16.8772 16.0432L23.8239 19.7209C23.9329 19.7786 24 19.8854 24 20.0005C24 20.1157 23.9329 20.2225 23.8239 20.28Z" fill="#E7F2FE"/>
</svg>
