<svg width="24" height="24" viewBox="0 0 24 24" fill="none" xmlns="http://www.w3.org/2000/svg">
<g id="Icons social">
<path id="Vector" d="M20.048 16.1629C19.7464 16.8337 19.3894 17.4511 18.9757 18.0188C18.4118 18.7927 17.9501 19.3284 17.5944 19.6259C17.0428 20.1141 16.4519 20.3642 15.819 20.3784C15.3648 20.3784 14.8169 20.2539 14.1792 20.0016C13.5394 19.7503 12.9514 19.6259 12.4138 19.6259C11.8499 19.6259 11.2452 19.7503 10.5983 20.0016C9.95051 20.2539 9.42864 20.3856 9.02963 20.3985C8.4228 20.4235 7.81795 20.1663 7.2142 19.6259C6.82885 19.3023 6.34687 18.7477 5.76948 17.9619C5.14996 17.1228 4.64065 16.1498 4.24164 15.0405C3.81431 13.8423 3.6001 12.682 3.6001 11.5588C3.6001 10.272 3.88892 9.16228 4.46743 8.23229C4.92209 7.48529 5.52694 6.89603 6.28396 6.46345C7.04098 6.03087 7.85894 5.81043 8.73981 5.79633C9.2218 5.79633 9.85386 5.93985 10.6393 6.22191C11.4226 6.50493 11.9255 6.64845 12.146 6.64845C12.3108 6.64845 12.8695 6.48063 13.8166 6.14607C14.7123 5.8358 15.4682 5.70733 16.0874 5.75793C17.7655 5.8883 19.0262 6.52508 19.8646 7.67231C18.3638 8.54766 17.6214 9.77369 17.6363 11.3465C17.6497 12.5716 18.1115 13.5911 19.0188 14.4006C19.43 14.7762 19.8892 15.0666 20.4001 15.2729C20.2893 15.5821 20.1723 15.8784 20.048 16.1629ZM16.1995 1.5843C16.1995 2.54452 15.8351 3.44108 15.1087 4.27093C14.2321 5.25745 13.1719 5.8275 12.0221 5.73755C12.0075 5.62234 11.999 5.50111 11.999 5.3737C11.999 4.4519 12.4159 3.46538 13.1561 2.65876C13.5257 2.25036 13.9958 1.91078 14.5658 1.63989C15.1345 1.37304 15.6725 1.22547 16.1786 1.2002C16.1933 1.32856 16.1995 1.45695 16.1995 1.5843Z" fill="#BAC9DC"/>
</g>
</svg>
