<svg width="24" height="24" viewBox="0 0 24 24" fill="none" xmlns="http://www.w3.org/2000/svg">
<path fill-rule="evenodd" clip-rule="evenodd" d="M2.18958 12.7939C1.3624 11.5202 1.72441 9.81701 2.99817 8.98982L14.7396 1.36488C16.0133 0.537689 17.7165 0.899706 18.5437 2.17346L21.8115 7.20549C22.6387 8.47925 22.2767 10.1824 21.0029 11.0096L20.926 11.0596L21.0825 11.3006C21.9097 12.5743 21.5477 14.2775 20.2739 15.1047L8.53252 22.7296C7.25876 23.5568 5.5556 23.1948 4.72842 21.921L1.46058 16.889C0.633392 15.6153 0.995408 13.9121 2.26917 13.0849L2.34611 13.035L2.18958 12.7939ZM9.26152 18.6345L19.668 11.8765L19.8245 12.1175C20.2005 12.6965 20.0359 13.4707 19.4569 13.8467L7.71556 21.4716C7.13658 21.8476 6.36242 21.6831 5.98642 21.1041L2.71859 16.0721C2.34259 15.4931 2.50714 14.7189 3.08613 14.3429L3.16307 14.293L5.45742 17.8259C6.28461 19.0997 7.98776 19.4617 9.26152 18.6345ZM3.81513 10.2478C3.23615 10.6238 3.0716 11.398 3.44759 11.977L6.71542 17.009C7.09142 17.588 7.86558 17.7525 8.44456 17.3765L20.1859 9.75158C20.7649 9.37559 20.9295 8.60143 20.5535 8.02245L17.2857 2.99042C16.9097 2.41144 16.1355 2.24689 15.5565 2.62288L3.81513 10.2478ZM13.6341 12.5154C15.0237 11.6131 15.4186 9.75507 14.5162 8.36552C13.6138 6.97596 11.7559 6.58104 10.3663 7.48343C8.97674 8.38581 8.58182 10.2438 9.48421 11.6334C10.3866 13.0229 12.2446 13.4178 13.6341 12.5154ZM8.64553 12.178C8.94633 12.6412 8.62695 13.3824 7.93217 13.8336C7.23739 14.2848 6.43032 14.2751 6.12952 13.8119C5.82873 13.3487 6.14811 12.6075 6.84289 12.1563C7.53767 11.7051 8.34474 11.7148 8.64553 12.178ZM17.8709 6.18696C18.1717 6.65015 17.8523 7.3914 17.1575 7.84259C16.4628 8.29379 15.6557 8.28407 15.3549 7.82088C15.0541 7.3577 15.3735 6.61645 16.0683 6.16525C16.763 5.71406 17.5701 5.72378 17.8709 6.18696Z" fill="#E7F2FE"/>
</svg>
