<svg width="24" height="24" viewBox="0 0 24 24" fill="none" xmlns="http://www.w3.org/2000/svg">
<path fill-rule="evenodd" clip-rule="evenodd" d="M3.4148 2.99993C3.02428 2.6094 2.39111 2.6094 2.00059 2.99993C1.61007 3.39045 1.61007 4.02362 2.00059 4.41414L4.63254 7.04609C2.99452 8.5554 1.92497 10.2571 1.39484 11.2218C1.1262 11.7107 1.1262 12.2892 1.39484 12.7781C2.49964 14.7885 5.94726 20 12.0006 20C13.7152 20 15.2207 19.5818 16.5232 18.9368L19.5864 22C19.9769 22.3905 20.6101 22.3905 21.0006 22C21.3911 21.6094 21.3911 20.9763 21.0006 20.5857L18.2751 17.8603L3.4148 2.99993ZM3.2512 11.9999C3.75972 11.1072 4.69243 9.69393 6.04813 8.46168L8.23472 10.6483C8.08316 11.0705 8.00059 11.5256 8.00059 11.9999C8.00059 14.2091 9.79145 16 12.0006 16C12.475 16 12.93 15.9174 13.3523 15.7658L15.0102 17.4238C14.1045 17.7848 13.1033 18 12.0006 18C9.59346 18 7.6703 16.9748 6.16725 15.645C4.74693 14.3884 3.77448 12.9186 3.2512 11.9999Z" fill="#939393"/>
<path d="M15.9401 12.6968L11.3038 8.06042C11.5301 8.02067 11.7629 7.99994 12.0006 7.99994C14.2097 7.99994 16.0006 9.7908 16.0006 11.9999C16.0006 12.2376 15.9799 12.4705 15.9401 12.6968Z" fill="#939393"/>
<path d="M18.3772 15.1338C19.5051 14.007 20.2963 12.7963 20.75 11.9999C20.2267 11.0813 19.2543 9.61144 17.8339 8.35485C16.3309 7.02507 14.4077 5.99992 12.0006 5.99992C11.1406 5.99992 10.3424 6.13077 9.60301 6.35962L8.04572 4.80232C9.21267 4.30761 10.5297 3.99991 12.0006 3.99991C18.0539 3.99991 21.5015 9.21133 22.6063 11.2218C22.875 11.7107 22.875 12.2892 22.6063 12.7781C22.1233 13.6572 21.1923 15.1482 19.7914 16.548L18.3772 15.1338Z" fill="#939393"/>
</svg>
