<svg width="18" height="20" viewBox="0 0 18 20" fill="none" xmlns="http://www.w3.org/2000/svg">
<path fill-rule="evenodd" clip-rule="evenodd" d="M12 0C13.1046 0 14 0.89543 14 2V14C14 15.1046 13.1046 16 12 16H2C0.89543 16 0 15.1046 0 14V2C0 0.89543 0.89543 0 2 0H12ZM2 2H12V14H2V2Z" fill="#D4D4D4"/>
<path d="M16 16V5C16 4.44772 16.4477 4 17 4C17.5523 4 18 4.44772 18 5V16C18 18.2091 16.2091 20 14 20H5C4.44772 20 4 19.5523 4 19C4 18.4477 4.44772 18 5 18H14C15.1046 18 16 17.1046 16 16Z" fill="#D4D4D4"/>
</svg>
