<svg width="18" height="18" viewBox="0 0 18 18" fill="none" xmlns="http://www.w3.org/2000/svg">
<path fill-rule="evenodd" clip-rule="evenodd" d="M14.25 3H15.75C16.5785 3 17.25 3.67157 17.25 4.5V6.75C17.25 8.40683 15.9068 9.75 14.25 9.75H13.7448C13.0046 11.3081 11.5196 12.4437 9.75 12.6968V15H11.25C11.6642 15 12 15.3358 12 15.75C12 16.1642 11.6642 16.5 11.25 16.5H6.75C6.33579 16.5 6 16.1642 6 15.75C6 15.3358 6.33579 15 6.75 15H8.25V12.6968C6.48034 12.4437 4.99538 11.3081 4.25522 9.75H3.75C2.09314 9.75 0.75 8.40683 0.75 6.75V4.5C0.75 3.67157 1.42157 3 2.25 3H3.75V2.90625C3.75 2.1296 4.3796 1.5 5.15625 1.5H12.8438C13.6204 1.5 14.25 2.1296 14.25 2.90625V3ZM9 11.25C6.92894 11.25 5.25 9.57105 5.25 7.5V3H12.75V7.5C12.75 9.57105 11.071 11.25 9 11.25ZM14.1968 8.25H14.25C15.0785 8.25 15.75 7.57845 15.75 6.75V4.5H14.25V7.5C14.25 7.75462 14.2318 8.00505 14.1968 8.25ZM3.80317 8.25C3.76813 8.00505 3.75 7.75462 3.75 7.5V4.5H2.25V6.75C2.25 7.57845 2.92157 8.25 3.75 8.25H3.80317Z" fill="white"/>
</svg>
