<svg width="24" height="24" viewBox="0 0 24 24" fill="none" xmlns="http://www.w3.org/2000/svg">
<path d="M15.5906 10L13.0049 12.5857V3C13.0049 2.96548 13.0031 2.93137 12.9997 2.89776C12.9485 2.3935 12.5226 2 12.0049 2C11.4526 2 11.0049 2.44772 11.0049 3V12.5857L8.41908 9.99994C8.02856 9.60945 7.3954 9.60945 7.00487 9.99994C6.61435 10.3905 6.61435 11.0236 7.00487 11.4142L11.2978 15.7071C11.4853 15.8946 11.7397 16 12.0049 16C12.2701 16 12.5244 15.8946 12.712 15.7071L17.0049 11.4142C17.0537 11.3654 17.0964 11.3128 17.133 11.2573C17.3893 10.8692 17.3466 10.3417 17.0049 10C16.6143 9.60949 15.9812 9.60949 15.5906 10Z" fill="#D4D4D4"/>
<path d="M3.00488 19.9999C3.00488 19.4476 3.4526 18.9999 4.00488 18.9999H20.0049C20.5572 18.9999 21.0049 19.4476 21.0049 19.9999C21.0049 20.5522 20.5572 20.9999 20.0049 20.9999H4.00488C3.4526 20.9999 3.00488 20.5522 3.00488 19.9999Z" fill="#D4D4D4"/>
</svg>
