<svg width="380" height="40" viewBox="0 0 380 40" fill="none" xmlns="http://www.w3.org/2000/svg">
<rect width="380" height="40" rx="20" fill="white"/>
<path d="M14.85 21.815L12.21 17.81H14.745L16.335 20.42L17.94 17.81H20.475L17.805 21.815L20.595 26H18.06L16.335 23.195L14.61 26H12.075L14.85 21.815ZM30.6769 26H28.0819L25.5919 21.95L23.1019 26H20.6719L24.2269 20.48L20.8969 15.29H23.4019L25.7119 19.145L27.9769 15.29H30.4219L27.0619 20.6L30.6769 26ZM33.5268 21.815L30.8868 17.81H33.4218L35.0118 20.42L36.6168 17.81H39.1518L36.4818 21.815L39.2718 26H36.7368L35.0118 23.195L33.2868 26H30.7518L33.5268 21.815ZM45.2436 17.03C44.8136 17.03 44.4286 17.115 44.0886 17.285C43.7586 17.455 43.4786 17.7 43.2486 18.02C43.0186 18.33 42.8436 18.71 42.7236 19.16C42.6136 19.61 42.5586 20.115 42.5586 20.675C42.5586 21.435 42.6486 22.085 42.8286 22.625C43.0186 23.155 43.3136 23.56 43.7136 23.84C44.1136 24.12 44.6236 24.26 45.2436 24.26C45.6836 24.26 46.1186 24.21 46.5486 24.11C46.9886 24.01 47.4636 23.87 47.9736 23.69V25.595C47.5036 25.785 47.0386 25.925 46.5786 26.015C46.1186 26.105 45.6036 26.15 45.0336 26.15C43.9336 26.15 43.0236 25.925 42.3036 25.475C41.5936 25.015 41.0686 24.375 40.7286 23.555C40.3886 22.725 40.2186 21.76 40.2186 20.66C40.2186 19.85 40.3286 19.11 40.5486 18.44C40.7686 17.76 41.0886 17.175 41.5086 16.685C41.9386 16.195 42.4636 15.815 43.0836 15.545C43.7136 15.275 44.4336 15.14 45.2436 15.14C45.7736 15.14 46.3036 15.21 46.8336 15.35C47.3736 15.48 47.8886 15.66 48.3786 15.89L47.6436 17.735C47.2436 17.545 46.8386 17.38 46.4286 17.24C46.0286 17.1 45.6336 17.03 45.2436 17.03ZM59.6764 20.63C59.6764 21.46 59.5714 22.215 59.3614 22.895C59.1614 23.565 58.8514 24.145 58.4314 24.635C58.0214 25.125 57.4914 25.5 56.8414 25.76C56.2014 26.02 55.4464 26.15 54.5764 26.15C53.7064 26.15 52.9464 26.02 52.2964 25.76C51.6564 25.49 51.1264 25.115 50.7064 24.635C50.2964 24.145 49.9864 23.56 49.7764 22.88C49.5764 22.2 49.4764 21.445 49.4764 20.615C49.4764 19.505 49.6564 18.54 50.0164 17.72C50.3864 16.9 50.9464 16.265 51.6964 15.815C52.4564 15.355 53.4214 15.125 54.5914 15.125C55.7514 15.125 56.7064 15.355 57.4564 15.815C58.2064 16.265 58.7614 16.905 59.1214 17.735C59.4914 18.555 59.6764 19.52 59.6764 20.63ZM51.8614 20.63C51.8614 21.38 51.9564 22.025 52.1464 22.565C52.3364 23.105 52.6314 23.52 53.0314 23.81C53.4314 24.1 53.9464 24.245 54.5764 24.245C55.2264 24.245 55.7464 24.1 56.1364 23.81C56.5364 23.52 56.8264 23.105 57.0064 22.565C57.1964 22.025 57.2914 21.38 57.2914 20.63C57.2914 19.5 57.0814 18.615 56.6614 17.975C56.2414 17.335 55.5514 17.015 54.5914 17.015C53.9514 17.015 53.4314 17.16 53.0314 17.45C52.6314 17.74 52.3364 18.155 52.1464 18.695C51.9564 19.235 51.8614 19.88 51.8614 20.63ZM66.4249 26L63.8449 17.6H63.7849C63.7949 17.8 63.8099 18.1 63.8299 18.5C63.8499 18.9 63.8699 19.33 63.8899 19.79C63.9099 20.24 63.9199 20.65 63.9199 21.02V26H61.8949V15.29H64.9849L67.5199 23.48H67.5649L70.2499 15.29H73.3399V26H71.2249V20.93C71.2249 20.59 71.2299 20.2 71.2399 19.76C71.2599 19.32 71.2749 18.905 71.2849 18.515C71.3049 18.115 71.3199 17.815 71.3299 17.615H71.2699L68.5099 26H66.4249ZM85.7653 20.63C85.7653 21.46 85.6603 22.215 85.4503 22.895C85.2503 23.565 84.9403 24.145 84.5203 24.635C84.1103 25.125 83.5803 25.5 82.9303 25.76C82.2903 26.02 81.5353 26.15 80.6653 26.15C79.7953 26.15 79.0353 26.02 78.3853 25.76C77.7453 25.49 77.2153 25.115 76.7953 24.635C76.3853 24.145 76.0753 23.56 75.8653 22.88C75.6653 22.2 75.5653 21.445 75.5653 20.615C75.5653 19.505 75.7453 18.54 76.1053 17.72C76.4753 16.9 77.0353 16.265 77.7853 15.815C78.5453 15.355 79.5103 15.125 80.6803 15.125C81.8403 15.125 82.7953 15.355 83.5453 15.815C84.2953 16.265 84.8503 16.905 85.2103 17.735C85.5803 18.555 85.7653 19.52 85.7653 20.63ZM77.9503 20.63C77.9503 21.38 78.0453 22.025 78.2353 22.565C78.4253 23.105 78.7203 23.52 79.1203 23.81C79.5203 24.1 80.0353 24.245 80.6653 24.245C81.3153 24.245 81.8353 24.1 82.2253 23.81C82.6253 23.52 82.9153 23.105 83.0953 22.565C83.2853 22.025 83.3803 21.38 83.3803 20.63C83.3803 19.5 83.1703 18.615 82.7503 17.975C82.3303 17.335 81.6403 17.015 80.6803 17.015C80.0403 17.015 79.5203 17.16 79.1203 17.45C78.7203 17.74 78.4253 18.155 78.2353 18.695C78.0453 19.235 77.9503 19.88 77.9503 20.63ZM94.2988 23.03C94.2988 23.66 94.1438 24.21 93.8338 24.68C93.5238 25.15 93.0738 25.515 92.4838 25.775C91.9038 26.025 91.1938 26.15 90.3538 26.15C89.9838 26.15 89.6188 26.125 89.2588 26.075C88.9088 26.025 88.5688 25.955 88.2388 25.865C87.9188 25.765 87.6138 25.645 87.3238 25.505V23.39C87.8338 23.61 88.3588 23.815 88.8988 24.005C89.4488 24.185 89.9938 24.275 90.5338 24.275C90.9038 24.275 91.1988 24.225 91.4188 24.125C91.6488 24.025 91.8138 23.89 91.9138 23.72C92.0238 23.55 92.0788 23.355 92.0788 23.135C92.0788 22.865 91.9838 22.635 91.7938 22.445C91.6138 22.255 91.3688 22.08 91.0588 21.92C90.7488 21.75 90.3938 21.57 89.9938 21.38C89.7438 21.26 89.4738 21.12 89.1838 20.96C88.8938 20.79 88.6138 20.585 88.3438 20.345C88.0838 20.095 87.8688 19.795 87.6988 19.445C87.5288 19.095 87.4438 18.675 87.4438 18.185C87.4438 17.545 87.5888 17 87.8788 16.55C88.1788 16.09 88.5988 15.74 89.1388 15.5C89.6888 15.26 90.3338 15.14 91.0738 15.14C91.6338 15.14 92.1638 15.205 92.6638 15.335C93.1738 15.465 93.7038 15.65 94.2538 15.89L93.5188 17.66C93.0288 17.46 92.5888 17.305 92.1988 17.195C91.8088 17.085 91.4088 17.03 90.9988 17.03C90.7188 17.03 90.4788 17.075 90.2788 17.165C90.0788 17.255 89.9238 17.38 89.8138 17.54C89.7138 17.7 89.6638 17.89 89.6638 18.11C89.6638 18.36 89.7388 18.575 89.8888 18.755C90.0388 18.925 90.2638 19.09 90.5638 19.25C90.8638 19.41 91.2388 19.6 91.6888 19.82C92.2388 20.08 92.7038 20.35 93.0838 20.63C93.4738 20.91 93.7738 21.24 93.9838 21.62C94.1938 22 94.2988 22.47 94.2988 23.03ZM97.7455 21.815L95.1055 17.81H97.6405L99.2305 20.42L100.836 17.81H103.371L100.701 21.815L103.491 26H100.956L99.2305 23.195L97.5055 26H94.9705L97.7455 21.815ZM113.572 26H110.977L108.487 21.95L105.997 26H103.567L107.122 20.48L103.792 15.29H106.297L108.607 19.145L110.872 15.29H113.317L109.957 20.6L113.572 26ZM116.422 21.815L113.782 17.81H116.317L117.907 20.42L119.512 17.81H122.047L119.377 21.815L122.167 26H119.632L117.907 23.195L116.182 26H113.647L116.422 21.815Z" fill="#202020"/>
<path fill-rule="evenodd" clip-rule="evenodd" d="M365.086 16.4139C365.867 15.6329 365.867 14.3665 365.086 13.5855L362.414 10.9139C361.633 10.1329 360.367 10.1329 359.586 10.9139L347.586 22.9139C347.211 23.289 347 23.7977 347 24.3281V27.9997C347 28.552 347.448 28.9997 348 28.9997H351.672C352.202 28.9997 352.711 28.789 353.086 28.4139L365.086 16.4139ZM357.818 15.5097L360.49 18.1813L351.672 26.9997H349L349 24.3281L357.818 15.5097ZM361.904 16.7671L359.233 14.0955L361 12.3281L363.672 14.9997L361.904 16.7671Z" fill="#939393"/>
</svg>
