<svg width="20" height="14" viewBox="0 0 20 14" fill="none" xmlns="http://www.w3.org/2000/svg">
<g id="flag">
<mask id="mask0_9427_23447" style="mask-type:alpha" maskUnits="userSpaceOnUse" x="0" y="0" width="20" height="14">
<rect id="Rectangle 1955" width="20" height="14" rx="1.6" fill="#D9D9D9"/>
</mask>
<g mask="url(#mask0_9427_23447)">
<rect id="Rectangle 1956" width="20" height="14" fill="#3555E2"/>
<path id="Vector" d="M19.9793 1.33581C19.8613 0.577944 19.2451 0 18.5022 0H18.1125L11.7242 4.47176V4.17119e-05H8.27589V4.4718L1.88758 4.17119e-05H1.49786C0.755003 4.17119e-05 0.13879 0.577944 0.0207423 1.33585L5.48084 5.15793H0V8.84211H5.48084L0.0207423 12.6641C0.13879 13.422 0.755003 13.9999 1.49786 13.9999H1.88758L8.27589 9.52815V13.9999H11.7242V9.52815L18.1125 13.9999H18.5022C19.2451 13.9999 19.8613 13.422 19.9793 12.6641L14.5192 8.84203H20.0001V5.15784H14.5192L19.9793 1.33581Z" fill="#A7AEBE"/>
<path id="Union" fill-rule="evenodd" clip-rule="evenodd" d="M11.0345 0H8.96554V5.89467H0V8.1052H8.96554V13.9999H11.0345V8.1052H20.0001V5.89467H11.0345V0ZM0.968518 13.897L8.25694 8.84229H6.99022L0.360352 13.4403C0.522579 13.6426 0.731056 13.8011 0.968518 13.897ZM12.2642 8.84229H13.5309L19.8034 13.1923C19.6858 13.4122 19.5209 13.5994 19.3234 13.738L12.2642 8.84229ZM0.157959 0.884401L6.31931 5.15751H7.58603L0.604289 0.31543C0.416827 0.464507 0.263428 0.659408 0.157959 0.884401ZM19.6329 0.550897L12.9908 5.15738H11.7241L19.0196 0.0976562C19.2587 0.191685 19.4688 0.349276 19.6329 0.550897Z" fill="#EA0020"/>
</g>
</g>
</svg>
