<svg width="25" height="24" viewBox="0 0 25 24" fill="none" xmlns="http://www.w3.org/2000/svg">
<g clip-path="url(#clip0_802_1814)">
<path d="M12.6719 10.4727V13.7258H17.2849C17.0823 14.772 16.4744 15.6578 15.5628 16.2534L18.3446 18.3687C19.9654 16.9026 20.9004 14.7491 20.9004 12.1909C20.9004 11.5953 20.8459 11.0225 20.7446 10.4727L12.6719 10.4727Z" fill="#4285F4"/>
<path d="M7.86825 13.5986L7.24085 14.0693L5.02002 15.7646C6.43041 18.506 9.32112 20.3999 12.6718 20.3999C14.986 20.3999 16.9263 19.6515 18.3445 18.3686L15.5627 16.2533C14.799 16.7573 13.825 17.0628 12.6718 17.0628C10.4432 17.0628 8.54973 15.589 7.87176 13.6035L7.86825 13.5986Z" fill="#34A853"/>
<path d="M5.02 8.23535C4.43562 9.36549 4.10059 10.6408 4.10059 12C4.10059 13.3593 4.43562 14.6346 5.02 15.7648C5.02 15.7723 7.87202 13.596 7.87202 13.596C7.70059 13.092 7.59926 12.5575 7.59926 12C7.59926 11.4424 7.70059 10.9079 7.87202 10.4039L5.02 8.23535Z" fill="#FBBC05"/>
<path d="M12.6719 6.94435C13.9343 6.94435 15.0564 7.37198 15.9525 8.19672L18.407 5.79129C16.9187 4.43203 14.9863 3.59961 12.6719 3.59961C9.3213 3.59961 6.43041 5.4858 5.02002 8.23491L7.87194 10.4037C8.54983 8.41817 10.4434 6.94435 12.6719 6.94435Z" fill="#EA4335"/>
</g>
<defs>
<clipPath id="clip0_802_1814">
<rect width="16.8" height="16.8" fill="white" transform="translate(4.1001 3.59961)"/>
</clipPath>
</defs>
</svg>
