<svg width="24" height="24" viewBox="0 0 24 24" fill="none" xmlns="http://www.w3.org/2000/svg">
<g id="Crypto-icons/8">
<path id="Vector" fill-rule="evenodd" clip-rule="evenodd" d="M7.45811 3.92939L11.0572 4.84345L11.8616 2L13.6611 2.46311L12.888 5.18909L14.3558 5.56309L15.1303 2.8074L16.9612 3.27186L16.1724 6.04239C16.1724 6.04239 19.1622 6.67022 19.8655 8.9763C20.5688 11.2824 18.3194 12.4935 17.6246 12.5394C17.6246 12.5394 20.2442 13.9017 19.3444 16.5818C18.4446 19.2619 15.6827 19.7412 12.777 19.1268L11.9883 22L10.1574 21.5355L10.9618 18.7069L9.50963 18.3316L8.70526 21.1804L6.88864 20.7173L7.69444 17.882L4 16.9369L4.93109 14.9764C4.93109 14.9764 5.97322 15.2465 6.36758 15.3356C6.76194 15.4247 7.01535 15.0358 7.1264 14.647C7.23744 14.2582 8.91027 7.81381 9.06829 7.2832C9.22632 6.75258 9.16226 6.33808 8.49882 6.17471C7.83539 6.01134 6.93278 5.75616 6.93278 5.75616L7.45811 3.92939ZM11.0885 12.4638L10.0919 16.2213C10.0919 16.2213 15.0335 17.913 15.6656 15.5327C16.2977 13.1524 11.0885 12.4638 11.0885 12.4638ZM11.5469 10.6816L12.525 7.23864C12.525 7.23864 16.7562 7.95693 16.2351 9.87281C15.714 11.7887 13.2197 11.0542 11.5469 10.6816Z" fill="#A7AEBE"/>
</g>
</svg>
