<svg width="80" height="80" viewBox="0 0 80 80" fill="none" xmlns="http://www.w3.org/2000/svg">
<g clip-path="url(#clip0_9514_26971)">
<path d="M47.2153 75.8411C51.4492 71.6284 51.4492 64.7983 47.2153 60.5857C42.9814 56.373 36.1169 56.373 31.883 60.5857C27.6491 64.7983 27.6491 71.6284 31.883 75.8411C36.1169 80.0537 42.9814 80.0537 47.2153 75.8411Z" fill="url(#paint0_linear_9514_26971)"/>
<path fill-rule="evenodd" clip-rule="evenodd" d="M39.5002 1C42.9451 1 45.7425 3.97883 45.7425 7.64745C45.7425 11.3161 42.9451 14.2949 39.5002 14.2949C36.0553 14.2949 33.2578 11.3161 33.2578 7.64745C33.2578 3.97883 36.0543 1 39.5002 1ZM39.5002 4.12335C41.3263 4.12335 42.8089 5.70261 42.8089 7.64745C42.8089 9.59229 41.3263 11.1716 39.5002 11.1716C37.6741 11.1716 36.1905 9.59229 36.1905 7.64745C36.1905 5.70261 37.6731 4.12335 39.5002 4.12335Z" fill="#F9E44F"/>
<path fill-rule="evenodd" clip-rule="evenodd" d="M39.8296 3.71021C41.9644 3.71021 43.6983 5.40404 43.6983 7.49055C43.6983 9.57706 41.9649 11.2709 39.8296 11.2709C37.6944 11.2709 35.9609 9.57706 35.9609 7.49055C35.9609 5.40404 37.6944 3.71021 39.8296 3.71021ZM39.8296 5.48628C40.9615 5.48628 41.8803 6.3843 41.8803 7.49007C41.8803 8.59584 40.9615 9.49434 39.8296 9.49434C38.6977 9.49434 37.7785 8.59632 37.7785 7.49007C37.7785 6.38383 38.6973 5.48628 39.8296 5.48628Z" fill="#E8AE4F"/>
<path fill-rule="evenodd" clip-rule="evenodd" d="M34.3826 4.74616C33.9258 5.85146 35.1026 5.87475 35.5938 5.31711C36.2928 4.5232 37.3956 3.56195 38.6603 3.1612C40.2361 2.66203 40.0927 0.965344 37.6541 1.86955C36.2938 2.37394 34.8265 3.67225 34.3831 4.74569L34.3826 4.74616Z" fill="white" fill-opacity="0.63"/>
<path d="M43.4274 73.9794C46.6278 70.795 46.6278 65.6322 43.4274 62.4479C40.227 59.2636 35.0382 59.2636 31.8378 62.4479C28.6374 65.6322 28.6374 70.795 31.8378 73.9794C35.0382 77.1637 40.227 77.1637 43.4274 73.9794Z" fill="url(#paint1_linear_9514_26971)"/>
<path d="M36.91 74.0744C37.555 73.1932 37.1043 71.7733 35.9033 70.9028C34.7022 70.0323 33.2057 70.041 32.5606 70.9221C31.9155 71.8033 32.3662 73.2232 33.5673 74.0937C34.7683 74.9642 36.2649 74.9555 36.91 74.0744Z" fill="white" fill-opacity="0.63"/>
<path fill-rule="evenodd" clip-rule="evenodd" d="M72.8905 57.2754C70.417 55.1195 64.6778 49.9643 63.113 45.0739C61.0628 38.666 64.027 26.3999 61.3686 19.5571C58.1033 11.1516 52.4152 8.02064 39.5487 7.8823V7.88135H39.4513V7.8823C38.6682 7.89086 37.9123 7.91035 37.1813 7.94172C36.5329 7.91082 35.8645 7.89086 35.1741 7.8823V7.88135H35.0885V7.8823C23.805 8.02111 18.8168 11.1516 15.9534 19.5571C13.6223 26.3999 16.2224 38.6665 14.424 45.0739C13.0518 49.9638 8.01919 55.119 5.85001 57.2754C4.76208 58.3564 4 59.7717 4 61.4926V62.9259C4 65.8439 6.08795 68.2133 8.65991 68.2133H69.6855C72.6182 68.2133 74.9995 65.8439 74.9995 62.9259V61.4926C74.9995 59.7717 74.1299 58.3564 72.8901 57.2754H72.8905Z" fill="url(#paint2_linear_9514_26971)"/>
<path fill-rule="evenodd" clip-rule="evenodd" d="M54.1276 61.1332C54.0808 59.5344 53.593 58.1672 52.862 57.1432L51.9217 55.9147C50.1667 53.3666 47.4954 49.0738 46.6707 44.9683C45.3836 38.5604 47.2446 26.2943 45.5761 19.4514C43.7925 12.1361 40.8565 8.81638 34.8014 7.98682C28.4726 8.82399 24.8891 12.4089 23.4385 19.2256C21.9827 26.0685 23.4151 39.0724 22.2918 45.4798C21.6172 49.3281 19.6301 52.5066 17.1102 55.3557C16.6305 55.9537 16.2979 56.567 15.9133 57.194C15.242 58.2718 14.7255 59.6784 14.7255 61.3865L14.6777 62.8199C14.6777 65.7378 15.9821 68.1072 17.5884 68.1072H50.797C52.6379 68.1072 54.1324 65.7378 54.1324 62.8199V61.3865C54.1324 61.3014 54.1305 61.2168 54.1286 61.1332H54.1276Z" fill="url(#paint3_linear_9514_26971)"/>
<path fill-rule="evenodd" clip-rule="evenodd" d="M53.9238 61.2493C53.9262 61.3334 53.9276 61.4176 53.9276 61.5027C53.9276 61.4176 53.9262 61.3329 53.9238 61.2493Z" fill="url(#paint4_linear_9514_26971)"/>
<path fill-rule="evenodd" clip-rule="evenodd" d="M14.8548 62.9359V61.5026C14.8548 59.7945 15.3235 58.3878 15.9948 57.3101C16.3794 56.6831 16.8075 56.0698 17.2872 55.4718C19.8071 52.6227 21.6509 49.4442 22.3255 45.5959C23.4488 39.1881 22.0637 26.1846 23.52 19.3417C24.9706 12.525 28.9754 9.00236 34.5962 8.10291C27.0786 7.98691 19.9686 11.1621 17.9193 19.5675C16.2504 26.4104 18.1114 38.677 16.8247 45.0844C16.0516 48.9332 13.2245 52.6227 10.3367 55.4718C9.78681 56.0698 9.29659 56.6831 8.85559 57.3101C8.08635 58.3878 7.54883 59.7945 7.54883 61.5026V62.9359C7.54883 65.8539 9.04336 68.2233 10.8843 68.2233H17.765C16.1587 68.2233 14.8543 65.8539 14.8543 62.9359H14.8548Z" fill="url(#paint5_linear_9514_26971)"/>
<path d="M62.1107 23.6131C67.8144 23.6131 72.4382 19.0125 72.4382 13.3374C72.4382 7.66234 67.8144 3.06177 62.1107 3.06177C56.407 3.06177 51.7832 7.66234 51.7832 13.3374C51.7832 19.0125 56.407 23.6131 62.1107 23.6131Z" fill="url(#paint6_linear_9514_26971)"/>
<path opacity="0.51" fill-rule="evenodd" clip-rule="evenodd" d="M69.2732 5.93506C70.0778 7.39785 70.536 9.07647 70.536 10.8616C70.536 16.5368 65.9124 21.1372 60.2085 21.1372C57.4273 21.1372 54.9036 20.0434 53.0469 18.2644C54.8004 21.452 58.2023 23.6136 62.1116 23.6136C67.8154 23.6136 72.439 19.0132 72.439 13.3379C72.439 10.4299 71.2245 7.80431 69.2732 5.93506Z" fill="url(#paint7_linear_9514_26971)"/>
<path d="M62.5347 17.8512C62.4339 17.8512 62.3617 17.8256 62.2901 17.7609C62.2184 17.6963 62.1892 17.6321 62.1892 17.5418V10.8872L61.1811 11.519C61.1233 11.5708 61.0516 11.5836 60.9651 11.5836C60.85 11.5836 60.7492 11.5451 60.6914 11.4548L60.0721 10.7327C60.0143 10.6809 60 10.6167 60 10.552C60 10.4489 60.043 10.3714 60.1586 10.2939L62.2179 8.91381C62.3187 8.84916 62.4482 8.82349 62.5782 8.82349H63.8744C63.9752 8.82349 64.0474 8.84916 64.1191 8.91381C64.1907 8.97846 64.2199 9.04264 64.2199 9.13297V17.5413C64.2199 17.6316 64.1912 17.6963 64.1191 17.7604C64.0469 17.8246 63.9752 17.8508 63.8744 17.8508H62.5352L62.5347 17.8512Z" fill="white"/>
</g>
<defs>
<linearGradient id="paint0_linear_9514_26971" x1="38.287" y1="80.0051" x2="40.4575" y2="59.5238" gradientUnits="userSpaceOnUse">
<stop offset="0.2" stop-color="#FAD74E"/>
<stop offset="0.62" stop-color="#D99300"/>
<stop offset="0.83" stop-color="#F9D237"/>
<stop offset="1" stop-color="#FAD74E"/>
</linearGradient>
<linearGradient id="paint1_linear_9514_26971" x1="37.1333" y1="77.6547" x2="37.9866" y2="61.3686" gradientUnits="userSpaceOnUse">
<stop offset="0.24" stop-color="#F9E95D"/>
<stop offset="0.55" stop-color="#F8D91D"/>
<stop offset="0.78" stop-color="#FBEE69"/>
</linearGradient>
<linearGradient id="paint2_linear_9514_26971" x1="39.4087" y1="6.53978" x2="39.519" y2="74.4923" gradientUnits="userSpaceOnUse">
<stop offset="0.2" stop-color="#FAD74E"/>
<stop offset="0.62" stop-color="#D99300"/>
<stop offset="0.83" stop-color="#F9D237"/>
<stop offset="1" stop-color="#FAD74E"/>
</linearGradient>
<linearGradient id="paint3_linear_9514_26971" x1="33.7684" y1="18.5211" x2="34.5224" y2="70.7054" gradientUnits="userSpaceOnUse">
<stop offset="0.24" stop-color="#F9E95D"/>
<stop offset="0.55" stop-color="#F8D91D"/>
<stop offset="0.78" stop-color="#FBEE69"/>
</linearGradient>
<linearGradient id="paint4_linear_9514_26971" x1="53.9238" y1="61.3762" x2="53.9276" y2="61.3762" gradientUnits="userSpaceOnUse">
<stop offset="0.24" stop-color="#F9E95D"/>
<stop offset="0.55" stop-color="#F8D91D"/>
<stop offset="0.78" stop-color="#FBEE69"/>
</linearGradient>
<linearGradient id="paint5_linear_9514_26971" x1="21.0785" y1="34.2083" x2="20.8065" y2="61.0344" gradientUnits="userSpaceOnUse">
<stop offset="0.24" stop-color="#FDE97C"/>
<stop offset="0.55" stop-color="#F8D93B"/>
<stop offset="0.78" stop-color="#FBEE71"/>
</linearGradient>
<linearGradient id="paint6_linear_9514_26971" x1="51.8453" y1="13.3374" x2="68.8777" y2="13.3374" gradientUnits="userSpaceOnUse">
<stop stop-color="#DA3942"/>
<stop offset="1" stop-color="#FF5540"/>
</linearGradient>
<linearGradient id="paint7_linear_9514_26971" x1="53.1052" y1="14.7741" x2="69.0959" y2="14.7741" gradientUnits="userSpaceOnUse">
<stop stop-color="#AA1200"/>
<stop offset="1" stop-color="#BF2500"/>
</linearGradient>
<clipPath id="clip0_9514_26971">
<rect width="71" height="78" fill="white" transform="translate(4 1)"/>
</clipPath>
</defs>
</svg>
