<svg width="24" height="24" viewBox="0 0 24 24" fill="none" xmlns="http://www.w3.org/2000/svg">
<path d="M11.5311 3H19.1981C20.7306 3 21.9773 4.24689 21.9773 5.77939V18.2208C21.9773 19.7531 20.7308 21 19.1981 21H11.5311C11.3234 21 11.1548 20.8314 11.1548 20.6237V19.4948C11.1548 19.2871 11.3234 19.1185 11.5311 19.1185H19.1981C19.693 19.1185 20.0958 18.7158 20.0958 18.2208V5.7792C20.0958 5.28436 19.6933 4.88153 19.1981 4.88153H11.5311C11.3234 4.88153 11.1548 4.71294 11.1548 4.50522V3.37631C11.1548 3.16858 11.3234 3 11.5311 3Z" fill="#E7F2FE"/>
<path d="M15.8239 12.28L8.87717 15.9572C8.82275 15.9858 8.762 16 8.70124 16C8.64049 16 8.57973 15.9858 8.52514 15.9567C8.41613 15.8991 8.34904 15.7927 8.34904 15.6771V13.9652H2.35221C2.15779 13.9652 2 13.8205 2 13.6423V10.3579C2 10.1796 2.15779 10.035 2.35221 10.035H8.34886V8.32285C8.34886 8.20758 8.41596 8.10086 8.52496 8.04323C8.63397 7.98559 8.76816 7.98559 8.87717 8.04323L15.8239 11.7209C15.9329 11.7786 16 11.8854 16 12.0005C16 12.1157 15.9329 12.2225 15.8239 12.28Z" fill="#E7F2FE"/>
</svg>
