<svg width="103" height="40" viewBox="0 0 103 40" fill="none" xmlns="http://www.w3.org/2000/svg">
<path fill-rule="evenodd" clip-rule="evenodd" d="M20 40C31.0457 40 40 31.0457 40 20C40 8.9543 31.0457 0 20 0C8.9543 0 0 8.9543 0 20C0 31.0457 8.9543 40 20 40ZM22.8571 27.8572C29.5635 27.8572 35 22.4206 35 15.7143C35 9.00798 29.5635 3.57144 22.8571 3.57144C16.1508 3.57144 10.7143 9.00798 10.7143 15.7143C10.7143 22.4206 16.1508 27.8572 22.8571 27.8572Z" fill="url(#paint0_linear_802_255)"/>
<circle cx="26.5" cy="11.5" r="4.5" fill="#A9CBF7"/>
<path d="M53.536 10.128H57.488V15.728C56.8693 15.9307 56.2453 16.08 55.616 16.176C54.9867 16.272 54.272 16.32 53.472 16.32C52.288 16.32 51.2907 16.0853 50.48 15.616C49.6693 15.136 49.0507 14.4587 48.624 13.584C48.208 12.6987 48 11.6533 48 10.448C48 9.25333 48.2347 8.21867 48.704 7.344C49.1733 6.46933 49.8453 5.792 50.72 5.312C51.6053 4.82133 52.672 4.576 53.92 4.576C54.56 4.576 55.1627 4.63467 55.728 4.752C56.304 4.86933 56.8373 5.03467 57.328 5.248L56.784 6.496C56.3787 6.31467 55.92 6.16 55.408 6.032C54.9067 5.904 54.384 5.84 53.84 5.84C52.4747 5.84 51.408 6.25067 50.64 7.072C49.8827 7.89333 49.504 9.01867 49.504 10.448C49.504 11.3547 49.648 12.16 49.936 12.864C50.2347 13.5573 50.6987 14.1013 51.328 14.496C51.9573 14.88 52.784 15.072 53.808 15.072C54.3093 15.072 54.736 15.0453 55.088 14.992C55.44 14.9387 55.76 14.8747 56.048 14.8V11.408H53.536V10.128Z" fill="#D4D4D4"/>
<path d="M67.4806 11.856C67.4806 13.2747 67.118 14.3733 66.3926 15.152C65.678 15.9307 64.7073 16.32 63.4806 16.32C62.7233 16.32 62.046 16.1493 61.4486 15.808C60.862 15.456 60.398 14.9493 60.0566 14.288C59.7153 13.616 59.5446 12.8053 59.5446 11.856C59.5446 10.4373 59.902 9.344 60.6166 8.576C61.3313 7.808 62.302 7.424 63.5286 7.424C64.3073 7.424 64.99 7.6 65.5766 7.952C66.174 8.29333 66.638 8.79467 66.9686 9.456C67.31 10.1067 67.4806 10.9067 67.4806 11.856ZM61.0006 11.856C61.0006 12.8693 61.198 13.6747 61.5926 14.272C61.998 14.8587 62.638 15.152 63.5126 15.152C64.3766 15.152 65.0113 14.8587 65.4166 14.272C65.822 13.6747 66.0246 12.8693 66.0246 11.856C66.0246 10.8427 65.822 10.048 65.4166 9.472C65.0113 8.896 64.3713 8.608 63.4966 8.608C62.622 8.608 61.9873 8.896 61.5926 9.472C61.198 10.048 61.0006 10.8427 61.0006 11.856Z" fill="#D4D4D4"/>
<path d="M77.1681 11.856C77.1681 13.2747 76.8055 14.3733 76.0801 15.152C75.3655 15.9307 74.3948 16.32 73.1681 16.32C72.4108 16.32 71.7335 16.1493 71.1361 15.808C70.5495 15.456 70.0855 14.9493 69.7441 14.288C69.4028 13.616 69.2321 12.8053 69.2321 11.856C69.2321 10.4373 69.5895 9.344 70.3041 8.576C71.0188 7.808 71.9895 7.424 73.2161 7.424C73.9948 7.424 74.6775 7.6 75.2641 7.952C75.8615 8.29333 76.3255 8.79467 76.6561 9.456C76.9975 10.1067 77.1681 10.9067 77.1681 11.856ZM70.6881 11.856C70.6881 12.8693 70.8855 13.6747 71.2801 14.272C71.6855 14.8587 72.3255 15.152 73.2001 15.152C74.0641 15.152 74.6988 14.8587 75.1041 14.272C75.5095 13.6747 75.7121 12.8693 75.7121 11.856C75.7121 10.8427 75.5095 10.048 75.1041 9.472C74.6988 8.896 74.0588 8.608 73.1841 8.608C72.3095 8.608 71.6748 8.896 71.2801 9.472C70.8855 10.048 70.6881 10.8427 70.6881 11.856Z" fill="#D4D4D4"/>
<path d="M82.4396 16.32C81.373 16.32 80.5196 15.952 79.8796 15.216C79.2396 14.4693 78.9196 13.36 78.9196 11.888C78.9196 10.416 79.2396 9.30667 79.8796 8.56C80.5303 7.80267 81.389 7.424 82.4556 7.424C83.117 7.424 83.6556 7.54667 84.0716 7.792C84.4983 8.03733 84.845 8.336 85.1116 8.688H85.2076C85.197 8.54933 85.1756 8.34667 85.1436 8.08C85.1223 7.80267 85.1116 7.584 85.1116 7.424V4H86.5196V16.16H85.3836L85.1756 15.008H85.1116C84.8556 15.3707 84.5143 15.68 84.0876 15.936C83.661 16.192 83.1116 16.32 82.4396 16.32ZM82.6636 15.152C83.5703 15.152 84.205 14.9067 84.5676 14.416C84.941 13.9147 85.1276 13.1627 85.1276 12.16V11.904C85.1276 10.8373 84.9516 10.0213 84.5996 9.456C84.2476 8.88 83.597 8.592 82.6476 8.592C81.8903 8.592 81.3196 8.896 80.9356 9.504C80.5623 10.1013 80.3756 10.9067 80.3756 11.92C80.3756 12.944 80.5623 13.7387 80.9356 14.304C81.3196 14.8693 81.8956 15.152 82.6636 15.152Z" fill="#D4D4D4"/>
<path d="M53.8699 24.6798C52.6433 24.6798 51.6779 25.0905 50.9739 25.9118C50.2699 26.7332 49.9179 27.8585 49.9179 29.2878C49.9179 30.7065 50.2433 31.8318 50.8939 32.6638C51.5553 33.4852 52.5419 33.8958 53.8539 33.8958C54.3553 33.8958 54.83 33.8532 55.278 33.7678C55.726 33.6825 56.1633 33.5758 56.5899 33.4478V34.6958C56.1633 34.8558 55.7206 34.9732 55.2619 35.0478C54.8139 35.1225 54.2753 35.1598 53.6459 35.1598C52.4833 35.1598 51.5126 34.9198 50.7339 34.4398C49.9553 33.9598 49.3686 33.2772 48.9739 32.3918C48.5899 31.5065 48.3979 30.4665 48.3979 29.2718C48.3979 28.1198 48.6059 27.1065 49.0219 26.2318C49.4486 25.3465 50.0726 24.6585 50.8939 24.1678C51.7153 23.6665 52.7126 23.4158 53.8859 23.4158C55.0913 23.4158 56.1419 23.6398 57.0379 24.0878L56.4619 25.3038C56.1099 25.1438 55.7153 24.9998 55.278 24.8718C54.8513 24.7438 54.3819 24.6798 53.8699 24.6798Z" fill="#D4D4D4"/>
<path d="M60.2993 26.4078C60.2993 26.8345 60.2727 27.2345 60.2193 27.6078H60.3153C60.5927 27.1705 60.966 26.8398 61.4353 26.6158C61.9153 26.3918 62.4327 26.2798 62.9873 26.2798C64.0327 26.2798 64.8167 26.5305 65.3393 27.0318C65.862 27.5225 66.1233 28.3172 66.1233 29.4158V34.9998H64.7313V29.5118C64.7313 28.1358 64.0913 27.4478 62.8113 27.4478C61.8513 27.4478 61.19 27.7198 60.8273 28.2638C60.4753 28.7972 60.2993 29.5652 60.2993 30.5678V34.9998H58.8913V22.8398H60.2993V26.4078Z" fill="#D4D4D4"/>
<path d="M72.0299 26.2798C73.0753 26.2798 73.8486 26.5092 74.35 26.9678C74.8513 27.4265 75.1019 28.1572 75.1019 29.1598V34.9998H74.0779L73.806 33.7838H73.7419C73.3686 34.2532 72.9739 34.5998 72.5579 34.8238C72.1526 35.0478 71.5873 35.1598 70.8619 35.1598C70.0833 35.1598 69.4379 34.9572 68.9259 34.5518C68.4139 34.1358 68.1579 33.4905 68.1579 32.6158C68.1579 31.7625 68.4939 31.1065 69.1659 30.6478C69.8379 30.1785 70.8726 29.9225 72.2699 29.8798L73.726 29.8318V29.3198C73.726 28.6052 73.5713 28.1092 73.2619 27.8318C72.9526 27.5545 72.5153 27.4158 71.9499 27.4158C71.5019 27.4158 71.0753 27.4852 70.67 27.6238C70.2646 27.7518 69.8859 27.9012 69.5339 28.0718L69.1019 27.0158C69.4753 26.8132 69.9179 26.6425 70.4299 26.5038C70.9419 26.3545 71.4753 26.2798 72.0299 26.2798ZM72.4459 30.8558C71.3793 30.8985 70.6379 31.0692 70.2219 31.3678C69.8166 31.6665 69.6139 32.0878 69.6139 32.6318C69.6139 33.1118 69.7579 33.4638 70.0459 33.6878C70.3446 33.9118 70.7233 34.0238 71.1819 34.0238C71.9073 34.0238 72.51 33.8265 72.99 33.4318C73.4699 33.0265 73.7099 32.4078 73.7099 31.5758V30.8078L72.4459 30.8558Z" fill="#D4D4D4"/>
<path d="M81.8787 26.2638C82.9027 26.2638 83.676 26.5145 84.1987 27.0158C84.7214 27.5065 84.9827 28.3065 84.9827 29.4158V34.9998H83.5907V29.5118C83.5907 28.1358 82.9507 27.4478 81.6707 27.4478C80.7214 27.4478 80.0654 27.7145 79.7027 28.2478C79.34 28.7812 79.1587 29.5492 79.1587 30.5518V34.9998H77.7507V26.4238H78.8867L79.0947 27.5918H79.1747C79.452 27.1438 79.836 26.8132 80.3267 26.5998C80.8174 26.3758 81.3347 26.2638 81.8787 26.2638Z" fill="#D4D4D4"/>
<path d="M91.0813 35.1598C90.324 35.1598 89.6467 35.0052 89.0493 34.6958C88.4627 34.3865 87.9987 33.9065 87.6573 33.2558C87.3267 32.6052 87.1613 31.7732 87.1613 30.7598C87.1613 29.7038 87.3373 28.8452 87.6893 28.1838C88.0413 27.5225 88.516 27.0372 89.1133 26.7278C89.7213 26.4185 90.4093 26.2638 91.1773 26.2638C91.6147 26.2638 92.036 26.3118 92.4413 26.4078C92.8467 26.4932 93.1773 26.5998 93.4333 26.7278L93.0013 27.8958C92.7453 27.7998 92.4467 27.7092 92.1053 27.6238C91.764 27.5385 91.444 27.4958 91.1453 27.4958C89.46 27.4958 88.6173 28.5785 88.6173 30.7438C88.6173 31.7785 88.82 32.5732 89.2253 33.1278C89.6413 33.6718 90.2547 33.9438 91.0653 33.9438C91.5347 33.9438 91.9453 33.8958 92.2973 33.7998C92.66 33.7038 92.9907 33.5865 93.2893 33.4478V34.6958C93.0013 34.8452 92.6813 34.9572 92.3293 35.0318C91.988 35.1172 91.572 35.1598 91.0813 35.1598Z" fill="#D4D4D4"/>
<path d="M98.6408 26.2638C99.3768 26.2638 100.006 26.4238 100.529 26.7438C101.062 27.0638 101.467 27.5172 101.745 28.1038C102.033 28.6798 102.177 29.3572 102.177 30.1358V30.9838H96.3048C96.3262 31.9545 96.5715 32.6958 97.0408 33.2078C97.5208 33.7092 98.1875 33.9598 99.0408 33.9598C99.5848 33.9598 100.065 33.9118 100.481 33.8158C100.907 33.7092 101.345 33.5598 101.793 33.3678V34.5998C101.355 34.7918 100.923 34.9305 100.497 35.0158C100.07 35.1118 99.5635 35.1598 98.9768 35.1598C98.1662 35.1598 97.4462 34.9945 96.8168 34.6638C96.1982 34.3332 95.7128 33.8425 95.3608 33.1918C95.0195 32.5305 94.8488 31.7252 94.8488 30.7758C94.8488 29.8372 95.0035 29.0318 95.3128 28.3598C95.6328 27.6878 96.0755 27.1705 96.6408 26.8078C97.2168 26.4452 97.8835 26.2638 98.6408 26.2638ZM98.6248 27.4158C97.9528 27.4158 97.4195 27.6345 97.0248 28.0718C96.6408 28.4985 96.4115 29.0958 96.3368 29.8638H100.705C100.694 29.1385 100.523 28.5518 100.193 28.1038C99.8622 27.6452 99.3395 27.4158 98.6248 27.4158Z" fill="#D4D4D4"/>
<defs>
<linearGradient id="paint0_linear_802_255" x1="29.9474" y1="-33.3333" x2="-15.4584" y2="-9.10097" gradientUnits="userSpaceOnUse">
<stop stop-color="#F3E9FF"/>
<stop offset="1" stop-color="#0086E7"/>
</linearGradient>
</defs>
</svg>
