<svg width="24" height="24" viewBox="0 0 24 24" fill="none" xmlns="http://www.w3.org/2000/svg">
<path fill-rule="evenodd" clip-rule="evenodd" d="M16 3C15.4477 3 15 3.44772 15 4V8C15 8.55228 15.4477 9 16 9H20C20.5523 9 21 8.55228 21 8V4C21 3.44772 20.5523 3 20 3H16ZM17 7V5H19V7H17Z" fill="#939393"/>
<path d="M20 13C20.5523 13 21 12.5523 21 12C21 11.4477 20.5523 11 20 11H16C15.4477 11 15 11.4477 15 12C15 12.5523 15.4477 13 16 13H20Z" fill="#939393"/>
<path d="M19 19.5C19 19.2239 19.2239 19 19.5 19H20.5C20.7761 19 21 19.2239 21 19.5V20.5C21 20.7761 20.7761 21 20.5 21H19.5C19.2239 21 19 20.7761 19 20.5V19.5Z" fill="#939393"/>
<path d="M15 16C15 15.4477 15.4477 15 16 15H20C20.5523 15 21 15.4477 21 16C21 16.5523 20.5523 17 20 17H17V20C17 20.5523 16.5523 21 16 21C15.4477 21 15 20.5523 15 20V16Z" fill="#939393"/>
<path d="M12 21C11.4477 21 11 20.5523 11 20V16C11 15.4477 11.4477 15 12 15C12.5523 15 13 15.4477 13 16V20C13 20.5523 12.5523 21 12 21Z" fill="#939393"/>
<path fill-rule="evenodd" clip-rule="evenodd" d="M4 15C3.44772 15 3 15.4477 3 16V20C3 20.5523 3.44772 21 4 21H8C8.55228 21 9 20.5523 9 20V16C9 15.4477 8.55228 15 8 15H4ZM5 19V17H7V19H5Z" fill="#939393"/>
<path d="M6.75 7.25C6.75 6.97386 6.97386 6.75 7.25 6.75H8.75C9.02614 6.75 9.25 6.97386 9.25 7.25V8.75C9.25 9.02614 9.02614 9.25 8.75 9.25H7.25C6.97386 9.25 6.75 9.02614 6.75 8.75V7.25Z" fill="#939393"/>
<path fill-rule="evenodd" clip-rule="evenodd" d="M4 3C3.44772 3 3 3.44772 3 4V12C3 12.5523 3.44772 13 4 13H12C12.5523 13 13 12.5523 13 12V4C13 3.44772 12.5523 3 12 3H4ZM5 11V5H11V11H5Z" fill="#939393"/>
</svg>
