<svg width="40" height="40" viewBox="0 0 40 40" fill="none" xmlns="http://www.w3.org/2000/svg">
<path d="M20 40C31.0457 40 40 31.0457 40 20C40 8.9543 31.0457 0 20 0C8.9543 0 0 8.9543 0 20C0 31.0457 8.9543 40 20 40Z" fill="url(#paint0_linear_802_2951)"/>
<path d="M10.4938 26.9237L9.04125 26.08V13.3563L11.3812 11.9963L12.8337 12.8387L10.4938 14.2V18.6225L16.4112 22.0625V23.6987L10.4938 20.26V26.9225V26.9237ZM30.9375 24.3925V26.08L19.99 32.4425L17.65 31.0812V29.3937L19.99 30.7537L23.7962 28.5425V21.665L25.2037 20.8463V27.725L30.9375 24.3925ZM33.7287 19.7175V19.43L28.0787 22.715V21.0775L33.7287 17.7937V11.7338L19.9875 3.75L13.1187 7.7425L12.8712 7.88625L18.5212 11.17L17.1137 11.9875L11.4637 8.70375L6.25 11.7338V27.7012L13.1187 31.6937L13.3675 31.8375V25.27L14.775 26.0875V32.6562L19.99 35.685L33.7287 27.7012V19.7175ZM26.61 16.6875L20.9225 19.995V26.8725L19.99 27.4137L19.2862 27.005V20.3925L13.3675 16.9525V15.87L14.0712 15.46L19.7612 18.7662L25.68 15.3287L26.6112 15.87V16.6887L26.61 16.6875ZM18.5375 7.8375L19.9887 6.995L30.9362 13.3575V16.0763L29.4862 16.9187V14.1988L25.6775 11.9875L19.76 15.4262L18.3512 14.6088L24.27 11.1688L18.5375 7.8375Z" fill="#D4D4D4"/>
<defs>
<linearGradient id="paint0_linear_802_2951" x1="20" y1="0" x2="20" y2="40" gradientUnits="userSpaceOnUse">
<stop stop-color="#484848"/>
<stop offset="1" stop-color="#262626"/>
</linearGradient>
</defs>
</svg>
