<svg width="24" height="24" viewBox="0 0 24 24" fill="none" xmlns="http://www.w3.org/2000/svg">
<path fill-rule="evenodd" clip-rule="evenodd" d="M11.9831 5.7282C11.9831 5.7282 8.89372 3.0994 5.03677 4.3262C2.30819 5.19421 1.47718 8.59201 2.30785 11.4721C3.30018 14.9127 6.0291 18.618 11.9831 21C17.9371 18.618 20.6661 14.9127 21.6584 11.4721C22.4891 8.59201 21.8883 5.26721 18.9295 4.3262C15.0721 3.09938 11.9831 5.7282 11.9831 5.7282ZM11.9831 18.7982C7.13352 16.644 5.05708 13.5828 4.28916 10.9202C3.97254 9.82248 3.99216 8.67051 4.29216 7.78196C4.58356 6.91891 5.07439 6.44144 5.67092 6.25165M11.9831 18.7982C16.8327 16.644 18.9092 13.5828 19.6771 10.9202C20.0101 9.76584 20.0199 8.62644 19.7494 7.77567C19.4993 6.9892 19.04 6.48848 18.2954 6.25167C16.9651 5.82859 15.746 6.05607 14.7889 6.4405C14.3117 6.63217 13.9245 6.85413 13.6617 7.02487C13.5315 7.10942 13.4356 7.17899 13.3783 7.22225C13.3498 7.24381 13.3312 7.25857 13.3231 7.26509L13.3216 7.26627L11.9832 8.40529L10.6447 7.26636L10.6433 7.26518C10.6352 7.25866 10.6166 7.24389 10.588 7.22233C10.5307 7.17906 10.4348 7.10948 10.3046 7.02493C10.0417 6.85417 9.65446 6.6322 9.1772 6.44051C8.21999 6.05606 7.00086 5.82865 5.67092 6.25165" fill="#939393"/>
</svg>
