<svg width="24" height="24" viewBox="0 0 24 24" fill="none" xmlns="http://www.w3.org/2000/svg">
<path fill-rule="evenodd" clip-rule="evenodd" d="M3 11.8282C3 11.2977 3.21071 10.789 3.58579 10.414L10.5858 3.41391C11.3668 2.63286 12.6332 2.63286 13.4142 3.41391L20.4142 10.414C20.7893 10.789 21 11.2977 21 11.8282V19.9998C21 20.552 20.5523 20.9998 20 20.9998H14C13.4477 20.9998 13 20.552 13 19.9998V14.9998H11V19.9998C11 20.552 10.5523 20.9998 10 20.9998H4C3.44772 20.9998 3 20.552 3 19.9998V11.8282ZM12 4.82812L5 11.8282V18.9998H9V13.9997C9 13.4475 9.44772 12.9997 10 12.9997H14C14.5523 12.9997 15 13.4475 15 13.9997V18.9998H19V11.8282L12 4.82812Z" fill="#939393"/>
</svg>
