<svg width="19" height="18" viewBox="0 0 19 18" fill="none" xmlns="http://www.w3.org/2000/svg">
<g clip-path="url(#clip0_9427_18842)">
<path fill-rule="evenodd" clip-rule="evenodd" d="M0.75 9C0.75 13.9706 4.77943 18 9.75 18C14.7206 18 18.75 13.9706 18.75 9C18.75 4.02943 14.7206 0 9.75 0C4.77943 0 0.75 4.02943 0.75 9ZM17.55 8.99998C17.55 13.3078 14.0578 16.8 9.75001 16.8C5.44219 16.8 1.95001 13.3078 1.95001 8.99998C1.95001 4.69216 5.44219 1.19998 9.75001 1.19998C14.0578 1.19998 17.55 4.69216 17.55 8.99998Z" fill="#A7AEBE"/>
<path d="M7.58264 10.5645V11.25H4.22283V10.665L5.81166 9.12644C5.97133 8.96598 6.09726 8.82482 6.18947 8.70294C6.28167 8.57905 6.34801 8.46835 6.38849 8.37086C6.43123 8.27133 6.45259 8.17688 6.45259 8.08751C6.45259 7.95346 6.42785 7.8387 6.37837 7.74323C6.3289 7.64574 6.25581 7.57059 6.15911 7.51777C6.06466 7.46496 5.94771 7.43856 5.80828 7.43856C5.65986 7.43856 5.53167 7.47106 5.42372 7.53605C5.31803 7.60105 5.23707 7.69143 5.18085 7.80721C5.12687 7.92298 5.09989 8.054 5.09989 8.20024H4.125C4.125 7.93619 4.19472 7.69448 4.33415 7.47512C4.47358 7.25372 4.67035 7.07803 4.92447 6.94803C5.1786 6.81602 5.47995 6.75 5.82852 6.75C6.1726 6.75 6.4627 6.80078 6.69884 6.90234C6.93722 7.00186 7.11713 7.14607 7.23857 7.33497C7.36226 7.52184 7.4241 7.74526 7.4241 8.00525C7.4241 8.15149 7.39824 8.29468 7.34652 8.43483C7.29479 8.57295 7.22057 8.71107 7.12388 8.84918C7.02942 8.98527 6.91473 9.12339 6.7798 9.26354C6.64486 9.40369 6.49532 9.54892 6.33115 9.69922L5.4777 10.5645H7.58264Z" fill="#A7AEBE"/>
<path d="M10.5576 6.80469V11.2498H9.58611V7.8162L8.41895 8.15133V7.45973L10.4531 6.80469H10.5576Z" fill="#A7AEBE"/>
<path d="M15.3754 8.77914V9.54386H12.0088V8.77914H15.3754ZM14.1542 7.57568V10.8052H13.2334V7.57568H14.1542Z" fill="#A7AEBE"/>
</g>
<defs>
<clipPath id="clip0_9427_18842">
<rect width="18" height="18" fill="white" transform="translate(0.75)"/>
</clipPath>
</defs>
</svg>
