<svg width="40" height="40" viewBox="0 0 40 40" fill="none" xmlns="http://www.w3.org/2000/svg">
<path d="M33.4132 26.9378C32.9105 28.0558 32.3155 29.0848 31.626 30.031C30.6861 31.3208 29.9167 32.2136 29.3238 32.7094C28.4045 33.5232 27.4196 33.94 26.3649 33.9636C25.6078 33.9636 24.6947 33.7562 23.6318 33.3356C22.5655 32.9168 21.5855 32.7094 20.6894 32.7094C19.7497 32.7094 18.7418 32.9168 17.6637 33.3356C16.584 33.7562 15.7142 33.9756 15.0492 33.9972C14.0378 34.0388 13.0298 33.6102 12.0235 32.7094C11.3813 32.1702 10.5779 31.2458 9.61563 29.9362C8.58311 28.5376 7.73426 26.916 7.06924 25.0672C6.35703 23.0702 6 21.1364 6 19.2643C6 17.1198 6.48137 15.2701 7.44555 13.7202C8.20332 12.4752 9.2114 11.4931 10.4731 10.7721C11.7348 10.0511 13.0981 9.68373 14.5662 9.66023C15.3695 9.66023 16.4229 9.89943 17.732 10.3695C19.0375 10.8412 19.8757 11.0804 20.2432 11.0804C20.5179 11.0804 21.449 10.8007 23.0275 10.2431C24.5203 9.72601 25.7801 9.51189 26.8122 9.59623C29.6089 9.81351 31.7102 10.8748 33.1075 12.7869C30.6062 14.2458 29.3689 16.2892 29.3936 18.9105C29.416 20.9523 30.1856 22.6514 31.6978 24.0006C32.3832 24.6266 33.1485 25.1106 34 25.4544C33.8153 25.9698 33.6203 26.4636 33.4132 26.9378ZM26.999 2.64018C26.999 4.24054 26.3916 5.7348 25.181 7.11789C23.72 8.76209 21.953 9.71217 20.0367 9.56225C20.0123 9.37025 19.9982 9.16819 19.9982 8.95585C19.9982 7.41951 20.6929 5.7753 21.9267 4.43094C22.5427 3.75027 23.3261 3.18431 24.2761 2.73282C25.2241 2.28807 26.1207 2.04212 26.9642 2C26.9887 2.21394 26.999 2.42792 26.999 2.64018Z" fill="#D4D4D4"/>
</svg>
