<svg width="99" height="16" viewBox="0 0 99 16" fill="none" xmlns="http://www.w3.org/2000/svg">
<g clip-path="url(#clip0_417_2852)">
<path d="M26.3584 9.74672V9.72927C26.3584 8.6987 25.7904 8.17466 24.8852 7.82533C25.4531 7.51093 25.9146 7.02185 25.9146 6.14848V6.13103C25.9146 4.9083 24.9207 4.12227 23.3233 4.12227H19.667V11.8603H23.412C25.1869 11.8603 26.3584 11.1616 26.3584 9.74672ZM24.193 6.44542C24.193 7.02185 23.7138 7.26639 22.9506 7.26639H21.3531V5.62446H23.057C23.7847 5.62446 24.193 5.90393 24.193 6.42797V6.44542ZM24.6367 9.53712C24.6367 10.1136 24.1752 10.3755 23.412 10.3755H21.3531V8.68125H23.3588C24.2462 8.68125 24.6367 8.99564 24.6367 9.51967V9.53712ZM29.9792 11.8603V4.12227H28.2575V11.8603H29.9792ZM39.2797 11.8603V4.12227H37.5758V8.89084L33.884 4.12227H32.2865V11.8603H33.9904V6.95195L37.8065 11.8778H39.2797V11.8603ZM48.8641 11.8603L45.4918 4.06987H43.8944L40.5221 11.8603H42.2793L43.007 10.131H46.3261L47.0538 11.8603H48.8641ZM45.7226 8.6288H43.6282L44.6754 6.11353L45.7226 8.6288ZM57.0998 11.8603V4.12227H55.3956V8.89084L51.7039 4.12227H50.1066V11.8603H51.8103V6.95195L55.6265 11.8778H57.0998V11.8603ZM66.0454 10.6201L64.9449 9.51967C64.3237 10.0786 63.7735 10.4279 62.8859 10.4279C61.5371 10.4279 60.614 9.32753 60.614 8.00002V7.98252C60.614 6.65501 61.5726 5.57205 62.8859 5.57205C63.6671 5.57205 64.2883 5.90393 64.8915 6.44542L65.9919 5.18777C65.2643 4.47162 64.3767 4 62.8859 4C60.4721 4 58.7859 5.79913 58.7859 8.00002V8.01747C58.7859 10.2358 60.5076 12 62.815 12C64.3237 12 65.2288 11.476 66.0454 10.6201ZM73.4113 11.8603V10.3406H69.1514V8.71615H72.8611V7.19649H69.1514V5.62446H73.3579V4.10481H67.4297V11.8428H73.4113V11.8603Z" fill="#939393"/>
<path d="M83.9575 6.64527C83.9575 5.06916 82.8123 4.05518 80.9997 4.05518H77.9307V11.7703H79.2985V9.29047H80.8442C82.5566 9.29047 83.9575 8.38667 83.9575 6.64527ZM82.5678 6.67832C82.5678 7.50493 81.9228 8.06708 80.8884 8.06708H79.2985V5.2896H80.8884C81.9116 5.2896 82.5678 5.76353 82.5678 6.67832Z" fill="#939393"/>
<path d="M88.6017 4H87.334L83.9092 11.7702H85.3105L86.1111 9.90762H89.7916L90.581 11.7702H92.0266L88.6017 4ZM89.291 8.70624H86.6112L87.9455 5.62018L89.291 8.70624Z" fill="#939393"/>
<path d="M95.8039 8.69527L98.8953 4.05518H97.3273L95.1258 7.47188L92.9463 4.05518H91.334L94.4249 8.72838V11.7703H95.8039V8.69527Z" fill="#939393"/>
<path d="M2.13547 9.81412L3.93745 8.00993L2.13547 6.20568L0.333496 8.00993L2.13547 9.81412Z" fill="#939393"/>
<path d="M11.4226 6.72121L8.3335 3.60842L5.22458 6.72121L3.4226 4.91698L6.53151 1.80422L8.3335 0L10.1355 1.80422L13.2246 4.91698L11.4226 6.72121Z" fill="#939393"/>
<path d="M12.7295 8.00993L14.5315 6.20568L16.3335 8.00993L14.5315 9.81412L12.7295 8.00993Z" fill="#939393"/>
<path d="M5.24438 9.29865L8.3335 12.3916L11.4226 9.29865L13.2246 11.1028L10.1157 14.1958L8.3137 16L6.51172 14.1958L3.4226 11.1028L5.24438 9.29865Z" fill="#939393"/>
<path d="M10.1355 8.00993L8.3335 9.81412L6.53151 8.00993L8.3335 6.20568L10.1355 8.00993Z" fill="#939393"/>
</g>
<defs>
<clipPath id="clip0_417_2852">
<rect width="98.6667" height="16" fill="white" transform="translate(0.333496)"/>
</clipPath>
</defs>
</svg>
