<svg width="72" height="16" viewBox="0 0 72 16" fill="none" xmlns="http://www.w3.org/2000/svg">
<g clip-path="url(#clip0_417_2850)">
<path fill-rule="evenodd" clip-rule="evenodd" d="M6.06386 15.7605C10.3509 16.829 14.6922 14.2216 15.7608 9.9351H15.7605C16.8292 5.64939 14.2209 1.30791 9.93433 0.239413C5.64885 -0.829081 1.30783 1.77914 0.239637 6.06562C-0.829466 10.3511 1.77906 14.692 6.06386 15.7605ZM9.78242 4.07492C11.0018 4.51918 11.8936 5.18513 11.7184 6.42392C11.5916 7.33076 11.1162 7.76977 10.4852 7.92368C11.3517 8.40081 11.7927 9.1325 11.3726 10.401C10.8514 11.9764 9.61298 12.1093 7.96613 11.7797L7.56645 13.4738L6.60067 13.2192L6.99512 11.5478C6.74481 11.4821 6.48899 11.4122 6.22547 11.3366L5.82964 13.0159L4.86497 12.7613L5.26464 11.064C5.17449 11.0396 5.08378 11.0146 4.99242 10.9894C4.85518 10.9515 4.71651 10.9133 4.57614 10.8761L3.31934 10.5447L3.79879 9.37543C3.79879 9.37543 4.5104 9.57559 4.50077 9.56075C4.77419 9.63232 4.8955 9.4438 4.94336 9.31812L5.57493 6.64008C5.59861 6.64609 5.62179 6.65224 5.64416 6.65817C5.65532 6.66113 5.66627 6.66404 5.67698 6.66684C5.63847 6.65055 5.60353 6.64008 5.57657 6.6328L6.02714 4.72108C6.03897 4.50404 5.96828 4.23028 5.57713 4.127C5.59226 4.11623 4.8757 3.94254 4.8757 3.94254L5.13261 2.85155L6.46451 3.20329L6.46341 3.20853C6.66366 3.26119 6.86996 3.31122 7.08012 3.36184L7.47594 1.68433L8.44117 1.93889L8.05332 3.58354C8.31244 3.64609 8.57321 3.70922 8.8271 3.77613L9.2122 2.14226L10.178 2.39682L9.78242 4.07492ZM6.72761 10.1591C7.51565 10.3792 9.23794 10.8604 9.51175 9.69662C9.79233 8.50671 8.12199 8.11029 7.30694 7.91686C7.21586 7.89524 7.13547 7.87616 7.06967 7.85879L6.53933 10.1074C6.59337 10.1216 6.65671 10.1393 6.72761 10.1591ZM7.4707 6.87334C8.12772 7.05879 9.56084 7.4633 9.81048 6.40558C10.0654 5.3237 8.67252 4.99757 7.99226 4.83829C7.91574 4.82038 7.84823 4.80457 7.79311 4.79004L7.31228 6.82947C7.35769 6.84145 7.41099 6.85649 7.4707 6.87334Z" fill="#939393"/>
<path d="M24.4958 4.90977C25.0701 4.90977 25.5663 5.00943 25.983 5.20515C26.4022 5.40277 26.7478 5.66896 27.0252 6.00371C27.2987 6.34024 27.5023 6.73358 27.6338 7.18432C27.7643 7.63656 27.8298 8.12224 27.8298 8.64221C27.8298 9.44169 27.6787 10.1962 27.3735 10.9078C27.0681 11.6205 26.6543 12.2388 26.1275 12.7661C25.6012 13.2927 24.9798 13.7077 24.2632 14.0144C23.5478 14.3213 22.7698 14.4747 21.9346 14.4747C21.8266 14.4747 21.6367 14.4717 21.3685 14.4664C21.1003 14.461 20.792 14.4343 20.4468 14.3893C20.0757 14.3379 19.7076 14.268 19.344 14.1796C18.9635 14.0906 18.5938 13.9627 18.2412 13.7981L21.3422 1.17838L24.1196 0.761719L23.0093 5.23983C23.2402 5.1388 23.4798 5.05756 23.7254 4.99722C23.9775 4.93785 24.2362 4.90853 24.4956 4.90977H24.4958ZM22.1661 12.3409C22.5844 12.3409 22.9783 12.2411 23.3488 12.0457C23.7211 11.8485 24.0479 11.5797 24.309 11.2557C24.5819 10.9178 24.7966 10.5395 24.9448 10.1353C25.1003 9.71748 25.1793 9.2766 25.1781 8.83252C25.1781 8.27696 25.0823 7.84443 24.8913 7.5309C24.7003 7.219 24.3469 7.06213 23.8335 7.06213C23.6652 7.06213 23.4488 7.09322 23.1802 7.14873C22.9106 7.20763 22.6694 7.33002 22.4531 7.51418L21.2707 12.2699C21.342 12.2821 21.405 12.2936 21.4588 12.3046C21.5115 12.3164 21.5695 12.3247 21.6277 12.3305C21.689 12.3372 21.7591 12.3406 21.8439 12.3406L22.1659 12.3409H22.1661ZM30.7102 14.2334H28.0573L30.2976 5.10334H32.9686L30.7102 14.2334ZM32.001 3.99091C31.6391 3.99379 31.2863 3.88113 30.9972 3.67026C30.6969 3.45762 30.5479 3.13038 30.5479 2.68923C30.5479 2.44662 30.5988 2.21896 30.7 2.00424C30.7977 1.79617 30.9348 1.6077 31.1041 1.44848C31.2737 1.29162 31.4708 1.16512 31.6861 1.07487C31.9102 0.982127 32.1515 0.934976 32.3952 0.936413C32.7652 0.936413 33.099 1.04313 33.3982 1.25707C33.696 1.47206 33.8458 1.79931 33.8458 2.2381C33.8473 2.4749 33.7952 2.70915 33.6931 2.9244C33.5964 3.1326 33.4597 3.3212 33.2904 3.48016C33.1211 3.63722 32.9239 3.76339 32.7084 3.85266C32.4866 3.94657 32.2516 3.99091 32.001 3.99091ZM35.2935 2.8286L38.0719 2.41168L37.3897 5.10288H40.3653L39.828 7.22011H36.8703L36.0824 10.4137C36.0098 10.6797 35.9686 10.9284 35.9572 11.1596C35.9439 11.3918 35.9744 11.5911 36.0461 11.7589C36.1174 11.9272 36.2453 12.0568 36.4312 12.1483C36.6164 12.2416 36.8813 12.2886 37.2288 12.2886C37.5149 12.2886 37.794 12.2622 38.0631 12.2099C38.3396 12.1568 38.6118 12.0845 38.8775 11.9934L39.0758 13.9728C38.6951 14.1063 38.306 14.2162 37.9109 14.3018C37.4919 14.3953 36.996 14.4401 36.4228 14.4401C35.5986 14.4401 34.9597 14.3215 34.5045 14.0857C34.0499 13.8483 33.7286 13.5233 33.5362 13.1122C33.3466 12.7029 33.2618 12.2307 33.2855 11.6984C33.3099 11.1652 33.393 10.6045 33.5362 10.0144L35.2935 2.8286ZM40.2488 10.5878C40.2488 9.80114 40.3802 9.05971 40.6427 8.36531C40.9049 7.67039 41.2827 7.06278 41.7727 6.54151C42.2611 6.02278 42.8562 5.61149 43.5569 5.30971C44.2536 5.00962 45.0343 4.85831 45.8943 4.85831C46.433 4.85831 46.9139 4.90762 47.3372 5.00643C47.7622 5.10608 48.1464 5.23493 48.494 5.3965L47.5793 7.41126C47.3356 7.31637 47.0873 7.23238 46.8355 7.15963C46.5788 7.08316 46.2656 7.04626 45.8949 7.04626C45.0093 7.04626 44.3095 7.34203 43.7885 7.93103C43.2694 8.52068 43.008 9.31434 43.008 10.3102C43.008 10.9003 43.1397 11.3772 43.4035 11.7422C43.6659 12.1072 44.1509 12.2889 44.8548 12.2889C45.2021 12.2889 45.5375 12.2538 45.8587 12.1852C46.1822 12.1158 46.4679 12.0283 46.7196 11.925L46.9179 13.9904C46.5549 14.1252 46.1838 14.2386 45.8066 14.3299C45.3995 14.4263 44.9155 14.476 44.354 14.476C43.6131 14.476 42.9854 14.3712 42.4724 14.1642C41.959 13.9544 41.5348 13.6755 41.2004 13.3223C40.8645 12.9682 40.6234 12.5545 40.4742 12.0802C40.3251 11.6058 40.2486 11.1071 40.2486 10.5878H40.2488ZM52.0334 14.4754C51.4002 14.4754 50.8501 14.3819 50.3835 14.197C49.9184 14.0122 49.5333 13.7525 49.2284 13.4159C48.9229 13.0812 48.6948 12.6844 48.5383 12.2272C48.3818 11.7703 48.3066 11.2642 48.3066 10.7097C48.3066 10.0144 48.4217 9.31911 48.6549 8.6253C48.8871 7.93083 49.2312 7.30625 49.6862 6.75134C50.1383 6.19558 50.696 5.74118 51.352 5.3869C52.0077 5.03496 52.7617 4.85792 53.6091 4.85792C54.2308 4.85792 54.7776 4.95157 55.2508 5.13651C55.7215 5.32107 56.1092 5.58275 56.4157 5.91758C56.7189 6.2541 56.9496 6.64913 57.104 7.10713C57.2602 7.56303 57.3373 8.07039 57.3373 8.6253C57.3373 9.31846 57.2235 10.0142 56.998 10.7095C56.7721 11.4018 56.4367 12.0277 55.9941 12.5837C55.5524 13.1388 55.0003 13.5928 54.3366 13.9456C53.6742 14.2985 52.9056 14.4754 52.0334 14.4754ZM53.3591 7.04646C52.9658 7.04646 52.6181 7.15689 52.3204 7.37527C52.0217 7.59627 51.7709 7.87428 51.5687 8.20904C51.3642 8.54556 51.2128 8.91252 51.1104 9.31134C51.0085 9.71108 50.9587 10.0894 50.9587 10.448C50.9587 11.0274 51.0555 11.479 51.2449 11.8035C51.437 12.1263 51.7827 12.2889 52.2846 12.2889C52.6792 12.2889 53.0253 12.179 53.3245 11.9584C53.6215 11.7392 53.8729 11.4612 54.0765 11.1253C54.2797 10.791 54.4326 10.4228 54.535 10.023C54.6353 9.62448 54.6865 9.24447 54.6865 8.88613C54.6865 8.3083 54.5904 7.85606 54.3987 7.53175C54.2079 7.20874 53.8607 7.04626 53.3591 7.04626V7.04646ZM60.2282 14.2334H57.5734L59.8137 5.10334H62.4857L60.2282 14.2334ZM61.5169 3.99091C61.1555 3.99385 60.8031 3.88113 60.5144 3.67026C60.2152 3.45762 60.0651 3.13038 60.0651 2.68923C60.0651 2.44662 60.1169 2.21896 60.2178 2.00424C60.3149 1.79591 60.4519 1.60737 60.6215 1.44848C60.7914 1.29155 60.9887 1.16505 61.2042 1.07487C61.4274 0.982127 61.6681 0.934976 61.9105 0.936413C62.2818 0.936413 62.6167 1.04313 62.9151 1.25707C63.2141 1.47206 63.3647 1.79931 63.3647 2.2381C63.3647 2.48156 63.3107 2.71007 63.2108 2.9244C63.1102 3.13873 62.9758 3.32322 62.8084 3.48016C62.639 3.63682 62.4418 3.763 62.2265 3.85266C62.0044 3.94657 61.7694 3.99091 61.5169 3.99091ZM64.3976 5.51849C64.5988 5.46148 64.8236 5.39291 65.068 5.31826C65.3401 5.23663 65.6155 5.16773 65.8943 5.1117C66.1974 5.04737 66.539 4.99487 66.9151 4.95438C67.2911 4.91297 67.7198 4.89286 68.1958 4.89286C69.5946 4.89286 70.5593 5.28744 71.0913 6.07425C71.6233 6.86105 71.7158 7.93769 71.3701 9.30278L70.1502 14.2326H67.4801L68.6629 9.40629C68.7345 9.10517 68.7912 8.81371 68.8331 8.52904C68.8756 8.24698 68.8729 7.99816 68.8236 7.78318C68.7804 7.57707 68.6636 7.39238 68.4935 7.26171C68.318 7.129 68.054 7.06233 67.6948 7.06233C67.3404 7.0637 66.986 7.09903 66.6383 7.1678L64.8992 14.2319H62.2285L64.3976 5.51849Z" fill="#939393"/>
</g>
<defs>
<clipPath id="clip0_417_2850">
<rect width="72" height="16" fill="white"/>
</clipPath>
</defs>
</svg>
