<svg width="55" height="12" viewBox="0 0 55 12" fill="none" xmlns="http://www.w3.org/2000/svg">
<g clip-path="url(#clip0_9427_18796)">
<path fill-rule="evenodd" clip-rule="evenodd" d="M4.92289 11.8204C8.13818 12.6217 11.3941 10.6662 12.1956 7.45132H12.1954C12.9969 4.23704 11.0407 0.980932 7.82575 0.17956C4.61164 -0.621811 1.35587 1.33435 0.554728 4.54921C-0.247099 7.76332 1.70929 11.019 4.92289 11.8204ZM7.71181 3.05619C8.62635 3.38939 9.2952 3.88885 9.1638 4.81794C9.0687 5.49807 8.71215 5.82733 8.2389 5.94276C8.88877 6.30061 9.21952 6.84938 8.90445 7.80075C8.51355 8.9823 7.58473 9.08197 6.3496 8.83477L6.04984 10.1053L5.3255 9.9144L5.62134 8.66085C5.43361 8.61158 5.24174 8.55915 5.0441 8.50245L4.74723 9.76192L4.02373 9.57098L4.32348 8.298C4.25587 8.2797 4.18784 8.26095 4.11932 8.24205C4.01639 8.21362 3.91238 8.18497 3.80711 8.15707L2.86451 7.90852L3.22409 7.03157C3.22409 7.03157 3.7578 7.18169 3.75058 7.17056C3.95564 7.22424 4.04662 7.08285 4.08252 6.98859L4.5562 4.98006C4.57396 4.98457 4.59134 4.98918 4.60812 4.99363C4.61649 4.99585 4.6247 4.99803 4.63274 5.00013C4.60385 4.98791 4.57765 4.98006 4.55743 4.9746L4.89536 3.54081C4.90423 3.37803 4.85121 3.17271 4.55785 3.09525C4.56919 3.08717 4.03177 2.9569 4.03177 2.9569L4.22446 2.13866L5.22338 2.40247L5.22256 2.4064C5.37275 2.44589 5.52747 2.48341 5.68509 2.52138L5.98196 1.26325L6.70588 1.45417L6.41499 2.68765C6.60933 2.73457 6.80491 2.78191 6.99533 2.8321L7.28415 1.6067L8.0085 1.79762L7.71181 3.05619ZM5.42071 7.61932C6.01174 7.7844 7.30346 8.1453 7.50881 7.27246C7.71925 6.38003 6.46649 6.08272 5.85521 5.93764C5.7869 5.92143 5.7266 5.90712 5.67725 5.89409L5.2795 7.58055C5.32003 7.5912 5.36753 7.60447 5.42071 7.61932ZM5.97802 5.155C6.47079 5.29409 7.54563 5.59748 7.73286 4.80418C7.92405 3.99277 6.87939 3.74818 6.36919 3.62872C6.3118 3.61529 6.26117 3.60343 6.21983 3.59253L5.85921 5.1221C5.89327 5.13109 5.93324 5.14237 5.97802 5.155Z" fill="#A7AEBE"/>
<path d="M18.7466 3.68257C19.1773 3.68257 19.5495 3.75731 19.862 3.9041C20.1764 4.05232 20.4356 4.25196 20.6437 4.50302C20.8488 4.75542 21.0015 5.05043 21.1001 5.38848C21.198 5.72766 21.2471 6.09192 21.2471 6.4819C21.2471 7.08151 21.1338 7.64736 20.9049 8.18106C20.6758 8.71559 20.3655 9.17931 19.9704 9.57479C19.5757 9.96974 19.1096 10.281 18.5722 10.511C18.0356 10.7412 17.4521 10.8562 16.8257 10.8562C16.7447 10.8562 16.6023 10.854 16.4011 10.85C16.2 10.846 15.9688 10.8259 15.7099 10.7922C15.4315 10.7536 15.1555 10.7012 14.8828 10.6349C14.5974 10.5682 14.3201 10.4722 14.0557 10.3488L16.3814 0.884026L18.4645 0.571533L17.6317 3.93011C17.8049 3.85434 17.9846 3.79341 18.1688 3.74816C18.3579 3.70363 18.5519 3.68164 18.7465 3.68257H18.7466ZM16.9993 9.25589C17.3131 9.25589 17.6085 9.18104 17.8864 9.03449C18.1656 8.88659 18.4107 8.68499 18.6065 8.44199C18.8112 8.18856 18.9722 7.90484 19.0834 7.60169C19.2 7.28835 19.2592 6.95769 19.2583 6.62463C19.2583 6.20796 19.1865 5.88356 19.0432 5.64842C18.9 5.41449 18.6349 5.29684 18.2499 5.29684C18.1237 5.29684 17.9614 5.32016 17.7599 5.36179C17.5577 5.40596 17.3768 5.49776 17.2146 5.63588L16.3278 9.20264C16.3813 9.21179 16.4285 9.22041 16.4689 9.22866C16.5084 9.23751 16.5519 9.24374 16.5955 9.24809C16.6415 9.25311 16.6941 9.25566 16.7577 9.25566L16.9992 9.25589H16.9993ZM23.4074 10.6753H21.4177L23.098 3.82775H25.1012L23.4074 10.6753ZM24.3755 2.99342C24.1041 2.99558 23.8395 2.91109 23.6227 2.75294C23.3974 2.59346 23.2857 2.34803 23.2857 2.01716C23.2857 1.83521 23.3239 1.66446 23.3998 1.50342C23.473 1.34737 23.5759 1.20602 23.7028 1.0866C23.83 0.968956 23.9779 0.874081 24.1393 0.806393C24.3074 0.736839 24.4884 0.701476 24.6712 0.702554C24.9487 0.702554 25.199 0.782588 25.4234 0.943043C25.6468 1.10429 25.7591 1.34972 25.7591 1.67882C25.7602 1.85642 25.7212 2.0321 25.6446 2.19354C25.5721 2.34969 25.4695 2.49114 25.3426 2.61036C25.2156 2.72816 25.0677 2.82278 24.9061 2.88974C24.7397 2.96017 24.5635 2.99342 24.3755 2.99342ZM26.8449 2.12169L28.9287 1.809L28.417 3.8274H30.6487L30.2458 5.41532H28.0275L27.4366 7.81049C27.3821 8.00999 27.3512 8.19651 27.3427 8.36991C27.3327 8.54406 27.3556 8.69354 27.4093 8.81939C27.4628 8.94561 27.5587 9.04281 27.6982 9.11144C27.8371 9.18141 28.0357 9.21666 28.2964 9.21666C28.5109 9.21666 28.7203 9.19686 28.9221 9.15764C29.1295 9.11781 29.3336 9.06359 29.5329 8.99526L29.6816 10.4798C29.3961 10.5799 29.1043 10.6624 28.8079 10.7266C28.4937 10.7967 28.1218 10.8303 27.6919 10.8303C27.0737 10.8303 26.5945 10.7413 26.2531 10.5645C25.9122 10.3864 25.6712 10.1427 25.5269 9.83436C25.3847 9.52739 25.3211 9.17324 25.3389 8.77401C25.3572 8.37411 25.4195 7.95359 25.5269 7.51101L26.8449 2.12169ZM30.5614 7.94106C30.5614 7.3511 30.6599 6.79502 30.8568 6.27422C31.0534 5.75303 31.3368 5.29733 31.7043 4.90637C32.0706 4.51733 32.5169 4.20886 33.0424 3.98252C33.565 3.75746 34.1505 3.64397 34.7955 3.64397C35.1995 3.64397 35.5602 3.68096 35.8777 3.75506C36.1964 3.8298 36.4846 3.92644 36.7453 4.04762L36.0592 5.55869C35.8765 5.48752 35.6902 5.42453 35.5014 5.36996C35.3089 5.31261 35.074 5.28494 34.7959 5.28494C34.1317 5.28494 33.6069 5.50676 33.2161 5.94851C32.8268 6.39075 32.6308 6.986 32.6308 7.73286C32.6308 8.17544 32.7295 8.53311 32.9274 8.80686C33.1242 9.08061 33.4879 9.21689 34.0159 9.21689C34.2763 9.21689 34.5279 9.19056 34.7688 9.13911C35.0114 9.08706 35.2257 9.02144 35.4145 8.94396L35.5632 10.493C35.2909 10.5941 35.0126 10.6792 34.7297 10.7476C34.4244 10.8199 34.0614 10.8572 33.6403 10.8572C33.0846 10.8572 32.6138 10.7786 32.2291 10.6234C31.844 10.466 31.5259 10.2568 31.2751 9.99194C31.0231 9.72636 30.8423 9.41609 30.7304 9.06036C30.6186 8.70456 30.5612 8.33054 30.5612 7.94106H30.5614ZM39.3998 10.8568C38.9249 10.8568 38.5123 10.7866 38.1624 10.648C37.8136 10.5094 37.5247 10.3146 37.2961 10.0621C37.0669 9.81111 36.8959 9.51351 36.7785 9.17061C36.6611 8.82794 36.6047 8.44836 36.6047 8.03249C36.6047 7.51101 36.691 6.98957 36.8659 6.46922C37.0401 5.94836 37.2982 5.47993 37.6394 5.06375C37.9785 4.64693 38.3968 4.30613 38.8888 4.04042C39.3805 3.77646 39.946 3.64368 40.5816 3.64368C41.0479 3.64368 41.458 3.71392 41.8129 3.85262C42.1659 3.99104 42.4567 4.1873 42.6865 4.43843C42.9139 4.69082 43.087 4.98709 43.2028 5.33059C43.3199 5.67251 43.3777 6.05303 43.3777 6.46922C43.3777 6.98909 43.2924 7.51086 43.1233 8.03234C42.9538 8.55156 42.7023 9.02099 42.3703 9.43799C42.0391 9.85431 41.625 10.1948 41.1272 10.4594C40.6304 10.7241 40.054 10.8568 39.3998 10.8568ZM40.3941 5.28509C40.0991 5.28509 39.8383 5.36791 39.6151 5.53169C39.391 5.69744 39.2029 5.90595 39.0513 6.15702C38.8979 6.40941 38.7844 6.68463 38.7076 6.98375C38.6311 7.28355 38.5938 7.56726 38.5938 7.83621C38.5938 8.27076 38.6664 8.60946 38.8084 8.85284C38.9525 9.09494 39.2118 9.21689 39.5882 9.21689C39.8842 9.21689 40.1437 9.13446 40.3681 8.96901C40.5909 8.80461 40.7794 8.59611 40.9321 8.34419C41.0845 8.09346 41.1992 7.81731 41.276 7.51746C41.3512 7.2186 41.3896 6.93359 41.3896 6.66484C41.3896 6.23147 41.3176 5.89229 41.1738 5.64905C41.0307 5.4068 40.7703 5.28494 40.3941 5.28494V5.28509ZM45.5459 10.6753H43.5548L45.235 3.82775H47.239L45.5459 10.6753ZM46.5124 2.99342C46.2414 2.99563 45.9771 2.91109 45.7606 2.75294C45.5362 2.59346 45.4236 2.34803 45.4236 2.01716C45.4236 1.83521 45.4624 1.66446 45.5381 1.50342C45.6109 1.34717 45.7137 1.20577 45.8409 1.0866C45.9683 0.968903 46.1163 0.874028 46.2779 0.806393C46.4453 0.736839 46.6258 0.701476 46.8076 0.702554C47.0861 0.702554 47.3373 0.782588 47.5611 0.943043C47.7853 1.10429 47.8983 1.34972 47.8983 1.67882C47.8983 1.86141 47.8578 2.03279 47.7829 2.19354C47.7074 2.35429 47.6066 2.49266 47.4811 2.61036C47.354 2.72786 47.2061 2.82249 47.0446 2.88974C46.8781 2.96017 46.7018 2.99342 46.5124 2.99342ZM48.673 4.13911C48.8239 4.09635 48.9925 4.04492 49.1758 3.98894C49.3798 3.92771 49.5864 3.87604 49.7955 3.83402C50.0228 3.78577 50.279 3.74639 50.5611 3.71603C50.8431 3.68497 51.1646 3.66989 51.5216 3.66989C52.5707 3.66989 53.2942 3.96582 53.6932 4.55593C54.0922 5.14603 54.1616 5.95351 53.9023 6.97733L52.9874 10.6747H50.9848L51.8719 7.05496C51.9256 6.82912 51.9682 6.61052 51.9996 6.39702C52.0315 6.18548 52.0294 5.99886 51.9925 5.83763C51.9601 5.68304 51.8725 5.54453 51.7449 5.44652C51.6133 5.34699 51.4153 5.29699 51.1459 5.29699C50.8801 5.29802 50.6143 5.32451 50.3535 5.37609L49.0492 10.6741H47.0461L48.673 4.13911Z" fill="#A7AEBE"/>
</g>
<defs>
<clipPath id="clip0_9427_18796">
<rect width="54" height="12" fill="white" transform="translate(0.375)"/>
</clipPath>
</defs>
</svg>
