<svg width="46" height="16" viewBox="0 0 46 16" fill="none" xmlns="http://www.w3.org/2000/svg">
<g clip-path="url(#clip0_9427_18867)">
<path d="M2.28951 4.05614H1.34492C1.34492 4.05614 1.27547 1.58355 3.74111 0.638974C3.74111 0.638974 5.74835 -0.0208455 7.01242 1.53494C7.64595 2.2483 8.07543 3.11925 8.25566 4.05614H7.10966C7.10966 4.05614 6.78322 1.80582 5.08853 1.71552C5.08853 1.71552 3.03268 1.25018 2.28951 4.05614Z" fill="#A7AEBE"/>
<path fill-rule="evenodd" clip-rule="evenodd" d="M0.962266 4.70888H8.39391C9.21348 4.70888 9.12319 5.52149 9.12319 5.52149C9.12319 5.52149 9.22737 12.7517 9.12319 13.3768C9.01901 14.002 8.39391 14.0505 8.39391 14.0505L1.23314 14.0366C0.253829 14.1756 0.128811 13.3976 0.128811 13.3976V5.62568C0.0593563 4.63247 0.962266 4.70888 0.962266 4.70888ZM3.37238 11.8142H5.9283L4.94205 9.91801V9.11238C5.49074 9.09155 5.68522 8.28587 5.68522 8.28587C5.78245 7.14682 4.77536 6.96624 4.77536 6.96624C3.72659 6.7926 3.46267 7.74413 3.46267 7.74413C3.23347 8.7026 4.01831 9.0985 4.01831 9.0985L4.03914 9.92504L3.37238 11.8142Z" fill="#A7AEBE"/>
<path d="M10.5615 6.43164H13.7356C14.3607 6.43164 14.8608 6.51499 15.2498 6.68168C15.6204 6.84567 15.9466 7.09567 16.2012 7.41095C16.4589 7.73959 16.6456 8.11794 16.75 8.52223C16.863 8.95765 16.9191 9.40591 16.9166 9.85576C16.9166 10.5989 16.8333 11.1685 16.6666 11.5782C16.5096 11.9654 16.2701 12.3138 15.9651 12.5992C15.6944 12.8566 15.3656 13.0449 15.0067 13.1479C14.5929 13.2651 14.1656 13.3281 13.7356 13.3354H10.5615V6.43164ZM12.7008 7.99438V11.7657H13.2217C13.6661 11.7657 13.9856 11.7172 14.1732 11.6199C14.3755 11.5009 14.532 11.3175 14.6177 11.099C14.7219 10.8559 14.7775 10.453 14.7775 9.89739C14.7775 9.16816 14.6524 8.66808 14.4163 8.39721C14.1802 8.12634 13.7843 7.99438 13.2286 7.99438H12.7008Z" fill="#A7AEBE"/>
<path d="M17.9014 6.43164H20.7073L21.7909 10.6336L22.8605 6.43164H25.6664V13.3354H23.9231V8.07077L22.5756 13.3354H20.9921L19.6446 8.07077V13.3354H17.9014V6.43164Z" fill="#A7AEBE"/>
<path d="M42.1834 12.1963H39.7594L39.426 13.3353H37.2451L39.8427 6.43152H42.1695L44.7601 13.3353H42.5306L42.1834 12.1963ZM41.7388 10.703L40.9749 8.21651L40.2248 10.703H41.7388Z" fill="#A7AEBE"/>
<path d="M37.6622 9.8831C37.6617 10.8695 37.4016 11.8385 36.908 12.6926C36.4143 13.5467 35.7046 14.2557 34.8499 14.7484C33.9954 15.2412 33.0261 15.5003 32.0397 15.4997C31.0532 15.499 30.0842 15.2388 29.2304 14.7449C27.9647 13.9874 27.0477 12.7626 26.6772 11.3349C26.3068 9.90719 26.5125 8.39111 27.2501 7.1138C27.9876 5.83647 29.1979 4.9004 30.6197 4.5076C32.0414 4.11481 33.5605 4.2968 34.8492 5.01428C35.702 5.5099 36.4104 6.22005 36.9039 7.07417C37.3973 7.92828 37.6588 8.89664 37.6622 9.8831ZM36.5717 9.8831C36.5717 8.63286 36.1295 7.56326 35.2451 6.67425C34.3607 5.78523 33.2912 5.34303 32.0363 5.34766C31.4403 5.33867 30.8489 5.45172 30.2982 5.67986C29.7476 5.908 29.2494 6.2464 28.8345 6.67425C27.9454 7.56326 27.5009 8.63286 27.5009 9.8831C27.5064 11.0842 27.986 12.2346 28.8353 13.084C29.6847 13.9334 30.8351 14.413 32.0363 14.4184C33.2865 14.4184 34.3561 13.974 35.2451 13.0849C35.673 12.6699 36.0113 12.1718 36.2395 11.6211C36.4676 11.0705 36.5807 10.479 36.5717 9.8831ZM33.349 10.5776L34.8631 10.9318C34.6732 11.5292 34.4162 11.9875 34.0922 12.307C33.5782 12.8001 32.9045 13.0502 32.0779 13.0502C31.2514 13.0502 30.4388 12.7585 29.8693 12.1751C29.2997 11.5916 29.015 10.8276 29.015 9.86916C29.015 8.91068 29.3068 8.20919 29.8902 7.61883C30.4736 7.02847 31.2029 6.72981 32.0849 6.72981C32.7933 6.72981 33.3906 6.91733 33.8768 7.29934C34.3514 7.66046 34.6795 8.18092 34.8006 8.76483L33.349 8.98708C33.2587 8.58425 33.099 8.29253 32.8628 8.09807C32.6252 7.90117 32.3239 7.7975 32.0155 7.80636C31.6335 7.80636 31.314 7.97304 31.0501 8.29254C30.7862 8.61203 30.6611 9.13294 30.6611 9.82748C30.6611 10.522 30.7514 11.036 30.925 11.3346C31.189 11.7653 31.5571 11.9806 32.0294 11.9806C32.3313 11.9799 32.6209 11.8601 32.8351 11.6472C33.0712 11.4249 33.2448 11.0707 33.349 10.5776Z" fill="#A7AEBE"/>
</g>
<defs>
<clipPath id="clip0_9427_18867">
<rect width="45" height="15" fill="white" transform="translate(0.125 0.5)"/>
</clipPath>
</defs>
</svg>
