<svg width="53" height="16" viewBox="0 0 53 16" fill="none" xmlns="http://www.w3.org/2000/svg">
<g clip-path="url(#clip0_9427_18817)">
<path fill-rule="evenodd" clip-rule="evenodd" d="M4.33568 8.04423C4.33568 6.08968 6.19931 3.54423 9.38109 2.1806C14.9266 -0.228498 18.1084 1.99878 18.9266 4.08968C19.6993 6.04423 18.1538 9.54423 15.563 12.0897C17.4266 10.7261 18.972 9.31696 20.0175 7.90787C21.4266 6.04423 22.0175 4.2715 21.472 2.86241C20.6993 0.816957 17.5629 0.135138 13.6538 0.680593C9.74475 1.22605 6.74477 2.22605 4.33568 3.49878C1.6084 4.86241 0.244766 6.45332 0.0174934 8.31696C-0.255234 10.9988 2.65386 14.6352 9.24476 15.0897C12.6993 15.3169 16.0629 15.4079 22.4721 13.8169C21.6993 13.8624 4.29023 16.0442 4.33568 8.04423Z" fill="#A7AEBE"/>
<path fill-rule="evenodd" clip-rule="evenodd" d="M10.7444 11.1807C12.7899 11.1807 14.5171 9.49889 14.5171 7.40798C14.5171 5.36252 12.8353 3.63525 10.7444 3.63525C8.69896 3.63525 6.97168 5.31707 6.97168 7.40798C7.01714 9.49889 8.69896 11.1807 10.7444 11.1807Z" fill="#A7AEBE"/>
<path d="M33.0171 1.22607V3.04426H28.5171V4.9079H32.5626V6.63516H28.5171V8.4988H33.1535V10.2715H26.4717V1.22607H33.0171Z" fill="#A7AEBE"/>
<path d="M41.4726 5.63515H43.518V8.86241C42.6089 9.86242 41.3817 10.3625 39.7907 10.3625C38.4726 10.3625 37.3362 9.90786 36.4271 9.04423C35.518 8.1806 35.0635 7.04424 35.0635 5.72606C35.0635 4.36241 35.518 3.2715 36.4271 2.36242C37.3362 1.45332 38.4726 0.998779 39.7453 0.998779C41.0635 0.998779 42.1544 1.40787 43.1089 2.27151L42.0635 3.77151C41.6544 3.40787 41.2907 3.18059 40.9271 3.04423C40.6089 2.90787 40.1999 2.86241 39.8362 2.86241C39.0635 2.86241 38.4271 3.13514 37.8817 3.63514C37.3362 4.13515 37.1089 4.86241 37.1089 5.6806C37.1089 6.49878 37.3816 7.22606 37.8817 7.72605C38.3817 8.22605 38.9726 8.49878 39.6998 8.49878C40.3816 8.49878 40.9725 8.36242 41.4271 8.08969V5.63515H41.4726Z" fill="#A7AEBE"/>
<path d="M49.608 2.95335V10.2715H47.608V2.95335H45.0625V1.22607H52.1988V2.95335H49.608Z" fill="#A7AEBE"/>
<path d="M26.5176 12.4989H26.8811V14.7717H26.5176V12.4989Z" fill="#A7AEBE"/>
<path d="M29.5626 12.4989H29.9263V14.7717H29.5172L28.2444 13.1353V14.7717H27.8809V12.4989H28.2444L29.5626 14.1808V12.4989Z" fill="#A7AEBE"/>
<path d="M31.7446 12.8629V14.772H31.3811V12.8629H30.6992V12.4993H32.4719V12.8629H31.7446Z" fill="#A7AEBE"/>
<path d="M34.7451 12.4988V12.8625H33.5179V13.4534H34.6088V13.7716H33.5179V14.3625H34.7906V14.7262H33.1543V12.4534H34.7451V12.4988Z" fill="#A7AEBE"/>
<path d="M37.4266 13.2714C37.4266 13.6351 37.2448 13.8623 36.9266 13.9987L37.5175 14.8169H37.0176L36.472 14.0442H35.9721V14.8169H35.6084V12.5442H36.472C36.8357 12.5442 37.0629 12.5897 37.1993 12.726C37.3357 12.8169 37.4266 12.9987 37.4266 13.2714ZM36.9266 13.5896C37.0176 13.5441 37.0629 13.4078 37.0629 13.2714C37.0629 13.1351 37.0176 13.0442 36.9266 12.9532C36.8357 12.9078 36.6994 12.8624 36.5175 12.8624H36.0175V13.6805H36.472C36.6994 13.6805 36.8357 13.6351 36.9266 13.5896Z" fill="#A7AEBE"/>
<path d="M38.6081 14.2716L38.3808 14.7717H37.9717L38.9717 12.4989H39.3808L40.3808 14.7717H39.9717L39.7444 14.2716H38.6081ZM39.6081 13.9081L39.199 12.9535L38.7899 13.9081H39.6081Z" fill="#A7AEBE"/>
<path d="M42.0628 14.4532C42.1991 14.4532 42.29 14.4532 42.3809 14.4078C42.4718 14.3624 42.5627 14.2714 42.699 14.1805L42.9264 14.4532C42.699 14.7259 42.3809 14.8623 42.0628 14.8623C41.6991 14.8623 41.4264 14.7714 41.199 14.5442C40.9718 14.3169 40.8809 14.0442 40.8809 13.726C40.8809 13.4078 41.0173 13.0896 41.2445 12.8624C41.4718 12.635 41.7446 12.5442 42.1081 12.5442C42.4718 12.5442 42.7445 12.6805 42.9718 12.9532L42.7445 13.2259C42.6537 13.1351 42.5173 13.0442 42.4263 12.9987C42.3355 12.9532 42.1991 12.9532 42.1081 12.9532C41.8809 12.9532 41.6991 13.0442 41.5172 13.1806C41.3809 13.3169 41.29 13.4987 41.29 13.726C41.29 13.9533 41.3809 14.135 41.5172 14.3169C41.6536 14.3624 41.8354 14.4532 42.0628 14.4532Z" fill="#A7AEBE"/>
<path d="M44.608 12.8629V14.772H44.2443V12.8629H43.5625V12.4993H45.3352V12.8629H44.608Z" fill="#A7AEBE"/>
<path d="M46.0176 12.4989H46.3811V14.7717H46.0176V12.4989Z" fill="#A7AEBE"/>
<path d="M48.3807 14.772H47.9716L47.0625 12.4993H47.4716L48.1534 14.1811L48.8352 12.4993H49.2443L48.3807 14.772Z" fill="#A7AEBE"/>
<path d="M51.5631 12.4988V12.8625H50.3358V13.4534H51.4268V13.7716H50.3358V14.3625H51.5631V14.7262H49.9268V12.4534H51.5631V12.4988Z" fill="#A7AEBE"/>
</g>
<defs>
<clipPath id="clip0_9427_18817">
<rect width="52.5" height="15" fill="white" transform="translate(0 0.5)"/>
</clipPath>
</defs>
</svg>
