<svg width="80" height="13" viewBox="0 0 80 13" fill="none" xmlns="http://www.w3.org/2000/svg">
<g clip-path="url(#clip0_9427_18800)">
<path d="M7.75962 6.37577L4.06731 8.55767L0.375 6.37577L4.06731 0.25L7.75962 6.37577Z" fill="#A7AEBE"/>
<path d="M4.06631 12.2499L7.75962 7.17297L4.06631 9.30057L0.375 7.17297L4.06631 12.2499Z" fill="#A7AEBE"/>
<path d="M18.3193 8.68867C18.3193 8.83154 18.1974 8.94787 18.0519 8.94787H12.9004C13.0291 10.1971 13.987 11.3367 15.334 11.3367C16.2546 11.3367 16.9383 10.9912 17.4528 10.2702C17.5273 10.1705 17.6389 10.1074 17.7811 10.1672C17.8589 10.2004 17.9131 10.2702 17.9266 10.3499C17.9401 10.433 17.9164 10.4795 17.8927 10.526C17.3749 11.4131 16.3426 11.8484 15.3306 11.8484C13.5977 11.8484 12.3623 10.3267 12.3623 8.69864C12.3623 7.07065 13.5977 5.54898 15.3306 5.54898C17.0635 5.5456 18.3159 7.06405 18.3193 8.68867ZM17.7676 8.44282C17.6559 7.19358 16.6811 6.05396 15.334 6.05396C13.987 6.05396 13.0291 7.19358 12.9004 8.44282H17.7676ZM24.5706 5.67191C24.7195 5.67191 24.8278 5.79813 24.8278 5.92443C24.8278 6.0706 24.7162 6.17688 24.5706 6.17688H23.1897V11.4962C23.1897 11.6224 23.078 11.7487 22.9324 11.7487C22.7836 11.7487 22.6753 11.6224 22.6753 11.4962V6.17688H21.3484C21.1996 6.17688 21.0913 6.06723 21.0913 5.92443C21.0913 5.79813 21.2029 5.67191 21.3484 5.67191H22.6753V3.7249C22.6753 3.60197 22.7599 3.48903 22.8817 3.46908C23.0543 3.44245 23.1897 3.55878 23.1897 3.71823V5.67191H24.5706ZM32.995 8.24347V11.4663C32.995 11.6125 32.8663 11.7188 32.7377 11.7188C32.5888 11.7188 32.4805 11.6092 32.4805 11.4663V8.24347C32.4805 7.15705 31.8543 6.0706 30.619 6.0706C29.035 6.0706 28.3513 7.42953 28.4426 8.82157C28.4426 8.85817 28.4596 9.02092 28.4596 9.03757V11.4563C28.4596 11.5792 28.375 11.6922 28.2531 11.7121C28.0804 11.7388 27.9451 11.6224 27.9451 11.463V0.877526C27.9451 0.751226 28.0567 0.625 28.2023 0.625C28.3513 0.625 28.4596 0.751226 28.4596 0.877526V6.86801C28.903 6.09056 29.695 5.56555 30.6155 5.56555C32.1285 5.56555 32.995 6.86801 32.995 8.24347ZM42.2315 8.68867C42.2315 8.83154 42.1097 8.94787 41.9641 8.94787H36.8094C36.938 10.1971 37.8958 11.3367 39.2429 11.3367C40.1635 11.3367 40.8472 10.9912 41.3617 10.2702C41.4361 10.1705 41.5479 10.1074 41.69 10.1672C41.7679 10.2004 41.822 10.2702 41.8355 10.3499C41.8491 10.433 41.8254 10.4795 41.8017 10.526C41.2838 11.4131 40.2515 11.8484 39.2395 11.8484C37.5066 11.8484 36.2713 10.3267 36.2713 8.69864C36.2713 7.07065 37.5066 5.54898 39.2395 5.54898C40.9759 5.5456 42.2281 7.06405 42.2315 8.68867ZM41.6764 8.44282C41.5648 7.19358 40.59 6.05396 39.2429 6.05396C37.8958 6.05396 36.938 7.19358 36.8094 8.44282H41.6764ZM48.554 5.90778C48.554 6.0706 48.4626 6.1603 48.3137 6.18025C46.8007 6.39618 46.1205 7.60893 46.1205 9.02092V11.4397C46.1205 11.5627 46.0358 11.6756 45.914 11.6956C45.7414 11.7221 45.606 11.6059 45.606 11.4463V5.93433C45.606 5.8114 45.6906 5.69845 45.8125 5.6785C45.9851 5.65195 46.1205 5.7682 46.1205 5.92773V7.0507C46.5436 6.34638 47.3931 5.6752 48.2764 5.6752C48.4051 5.6719 48.554 5.7649 48.554 5.90778ZM57.0155 8.68867C57.0155 8.83154 56.8937 8.94787 56.7481 8.94787H51.5968C51.7254 10.1971 52.6832 11.3367 54.0303 11.3367C54.9509 11.3367 55.6346 10.9912 56.1491 10.2702C56.2235 10.1705 56.3353 10.1074 56.4774 10.1672C56.5552 10.2004 56.6094 10.2702 56.6229 10.3499C56.6365 10.433 56.6128 10.4795 56.5891 10.526C56.0713 11.4131 55.039 11.8484 54.0269 11.8484C52.294 11.8484 51.0586 10.3267 51.0586 8.69864C51.0586 7.07065 52.294 5.54898 54.0269 5.54898C55.7599 5.5456 57.0121 7.06405 57.0155 8.68867ZM56.4639 8.44282C56.3521 7.19358 55.3774 6.05396 54.0303 6.05396C52.6832 6.05396 51.7254 7.19358 51.5968 8.44282H56.4639ZM65.3318 5.97093V11.4962C65.3318 11.6424 65.2028 11.7487 65.0746 11.7487C64.9253 11.7487 64.8173 11.6391 64.8173 11.4962V10.4463C64.3943 11.2802 63.6361 11.875 62.6783 11.875C61.1483 11.875 60.2986 10.5725 60.2986 9.19702V5.95765C60.2986 5.83135 60.4103 5.70513 60.5558 5.70513C60.7048 5.70513 60.8131 5.83135 60.8131 5.95765V9.19702C60.8131 10.2835 61.4393 11.3699 62.6746 11.3699C64.4078 11.3699 64.8136 9.77849 64.8136 8.02087V5.95765C64.8136 5.8114 64.9628 5.66193 65.1451 5.7151C65.2568 5.75163 65.3318 5.85797 65.3318 5.97093ZM78.362 8.22352V11.463C78.362 11.6092 78.2338 11.7155 78.1048 11.7155C77.9555 11.7155 77.8475 11.6059 77.8475 11.463V8.22352C77.8475 7.1371 77.2213 6.0706 75.986 6.0706C74.4361 6.0706 73.8473 7.69863 73.8473 8.96444V11.463C73.8473 11.6092 73.7183 11.7155 73.5901 11.7155C73.4408 11.7155 73.3328 11.6059 73.3328 11.463V8.22352C73.3328 7.1371 72.7066 6.0706 71.4713 6.0706C69.9038 6.0706 69.2581 7.28328 69.3151 8.89469C69.3151 8.93122 69.3323 9.00434 69.3151 9.02092V11.4563C69.3151 11.5792 69.2303 11.6922 69.1051 11.7121C68.9326 11.7388 68.7976 11.6224 68.7976 11.463V5.93433C68.7976 5.8114 68.8823 5.69845 69.0038 5.6785C69.1763 5.65195 69.3121 5.7682 69.3121 5.92773V6.85135C69.7553 6.0739 70.5473 5.56555 71.4676 5.56555C72.5168 5.56555 73.3291 6.21678 73.6613 7.177C74.0843 6.23673 74.9131 5.56555 75.9823 5.56555C77.4958 5.56555 78.362 6.84806 78.362 8.22352Z" fill="#A7AEBE"/>
<path d="M12.9024 8.9479V8.5729H12.4868L12.5294 8.9863L12.9024 8.9479ZM17.4547 10.2702L17.1542 10.0457L17.1495 10.0524L17.4547 10.2702ZM17.783 10.1672L17.9302 9.82232L17.9284 9.82158L17.783 10.1672ZM17.9286 10.35L18.2987 10.2896L18.2983 10.2872L17.9286 10.35ZM17.8947 10.526L18.2186 10.7151L18.224 10.7058L18.2289 10.6962L17.8947 10.526ZM15.3325 5.54897V5.92397H15.3333L15.3325 5.54897ZM17.7695 8.44285V8.81785H18.1795L18.143 8.40948L17.7695 8.44285ZM12.9024 8.44285L12.5294 8.40445L12.4868 8.81785H12.9024V8.44285ZM23.1916 6.17688V5.80188H22.8166V6.17688H23.1916ZM22.6772 6.17688H23.0522V5.80188H22.6772V6.17688ZM22.6772 5.6719V6.0469H23.0522V5.6719H22.6772ZM22.8836 3.46907L22.8265 3.09842L22.8231 3.09895L22.8836 3.46907ZM23.1916 5.6719H22.8166V6.0469H23.1916V5.6719ZM28.4446 8.8216H28.8196V8.8093L28.8187 8.79708L28.4446 8.8216ZM28.255 11.7122L28.3121 12.0828L28.3156 12.0823L28.255 11.7122ZM28.4615 6.868H28.0865V8.2825L28.7872 7.05377L28.4615 6.868ZM36.8113 8.9479V8.5729H36.3958L36.4383 8.9863L36.8113 8.9479ZM41.3636 10.2702L41.0632 10.0457L41.0584 10.0524L41.3636 10.2702ZM41.692 10.1672L41.8392 9.82232L41.8374 9.82158L41.692 10.1672ZM41.8375 10.35L42.2076 10.2896L42.2072 10.2872L41.8375 10.35ZM41.8036 10.526L42.1275 10.7151L42.1329 10.7058L42.1378 10.6962L41.8036 10.526ZM39.2415 5.54897V5.92397H39.2422L39.2415 5.54897ZM41.6784 8.44285V8.81785H42.0884L42.0519 8.40948L41.6784 8.44285ZM36.8113 8.44285L36.4383 8.40445L36.3958 8.81785H36.8113V8.44285ZM48.3157 6.18025L48.2659 5.80855L48.2626 5.809L48.3157 6.18025ZM45.916 11.6956L45.973 12.0662L45.9765 12.0656L45.916 11.6956ZM45.8144 5.6785L45.7573 5.30785L45.7539 5.30845L45.8144 5.6785ZM46.1224 7.0507H45.7474V8.40333L46.4439 7.24382L46.1224 7.0507ZM48.2784 5.6752V6.05035L48.2881 6.05005L48.2784 5.6752ZM51.5987 8.9479V8.5729H51.1831L51.2257 8.9863L51.5987 8.9479ZM56.1511 10.2702L55.8505 10.0457L55.8457 10.0524L56.1511 10.2702ZM56.4793 10.1672L56.6266 9.82232L56.6248 9.82158L56.4793 10.1672ZM56.6248 10.35L56.995 10.2896L56.9946 10.2872L56.6248 10.35ZM56.591 10.526L56.9149 10.7151L56.9203 10.7058L56.9252 10.6962L56.591 10.526ZM54.0289 5.54897V5.92397H54.0296L54.0289 5.54897ZM51.5987 8.44285L51.2257 8.40445L51.1831 8.81785H51.5987V8.44285ZM64.8193 10.4463H65.1943L64.4848 10.2767L64.8193 10.4463ZM65.147 5.7151L65.264 5.3587L65.258 5.35675L65.252 5.35503L65.147 5.7151ZM69.317 8.89473H69.692V8.88805V8.8813L69.317 8.89473ZM69.317 9.02095L69.0545 8.75335L68.942 8.8636V9.02095H69.317ZM69.107 11.7122L69.1648 12.0828L69.1663 12.0825L69.107 11.7122ZM69.0058 5.6785L68.9488 5.30785L68.945 5.30845L69.0058 5.6785ZM69.314 6.85135H68.939V8.26592L69.6395 7.03713L69.314 6.85135ZM73.6633 7.177L73.3085 7.2994L73.6175 8.1928L74.0053 7.33082L73.6633 7.177ZM17.9462 8.6887C17.9462 8.61182 18.0051 8.5729 18.0538 8.5729V9.3229C18.3936 9.3229 18.6962 9.05132 18.6962 8.6887H17.9462ZM18.0538 8.5729H12.9024V9.3229H18.0538V8.5729ZM12.5294 8.9863C12.6726 10.3773 13.7507 11.7117 15.336 11.7117V10.9617C14.2271 10.9617 13.3894 10.0169 13.2754 8.9095L12.5294 8.9863ZM15.336 11.7117C16.3728 11.7117 17.1723 11.3117 17.76 10.488L17.1495 10.0524C16.7083 10.6708 16.1404 10.9617 15.336 10.9617V11.7117ZM17.7551 10.4946C17.7636 10.4834 17.7568 10.4981 17.7259 10.5098C17.7094 10.516 17.6903 10.5195 17.6712 10.5189C17.6523 10.5183 17.6405 10.5141 17.6376 10.5129L17.9284 9.82158C17.7743 9.7567 17.6113 9.75137 17.461 9.80807C17.3202 9.86125 17.2204 9.9574 17.1543 10.0458L17.7551 10.4946ZM17.6359 10.5121C17.597 10.4956 17.5668 10.4595 17.5588 10.4127L18.2983 10.2872C18.2632 10.0809 18.1247 9.90535 17.9302 9.82232L17.6359 10.5121ZM17.5585 10.4103C17.5581 10.4081 17.5572 10.4012 17.5576 10.3906C17.5581 10.3797 17.5598 10.3685 17.5625 10.3579C17.5651 10.3477 17.5679 10.3413 17.5684 10.3402C17.5685 10.3398 17.5682 10.3406 17.5669 10.3433C17.5654 10.3463 17.5637 10.3496 17.5606 10.3559L18.2289 10.6962C18.2389 10.6767 18.2698 10.6187 18.2887 10.5455C18.3095 10.4651 18.3134 10.3801 18.2987 10.2896L17.5585 10.4103ZM17.5708 10.337C17.1384 11.0778 16.2517 11.4734 15.3325 11.4734V12.2234C16.4374 12.2234 17.6153 11.7485 18.2186 10.7151L17.5708 10.337ZM15.3325 11.4734C13.843 11.4734 12.7393 10.1578 12.7393 8.69868H11.9893C11.9893 10.4956 13.3563 12.2234 15.3325 12.2234V11.4734ZM12.7393 8.69868C12.7393 7.23955 13.843 5.92397 15.3325 5.92397V5.17397C13.3563 5.17397 11.9893 6.90175 11.9893 8.69868H12.7393ZM15.3333 5.92397C16.8254 5.92112 17.9431 7.23647 17.9462 8.68952L18.6962 8.68795C18.6925 6.89155 17.3056 5.17015 15.3319 5.17397L15.3333 5.92397ZM18.143 8.40948C18.0179 7.00997 16.9177 5.67895 15.336 5.67895V6.42895C16.4484 6.42895 17.2977 7.37717 17.396 8.47622L18.143 8.40948ZM15.336 5.67895C13.7507 5.67895 12.6726 7.01342 12.5294 8.40445L13.2754 8.48125C13.3894 7.37373 14.2271 6.42895 15.336 6.42895V5.67895ZM12.9024 8.81785H17.7695V8.06785H12.9024V8.81785ZM24.5725 6.0469C24.5365 6.0469 24.5059 6.03055 24.4872 6.0112C24.4713 5.9947 24.4548 5.9665 24.4548 5.92443H25.2048C25.2048 5.60372 24.9411 5.2969 24.5725 5.2969V6.0469ZM24.4548 5.92443C24.4548 5.89847 24.4663 5.86398 24.4943 5.83668C24.5215 5.8102 24.5524 5.80188 24.5725 5.80188V6.55188C24.9154 6.55188 25.2048 6.28743 25.2048 5.92443H24.4548ZM24.5725 5.80188H23.1916V6.55188H24.5725V5.80188ZM22.8166 6.17688V11.4963H23.5666V6.17688H22.8166ZM22.8166 11.4963C22.8166 11.4508 22.8349 11.4227 22.849 11.4082C22.8655 11.3912 22.8952 11.3738 22.9344 11.3738V12.1238C23.2963 12.1238 23.5666 11.8202 23.5666 11.4963H22.8166ZM22.9344 11.3738C22.9704 11.3738 23.0011 11.39 23.0198 11.4094C23.0357 11.4259 23.0522 11.4541 23.0522 11.4963H22.3022C22.3022 11.8169 22.5659 12.1238 22.9344 12.1238V11.3738ZM23.0522 11.4963V6.17688H22.3022V11.4963H23.0522ZM22.6772 5.80188H21.3504V6.55188H22.6772V5.80188ZM21.3504 5.80188C21.3706 5.80188 21.4024 5.81058 21.4299 5.8378C21.4573 5.86495 21.4682 5.89855 21.4682 5.92443H20.7182C20.7182 6.27767 20.9977 6.55188 21.3504 6.55188V5.80188ZM21.4682 5.92443C21.4682 5.96987 21.45 5.99792 21.4359 6.01248C21.4193 6.02943 21.3897 6.0469 21.3504 6.0469V5.2969C20.9885 5.2969 20.7182 5.60042 20.7182 5.92443H21.4682ZM21.3504 6.0469H22.6772V5.2969H21.3504V6.0469ZM23.0522 5.6719V3.7249H22.3022V5.6719H23.0522ZM23.0522 3.7249C23.0522 3.7486 23.0444 3.77133 23.0291 3.79068C23.0129 3.81122 22.984 3.8326 22.9442 3.83913L22.8231 3.09895C22.497 3.15235 22.3022 3.44245 22.3022 3.7249H23.0522ZM22.9407 3.83973C22.9285 3.8416 22.8962 3.83995 22.8639 3.81325C22.8314 3.78655 22.8166 3.74868 22.8166 3.71823H23.5666C23.5666 3.31398 23.2114 3.03918 22.8266 3.09842L22.9407 3.83973ZM22.8166 3.71823V5.6719H23.5666V3.71823H22.8166ZM23.1916 6.0469H24.5725V5.2969H23.1916V6.0469ZM32.6219 8.2435V11.4663H33.3719V8.2435H32.6219ZM32.6219 11.4663C32.6219 11.4241 32.6416 11.3909 32.6611 11.3728C32.6777 11.3574 32.7031 11.3438 32.7397 11.3438V12.0938C33.0493 12.0938 33.3719 11.8448 33.3719 11.4663H32.6219ZM32.7397 11.3438C32.7598 11.3438 32.7916 11.3525 32.8191 11.3798C32.8465 11.4068 32.8574 11.4404 32.8574 11.4663H32.1074C32.1074 11.8196 32.3869 12.0938 32.7397 12.0938V11.3438ZM32.8574 11.4663V8.2435H32.1074V11.4663H32.8574ZM32.8574 8.2435C32.8574 7.63382 32.6827 7.00637 32.313 6.5221C31.9357 6.02762 31.3627 5.6956 30.6209 5.6956V6.4456C31.1144 6.4456 31.4723 6.65672 31.7168 6.97712C31.9691 7.30765 32.1074 7.76673 32.1074 8.2435H32.8574ZM30.6209 5.6956C29.7061 5.6956 29.0242 6.09543 28.5967 6.70983C28.1791 7.30982 28.0206 8.0878 28.0704 8.8462L28.8187 8.79708C28.7772 8.16332 28.9148 7.56573 29.2123 7.13823C29.4997 6.7252 29.9517 6.4456 30.6209 6.4456V5.6956ZM28.0696 8.8216C28.0696 8.84762 28.072 8.8792 28.0733 8.89713C28.0751 8.9203 28.0774 8.94655 28.0795 8.97048C28.0818 8.9956 28.0837 9.01675 28.0852 9.0346C28.0861 9.0433 28.0865 9.04945 28.0868 9.05335C28.087 9.0553 28.087 9.0556 28.087 9.05478C28.0869 9.05433 28.0868 9.05282 28.0867 9.05065C28.0867 9.049 28.0865 9.04412 28.0865 9.0376H28.8365C28.8365 9.02477 28.8358 9.01383 28.8357 9.0109C28.8354 9.0058 28.835 9.00085 28.8347 8.99673C28.834 8.9884 28.8333 8.9788 28.8325 8.96935C28.8308 8.95082 28.8285 8.92585 28.8265 8.90372C28.8244 8.88025 28.8225 8.8579 28.8211 8.83975C28.8193 8.81635 28.8196 8.81388 28.8196 8.8216H28.0696ZM28.0865 9.0376V11.4564H28.8365V9.0376H28.0865ZM28.0865 11.4564C28.0865 11.4326 28.0943 11.41 28.1096 11.3906C28.1258 11.3701 28.1547 11.3486 28.1945 11.3421L28.3156 12.0823C28.6417 12.0289 28.8365 11.7388 28.8365 11.4564H28.0865ZM28.198 11.3416C28.2103 11.3397 28.2424 11.3413 28.2748 11.368C28.3072 11.3947 28.322 11.4326 28.322 11.463H27.572C27.572 11.8673 27.9274 12.1421 28.3121 12.0828L28.198 11.3416ZM28.322 11.463V0.877525H27.572V11.463H28.322ZM28.322 0.877525C28.322 0.922975 28.3039 0.951025 28.2897 0.965575C28.2732 0.982525 28.2436 1 28.2043 1V0.25C27.8424 0.25 27.572 0.553525 27.572 0.877525H28.322ZM28.2043 1C28.1683 1 28.1376 0.983725 28.1189 0.9643C28.1029 0.9478 28.0865 0.9196 28.0865 0.877525H28.8365C28.8365 0.556825 28.5727 0.25 28.2043 0.25V1ZM28.0865 0.877525V6.868H28.8365V0.877525H28.0865ZM28.7872 7.05377C29.1723 6.37855 29.8477 5.94055 30.6175 5.94055V5.19055C29.546 5.19055 28.6375 5.80247 28.1357 6.68222L28.7872 7.05377ZM30.6175 5.94055C31.8554 5.94055 32.6219 6.99993 32.6219 8.2435H33.3719C33.3719 6.736 32.4054 5.19055 30.6175 5.19055V5.94055ZM41.8585 8.6887C41.8585 8.61182 41.9174 8.5729 41.9661 8.5729V9.3229C42.3059 9.3229 42.6085 9.05132 42.6085 8.6887H41.8585ZM41.9661 8.5729H36.8113V9.3229H41.9661V8.5729ZM36.4383 8.9863C36.5815 10.3773 37.6596 11.7117 39.2449 11.7117V10.9617C38.136 10.9617 37.2984 10.0169 37.1844 8.9095L36.4383 8.9863ZM39.2449 11.7117C40.2817 11.7117 41.0812 11.3117 41.6689 10.488L41.0584 10.0524C40.6171 10.6708 40.0493 10.9617 39.2449 10.9617V11.7117ZM41.6641 10.4946C41.6725 10.4834 41.6657 10.4981 41.6349 10.5098C41.6183 10.516 41.5993 10.5195 41.5801 10.5189C41.5612 10.5183 41.5495 10.5141 41.5465 10.5129L41.8374 9.82158C41.6833 9.7567 41.5203 9.75137 41.37 9.80807C41.2291 9.86125 41.1292 9.9574 41.0632 10.0458L41.6641 10.4946ZM41.5447 10.5121C41.506 10.4956 41.4757 10.4595 41.4678 10.4127L42.2072 10.2872C42.1722 10.0809 42.0337 9.90535 41.8392 9.82232L41.5447 10.5121ZM41.4673 10.4103C41.467 10.4081 41.4661 10.4012 41.4666 10.3906C41.467 10.3797 41.4688 10.3685 41.4715 10.3579C41.4741 10.3477 41.4769 10.3413 41.4773 10.3402C41.4775 10.3398 41.4772 10.3406 41.4758 10.3433C41.4744 10.3463 41.4727 10.3496 41.4695 10.3559L42.1378 10.6962C42.1478 10.6767 42.1786 10.6187 42.1976 10.5455C42.2184 10.4651 42.2224 10.3801 42.2076 10.2896L41.4673 10.4103ZM41.4798 10.337C41.0473 11.0778 40.1606 11.4734 39.2415 11.4734V12.2234C40.3463 12.2234 41.5243 11.7485 42.1275 10.7151L41.4798 10.337ZM39.2415 11.4734C37.7519 11.4734 36.6482 10.1578 36.6482 8.69868H35.8982C35.8982 10.4956 37.2652 12.2234 39.2415 12.2234V11.4734ZM36.6482 8.69868C36.6482 7.23955 37.7519 5.92397 39.2415 5.92397V5.17397C37.2652 5.17397 35.8982 6.90175 35.8982 8.69868H36.6482ZM39.2422 5.92397C40.738 5.92112 41.8555 7.23677 41.8585 8.68952L42.6085 8.68795C42.6047 6.89125 41.2176 5.17015 39.2408 5.17397L39.2422 5.92397ZM42.0519 8.40948C41.9268 7.00997 40.8266 5.67895 39.2449 5.67895V6.42895C40.3573 6.42895 41.2066 7.37717 41.3049 8.47622L42.0519 8.40948ZM39.2449 5.67895C37.6596 5.67895 36.5815 7.01342 36.4383 8.40445L37.1844 8.48125C37.2984 7.37373 38.136 6.42895 39.2449 6.42895V5.67895ZM36.8113 8.81785H41.6784V8.06785H36.8113V8.81785ZM48.181 5.90777C48.181 5.91363 48.1801 5.90763 48.1848 5.89405C48.1898 5.87958 48.1994 5.86142 48.2151 5.84433C48.2482 5.80817 48.2784 5.8069 48.2659 5.80855L48.3654 6.55188C48.5019 6.53365 48.6522 6.47747 48.7682 6.35087C48.8863 6.2218 48.931 6.061 48.931 5.90777H48.181ZM48.2626 5.809C47.4081 5.93095 46.7667 6.34142 46.3458 6.9352C45.9307 7.52058 45.7474 8.25842 45.7474 9.02095H46.4974C46.4974 8.37145 46.6543 7.79688 46.9576 7.36893C47.2551 6.9493 47.7103 6.64548 48.3686 6.5515L48.2626 5.809ZM45.7474 9.02095V11.4398H46.4974V9.02095H45.7474ZM45.7474 11.4398C45.7474 11.416 45.7552 11.3933 45.7705 11.374C45.7867 11.3534 45.8156 11.332 45.8554 11.3255L45.9765 12.0656C46.3026 12.0123 46.4974 11.7222 46.4974 11.4398H45.7474ZM45.8589 11.3249C45.8712 11.3231 45.9034 11.3247 45.9358 11.3514C45.9682 11.3781 45.9829 11.416 45.9829 11.4464H45.2329C45.2329 11.8507 45.5883 12.1255 45.973 12.0662L45.8589 11.3249ZM45.9829 11.4464V5.93433H45.2329V11.4464H45.9829ZM45.9829 5.93433C45.9829 5.9581 45.9751 5.98075 45.9598 6.00017C45.9436 6.02065 45.9148 6.0421 45.8749 6.04862L45.7539 5.30845C45.4278 5.36177 45.2329 5.65188 45.2329 5.93433H45.9829ZM45.8715 6.04915C45.8592 6.05102 45.827 6.04938 45.7946 6.02275C45.7622 5.99598 45.7474 5.9581 45.7474 5.92772H46.4974C46.4974 5.52348 46.1421 5.24867 45.7573 5.30792L45.8715 6.04915ZM45.7474 5.92772V7.0507H46.4974V5.92772H45.7474ZM46.4439 7.24382C46.8255 6.60857 47.5708 6.0502 48.2784 6.0502V5.3002C47.2193 5.3002 46.2655 6.08417 45.8009 6.85765L46.4439 7.24382ZM48.2881 6.05005C48.2653 6.05065 48.2512 6.04495 48.2378 6.03475C48.2203 6.02132 48.181 5.9785 48.181 5.90777H48.931C48.931 5.69418 48.8171 5.53337 48.693 5.43865C48.573 5.347 48.4202 5.29645 48.2687 5.30035L48.2881 6.05005ZM56.6425 8.6887C56.6425 8.61182 56.7014 8.5729 56.7501 8.5729V9.3229C57.0899 9.3229 57.3925 9.05132 57.3925 8.6887H56.6425ZM56.7501 8.5729H51.5987V9.3229H56.7501V8.5729ZM51.2257 8.9863C51.3689 10.3773 52.447 11.7117 54.0322 11.7117V10.9617C52.9234 10.9617 52.0858 10.0169 51.9718 8.9095L51.2257 8.9863ZM54.0322 11.7117C55.069 11.7117 55.8686 11.3117 56.4563 10.488L55.8457 10.0524C55.4045 10.6708 54.8367 10.9617 54.0322 10.9617V11.7117ZM56.4514 10.4946C56.4599 10.4834 56.4531 10.4981 56.4223 10.5098C56.4057 10.516 56.3866 10.5195 56.3674 10.5189C56.3486 10.5183 56.3368 10.5141 56.3339 10.5129L56.6248 9.82158C56.4706 9.7567 56.3077 9.75137 56.1574 9.80807C56.0165 9.86125 55.9166 9.9574 55.8506 10.0458L56.4514 10.4946ZM56.3321 10.5121C56.2933 10.4956 56.2631 10.4595 56.2552 10.4127L56.9946 10.2872C56.9596 10.0809 56.821 9.90535 56.6266 9.82232L56.3321 10.5121ZM56.2548 10.4103C56.2544 10.4081 56.2535 10.4012 56.254 10.3906C56.2544 10.3797 56.2561 10.3685 56.2588 10.3579C56.2615 10.3477 56.2642 10.3413 56.2647 10.3402C56.2648 10.3398 56.2645 10.3406 56.2632 10.3433C56.2618 10.3463 56.26 10.3496 56.2569 10.3559L56.9252 10.6962C56.9352 10.6767 56.9661 10.6187 56.985 10.5455C57.0058 10.4651 57.0097 10.3801 56.995 10.2896L56.2548 10.4103ZM56.2672 10.337C55.8347 11.0778 54.948 11.4734 54.0289 11.4734V12.2234C55.1338 12.2234 56.3116 11.7485 56.9149 10.7151L56.2672 10.337ZM54.0289 11.4734C52.5393 11.4734 51.4356 10.1578 51.4356 8.69868H50.6856C50.6856 10.4956 52.0526 12.2234 54.0289 12.2234V11.4734ZM51.4356 8.69868C51.4356 7.23955 52.5393 5.92397 54.0289 5.92397V5.17397C52.0526 5.17397 50.6856 6.90175 50.6856 8.69868H51.4356ZM54.0296 5.92397C55.5217 5.92112 56.6395 7.23647 56.6425 8.68952L57.3925 8.68795C57.3887 6.89155 56.0018 5.17015 54.0282 5.17397L54.0296 5.92397ZM56.8393 8.40948C56.7142 7.00997 55.614 5.67895 54.0322 5.67895V6.42895C55.1446 6.42895 55.994 7.37717 56.0923 8.47622L56.8393 8.40948ZM54.0322 5.67895C52.447 5.67895 51.3689 7.01342 51.2257 8.40445L51.9718 8.48125C52.0858 7.37373 52.9234 6.42895 54.0322 6.42895V5.67895ZM51.5987 8.81785H56.4658V8.06785H51.5987V8.81785ZM64.9588 5.97093V11.4963H65.7088V5.97093H64.9588ZM64.9588 11.4963C64.9588 11.4539 64.9783 11.4208 64.9978 11.4027C65.0143 11.3873 65.0398 11.3738 65.0765 11.3738V12.1238C65.3855 12.1238 65.7088 11.8747 65.7088 11.4963H64.9588ZM65.0765 11.3738C65.096 11.3738 65.1283 11.3824 65.156 11.4097C65.183 11.4368 65.1943 11.4704 65.1943 11.4963H64.4443C64.4443 11.8495 64.7233 12.1238 65.0765 12.1238V11.3738ZM65.1943 11.4963V10.4463H64.4443V11.4963H65.1943ZM64.4848 10.2767C64.109 11.017 63.4633 11.5 62.6803 11.5V12.25C63.812 12.25 64.6828 11.5436 65.1538 10.616L64.4848 10.2767ZM62.6803 11.5C62.033 11.5 61.5433 11.2291 61.208 10.8156C60.866 10.3943 60.6756 9.81175 60.6756 9.19705H59.9256C59.9256 9.95785 60.1599 10.7143 60.6253 11.2881C61.0971 11.8697 61.7975 12.25 62.6803 12.25V11.5ZM60.6756 9.19705V5.95765H59.9256V9.19705H60.6756ZM60.6756 5.95765C60.6756 6.0031 60.6574 6.03115 60.6433 6.0457C60.6268 6.06265 60.5971 6.08012 60.5578 6.08012V5.33012C60.1959 5.33012 59.9256 5.63365 59.9256 5.95765H60.6756ZM60.5578 6.08012C60.5218 6.08012 60.4912 6.06378 60.4724 6.04443C60.4565 6.02793 60.44 5.99972 60.44 5.95765H61.19C61.19 5.63695 60.9263 5.33012 60.5578 5.33012V6.08012ZM60.44 5.95765V9.19705H61.19V5.95765H60.44ZM60.44 9.19705C60.44 9.80673 60.6148 10.4342 60.9844 10.9184C61.3618 11.4129 61.9348 11.745 62.6765 11.745V10.995C62.183 10.995 61.8253 10.7838 61.5808 10.4634C61.328 10.1329 61.19 9.67383 61.19 9.19705H60.44ZM62.6765 11.745C63.1693 11.745 63.5908 11.6312 63.941 11.4116C64.2905 11.1925 64.5455 10.8826 64.7293 10.5263C65.09 9.82668 65.1905 8.91498 65.1905 8.0209H64.4405C64.4405 8.88445 64.3385 9.64727 64.0625 10.1828C63.9283 10.444 63.7565 10.6418 63.5428 10.7761C63.329 10.9098 63.0508 10.995 62.6765 10.995V11.745ZM65.1905 8.0209V5.95765H64.4405V8.0209H65.1905ZM65.1905 5.95765C65.1905 6.00752 65.1688 6.03678 65.15 6.05215C65.138 6.06198 65.1208 6.07128 65.0998 6.076C65.0773 6.08103 65.057 6.0793 65.0428 6.07518L65.252 5.35503C64.7975 5.2228 64.4405 5.5957 64.4405 5.95765H65.1905ZM65.0308 6.0715C65.0075 6.06378 64.9895 6.0493 64.9783 6.0334C64.967 6.01788 64.9588 5.99673 64.9588 5.97093H65.7088C65.7088 5.69793 65.5318 5.4463 65.264 5.3587L65.0308 6.0715ZM77.989 8.22355V11.463H78.739V8.22355H77.989ZM77.989 11.463C77.989 11.4207 78.0085 11.3876 78.028 11.3695C78.0445 11.3541 78.07 11.3406 78.1067 11.3406V12.0906C78.4165 12.0906 78.739 11.8415 78.739 11.463H77.989ZM78.1067 11.3406C78.127 11.3406 78.1585 11.3492 78.1862 11.3765C78.2132 11.4036 78.2245 11.4372 78.2245 11.463H77.4745C77.4745 11.8163 77.7542 12.0906 78.1067 12.0906V11.3406ZM78.2245 11.463V8.22355H77.4745V11.463H78.2245ZM78.2245 8.22355C78.2245 7.61365 78.0497 6.99033 77.6785 6.5104C77.3005 6.02035 76.7275 5.6956 75.988 5.6956V6.4456C76.4845 6.4456 76.8422 6.65403 77.0852 6.96895C77.3365 7.29385 77.4745 7.747 77.4745 8.22355H78.2245ZM75.988 5.6956C75.0553 5.6956 74.4103 6.19645 74.0165 6.8491C73.631 7.48765 73.4743 8.28295 73.4743 8.96447H74.2243C74.2243 8.38015 74.3615 7.72848 74.6585 7.23655C74.9465 6.75873 75.3718 6.4456 75.988 6.4456V5.6956ZM73.4743 8.96447V11.463H74.2243V8.96447H73.4743ZM73.4743 11.463C73.4743 11.4207 73.4938 11.3876 73.5133 11.3695C73.5298 11.3541 73.5553 11.3406 73.592 11.3406V12.0906C73.9018 12.0906 74.2243 11.8415 74.2243 11.463H73.4743ZM73.592 11.3406C73.6123 11.3406 73.6438 11.3492 73.6715 11.3765C73.6985 11.4036 73.7098 11.4372 73.7098 11.463H72.9598C72.9598 11.8163 73.2395 12.0906 73.592 12.0906V11.3406ZM73.7098 11.463V8.22355H72.9598V11.463H73.7098ZM73.7098 8.22355C73.7098 7.61365 73.535 6.99033 73.1638 6.5104C72.785 6.02035 72.2128 5.6956 71.4733 5.6956V6.4456C71.969 6.4456 72.3275 6.65403 72.5705 6.96895C72.8218 7.29385 72.9598 7.747 72.9598 8.22355H73.7098ZM71.4733 5.6956C70.5793 5.6956 69.905 6.04915 69.4783 6.66453C69.0643 7.26032 68.912 8.05772 68.9428 8.90808L69.692 8.8813C69.665 8.12028 69.8068 7.50558 70.094 7.09225C70.3678 6.69843 70.7998 6.4456 71.4733 6.4456V5.6956ZM68.942 8.89473C68.942 8.9266 68.9458 8.9566 68.9465 8.96778C68.9488 8.9869 68.9495 8.9902 68.9495 8.99702C68.9503 9.00453 68.9488 8.99118 68.9503 8.96898C68.9518 8.95735 68.954 8.93163 68.9645 8.89923C68.9743 8.86862 68.9975 8.80915 69.0545 8.75335L69.5795 9.28855C69.641 9.2287 69.6673 9.16323 69.6793 9.12527C69.692 9.0856 69.6965 9.0511 69.698 9.02973C69.7018 8.98802 69.6988 8.95105 69.6973 8.93357C69.6958 8.9155 69.6928 8.89262 69.6928 8.8873C69.6913 8.87395 69.692 8.88115 69.692 8.89473H68.942ZM68.942 9.02095V11.4564H69.692V9.02095H68.942ZM68.942 11.4564C68.942 11.4325 68.9503 11.409 68.966 11.3889C68.9833 11.3674 69.0118 11.3476 69.0485 11.3418L69.1663 12.0825C69.4948 12.0303 69.692 11.7417 69.692 11.4564H68.942ZM69.05 11.3416C69.0628 11.3397 69.095 11.3413 69.1273 11.368C69.1595 11.3947 69.1745 11.4326 69.1745 11.463H68.4245C68.4245 11.8673 68.78 12.1421 69.1648 12.0828L69.05 11.3416ZM69.1745 11.463V5.93433H68.4245V11.463H69.1745ZM69.1745 5.93433C69.1745 5.9581 69.1663 5.98075 69.1513 6.00017C69.1348 6.02065 69.1063 6.0421 69.0665 6.04862L68.945 5.30845C68.6195 5.36177 68.4245 5.65188 68.4245 5.93433H69.1745ZM69.0628 6.04915C69.0508 6.05102 69.0185 6.04938 68.9863 6.02275C68.9533 5.99598 68.939 5.9581 68.939 5.92772H69.689C69.689 5.52348 69.3335 5.24867 68.9488 5.30792L69.0628 6.04915ZM68.939 5.92772V6.85135H69.689V5.92772H68.939ZM69.6395 7.03713C70.022 6.36625 70.6955 5.94055 71.4695 5.94055V5.19055C70.403 5.19055 69.4925 5.78163 68.9878 6.66558L69.6395 7.03713ZM71.4695 5.94055C72.3433 5.94055 73.0235 6.47485 73.3085 7.2994L74.0173 7.05452C73.6393 5.9587 72.695 5.19055 71.4695 5.19055V5.94055ZM74.0053 7.33082C74.381 6.49525 75.0928 5.94055 75.9842 5.94055V5.19055C74.7373 5.19055 73.7915 5.97812 73.3213 7.0231L74.0053 7.33082ZM75.9842 5.94055C77.2255 5.94055 77.989 6.98388 77.989 8.22355H78.739C78.739 6.71222 77.7692 5.19055 75.9842 5.19055V5.94055Z" fill="#A7AEBE"/>
</g>
<defs>
<clipPath id="clip0_9427_18800">
<rect width="78.75" height="12" fill="white" transform="translate(0.375 0.25)"/>
</clipPath>
</defs>
</svg>
