<svg width="106" height="16" viewBox="0 0 106 16" fill="none" xmlns="http://www.w3.org/2000/svg">
<g clip-path="url(#clip0_417_2848)">
<path d="M10.5132 8.1677L5.59007 11.0769L0.666992 8.1677L5.59007 0L10.5132 8.1677Z" fill="#939393"/>
<path d="M5.58874 15.9997L10.5132 9.23047L5.58874 12.0673L0.666992 9.23047L5.58874 15.9997Z" fill="#939393"/>
<path d="M24.593 11.2516C24.593 11.4421 24.4305 11.5972 24.2365 11.5972H17.3679C17.5394 13.2628 18.8166 14.7823 20.6127 14.7823C21.8401 14.7823 22.7517 14.3216 23.4377 13.3603C23.537 13.2274 23.6859 13.1432 23.8754 13.223C23.9792 13.2673 24.0514 13.3603 24.0695 13.4666C24.0875 13.5774 24.0559 13.6394 24.0243 13.7014C23.3339 14.8842 21.9575 15.4646 20.6081 15.4646C18.2976 15.4646 16.6504 13.4356 16.6504 11.2649C16.6504 9.09421 18.2976 7.06531 20.6081 7.06531C22.9187 7.06081 24.5885 9.08541 24.593 11.2516ZM23.8574 10.9238C23.7085 9.25811 22.4088 7.73861 20.6127 7.73861C18.8166 7.73861 17.5394 9.25811 17.3679 10.9238H23.8574ZM32.9281 7.22921C33.1267 7.22921 33.2711 7.39751 33.2711 7.56591C33.2711 7.76081 33.1222 7.90251 32.9281 7.90251H31.0869V14.995C31.0869 15.1633 30.938 15.3317 30.7439 15.3317C30.5454 15.3317 30.401 15.1633 30.401 14.995V7.90251H28.6319C28.4334 7.90251 28.289 7.75631 28.289 7.56591C28.289 7.39751 28.4379 7.22921 28.6319 7.22921H30.401V4.6332C30.401 4.4693 30.5138 4.31871 30.6762 4.29211C30.9064 4.25661 31.0869 4.41171 31.0869 4.62431V7.22921H32.9281ZM44.1606 10.658V14.9551C44.1606 15.15 43.9891 15.2918 43.8176 15.2918C43.619 15.2918 43.4746 15.1456 43.4746 14.9551V10.658C43.4746 9.20941 42.6397 7.76081 40.9926 7.76081C38.8806 7.76081 37.969 9.57271 38.0908 11.4288C38.0908 11.4776 38.1134 11.6946 38.1134 11.7168V14.9418C38.1134 15.1057 38.0006 15.2563 37.8381 15.2829C37.6079 15.3184 37.4274 15.1633 37.4274 14.9507V0.836701C37.4274 0.668301 37.5763 0.5 37.7704 0.5C37.969 0.5 38.1134 0.668301 38.1134 0.836701V8.82401C38.7046 7.78741 39.7606 7.08741 40.988 7.08741C43.0053 7.08741 44.1606 8.82401 44.1606 10.658ZM56.476 11.2516C56.476 11.4421 56.3136 11.5972 56.1195 11.5972H49.2465C49.418 13.2628 50.6951 14.7823 52.4912 14.7823C53.7187 14.7823 54.6303 14.3216 55.3162 13.3603C55.4155 13.2274 55.5645 13.1432 55.754 13.223C55.8578 13.2673 55.93 13.3603 55.948 13.4666C55.9661 13.5774 55.9345 13.6394 55.9029 13.7014C55.2124 14.8842 53.836 15.4646 52.4867 15.4646C50.1761 15.4646 48.529 13.4356 48.529 11.2649C48.529 9.09421 50.1761 7.06531 52.4867 7.06531C54.8018 7.06081 56.4715 9.08541 56.476 11.2516ZM55.7359 10.9238C55.587 9.25811 54.2873 7.73861 52.4912 7.73861C50.6951 7.73861 49.418 9.25811 49.2465 10.9238H55.7359ZM64.906 7.54371C64.906 7.7608 64.7841 7.88041 64.5856 7.90701C62.5683 8.19491 61.6613 9.81191 61.6613 11.6946V14.9197C61.6613 15.0836 61.5484 15.2342 61.386 15.2608C61.1558 15.2962 60.9753 15.1412 60.9753 14.9285V7.57911C60.9753 7.41521 61.0881 7.26461 61.2506 7.23801C61.4808 7.20261 61.6613 7.3576 61.6613 7.57031V9.06761C62.2254 8.12851 63.3581 7.23361 64.5359 7.23361C64.7074 7.22921 64.906 7.35321 64.906 7.54371ZM76.188 11.2516C76.188 11.4421 76.0256 11.5972 75.8315 11.5972H68.963C69.1345 13.2628 70.4116 14.7823 72.2077 14.7823C73.4352 14.7823 74.3468 14.3216 75.0328 13.3603C75.132 13.2274 75.281 13.1432 75.4705 13.223C75.5743 13.2673 75.6465 13.3603 75.6645 13.4666C75.6826 13.5774 75.651 13.6394 75.6194 13.7014C74.929 14.8842 73.5526 15.4646 72.2032 15.4646C69.8927 15.4646 68.2455 13.4356 68.2455 11.2649C68.2455 9.09421 69.8927 7.06531 72.2032 7.06531C74.5138 7.06081 76.1835 9.08541 76.188 11.2516ZM75.4525 10.9238C75.3035 9.25811 74.0038 7.73861 72.2077 7.73861C70.4116 7.73861 69.1345 9.25811 68.963 10.9238H75.4525ZM87.2764 7.62791V14.995C87.2764 15.1899 87.1044 15.3317 86.9334 15.3317C86.7344 15.3317 86.5904 15.1855 86.5904 14.995V13.5951C86.0264 14.707 85.0154 15.5 83.7384 15.5C81.6984 15.5 80.5655 13.7634 80.5655 11.9294V7.61021C80.5655 7.44181 80.7144 7.27351 80.9084 7.27351C81.107 7.27351 81.2514 7.44181 81.2514 7.61021V11.9294C81.2514 13.378 82.0864 14.8266 83.7334 14.8266C86.0444 14.8266 86.5854 12.7047 86.5854 10.3612V7.61021C86.5854 7.41521 86.7844 7.21591 87.0274 7.28681C87.1764 7.33551 87.2764 7.4773 87.2764 7.62791ZM104.65 10.6314V14.9507C104.65 15.1456 104.479 15.2874 104.307 15.2874C104.108 15.2874 103.964 15.1412 103.964 14.9507V10.6314C103.964 9.18281 103.129 7.76081 101.482 7.76081C99.4154 7.76081 98.6304 9.93151 98.6304 11.6193V14.9507C98.6304 15.1456 98.4584 15.2874 98.2874 15.2874C98.0884 15.2874 97.9444 15.1412 97.9444 14.9507V10.6314C97.9444 9.18281 97.1094 7.76081 95.4624 7.76081C93.3724 7.76081 92.5114 9.37771 92.5874 11.5263C92.5874 11.575 92.6104 11.6725 92.5874 11.6946V14.9418C92.5874 15.1057 92.4744 15.2563 92.3074 15.2829C92.0774 15.3184 91.8974 15.1633 91.8974 14.9507V7.57911C91.8974 7.41521 92.0104 7.26461 92.1724 7.23801C92.4024 7.20261 92.5834 7.3576 92.5834 7.57031V8.80181C93.1744 7.76521 94.2304 7.08741 95.4574 7.08741C96.8564 7.08741 97.9394 7.95571 98.3824 9.23601C98.9464 7.98231 100.051 7.08741 101.477 7.08741C103.495 7.08741 104.65 8.79741 104.65 10.6314Z" fill="#939393"/>
<path d="M17.3698 11.5972V11.0972H16.8157L16.8725 11.6484L17.3698 11.5972ZM23.4396 13.3603L23.0389 13.061L23.0326 13.0699L23.4396 13.3603ZM23.8773 13.223L24.0736 12.7631L24.0712 12.7621L23.8773 13.223ZM24.0714 13.4666L24.5649 13.3862L24.5643 13.3829L24.0714 13.4666ZM24.0262 13.7014L24.4581 13.9535L24.4653 13.9411L24.4718 13.9283L24.0262 13.7014ZM20.61 7.0653V7.5653H20.611L20.61 7.0653ZM23.8593 10.9238V11.4238H24.406L24.3573 10.8793L23.8593 10.9238ZM17.3698 10.9238L16.8725 10.8726L16.8157 11.4238H17.3698V10.9238ZM31.0888 7.9025V7.4025H30.5888V7.9025H31.0888ZM30.4029 7.9025H30.9029V7.4025H30.4029V7.9025ZM30.4029 7.2292V7.7292H30.9029V7.2292H30.4029ZM30.6781 4.2921L30.602 3.7979L30.5974 3.7986L30.6781 4.2921ZM31.0888 7.2292H30.5888V7.7292H31.0888V7.2292ZM38.0927 11.4288H38.5927V11.4124L38.5916 11.3961L38.0927 11.4288ZM37.84 15.2829L37.9161 15.7771L37.9207 15.7764L37.84 15.2829ZM38.1153 8.824H37.6153V10.71L38.5496 9.0717L38.1153 8.824ZM49.2484 11.5972V11.0972H48.6943L48.751 11.6484L49.2484 11.5972ZM55.3181 13.3603L54.9175 13.061L54.9111 13.0699L55.3181 13.3603ZM55.7559 13.223L55.9522 12.7631L55.9498 12.7621L55.7559 13.223ZM55.9499 13.4666L56.4434 13.3862L56.4429 13.3829L55.9499 13.4666ZM55.9048 13.7014L56.3366 13.9535L56.3438 13.9411L56.3503 13.9283L55.9048 13.7014ZM52.4886 7.0653V7.5653H52.4896L52.4886 7.0653ZM55.7378 10.9238V11.4238H56.2845L56.2358 10.8793L55.7378 10.9238ZM49.2484 10.9238L48.751 10.8726L48.6943 11.4238H49.2484V10.9238ZM64.5875 7.907L64.5211 7.4114L64.5168 7.412L64.5875 7.907ZM61.3879 15.2608L61.464 15.755L61.4686 15.7542L61.3879 15.2608ZM61.2525 7.238L61.1764 6.7438L61.1718 6.7446L61.2525 7.238ZM61.6632 9.0676H61.1632V10.8711L62.0918 9.3251L61.6632 9.0676ZM64.5378 7.2336V7.7338L64.5507 7.7334L64.5378 7.2336ZM68.9649 11.5972V11.0972H68.4108L68.4675 11.6484L68.9649 11.5972ZM75.0347 13.3603L74.634 13.061L74.6276 13.0699L75.0347 13.3603ZM75.4724 13.223L75.6687 12.7631L75.6663 12.7621L75.4724 13.223ZM75.6664 13.4666L76.1599 13.3862L76.1594 13.3829L75.6664 13.4666ZM75.6213 13.7014L76.0531 13.9535L76.0604 13.9411L76.0669 13.9283L75.6213 13.7014ZM72.2051 7.0653V7.5653H72.2061L72.2051 7.0653ZM68.9649 10.9238L68.4675 10.8726L68.4108 11.4238H68.9649V10.9238ZM86.5923 13.5951H87.0923L86.1463 13.3689L86.5923 13.5951ZM87.0293 7.2868L87.1853 6.8116L87.1773 6.809L87.1693 6.8067L87.0293 7.2868ZM92.5893 11.5263H93.0893V11.5174V11.5084L92.5893 11.5263ZM92.5893 11.6946L92.2393 11.3378L92.0893 11.4848V11.6946H92.5893ZM92.3093 15.2829L92.3863 15.7771L92.3883 15.7767L92.3093 15.2829ZM92.1743 7.238L92.0983 6.7438L92.0933 6.7446L92.1743 7.238ZM92.5854 8.8018H92.0854V10.6879L93.0193 9.0495L92.5854 8.8018ZM98.3843 9.236L97.9113 9.3992L98.3233 10.5904L98.8403 9.4411L98.3843 9.236ZM24.0949 11.2516C24.0949 11.1491 24.1734 11.0972 24.2384 11.0972V12.0972C24.6914 12.0972 25.0949 11.7351 25.0949 11.2516H24.0949ZM24.2384 11.0972H17.3698V12.0972H24.2384V11.0972ZM16.8725 11.6484C17.0634 13.5031 18.5009 15.2823 20.6146 15.2823V14.2823C19.1361 14.2823 18.0192 13.0226 17.8672 11.546L16.8725 11.6484ZM20.6146 15.2823C21.997 15.2823 23.063 14.7489 23.8466 13.6507L23.0326 13.0699C22.4443 13.8944 21.6871 14.2823 20.6146 14.2823V15.2823ZM23.8401 13.6595C23.8514 13.6445 23.8423 13.6641 23.8012 13.6797C23.7792 13.688 23.7537 13.6926 23.7282 13.6919C23.703 13.6911 23.6873 13.6855 23.6834 13.6839L24.0712 12.7621C23.8657 12.6756 23.6484 12.6685 23.448 12.7441C23.2602 12.815 23.1271 12.9432 23.039 13.0611L23.8401 13.6595ZM23.6811 13.6828C23.6293 13.6608 23.589 13.6127 23.5784 13.5503L24.5643 13.3829C24.5176 13.1079 24.3329 12.8738 24.0736 12.7631L23.6811 13.6828ZM23.5779 13.5471C23.5774 13.5442 23.5762 13.535 23.5768 13.5208C23.5774 13.5063 23.5797 13.4913 23.5833 13.4772C23.5868 13.4636 23.5905 13.455 23.5911 13.4536C23.5913 13.4531 23.5909 13.4542 23.5891 13.4578C23.5872 13.4617 23.5849 13.4662 23.5807 13.4745L24.4718 13.9283C24.4851 13.9022 24.5263 13.825 24.5515 13.7274C24.5793 13.6201 24.5845 13.5068 24.5649 13.3862L23.5779 13.5471ZM23.5944 13.4493C23.0178 14.4371 21.8356 14.9646 20.61 14.9646V15.9646C22.0832 15.9646 23.6537 15.3313 24.4581 13.9535L23.5944 13.4493ZM20.61 14.9646C18.6239 14.9646 17.1523 13.2104 17.1523 11.2649H16.1523C16.1523 13.6608 17.975 15.9646 20.61 15.9646V14.9646ZM17.1523 11.2649C17.1523 9.3194 18.6239 7.5653 20.61 7.5653V6.5653C17.975 6.5653 16.1523 8.869 16.1523 11.2649H17.1523ZM20.611 7.5653C22.6005 7.5615 24.0908 9.3153 24.0949 11.2527L25.0949 11.2506C25.0899 8.8554 23.2407 6.5602 20.6091 6.5653L20.611 7.5653ZM24.3573 10.8793C24.1905 9.0133 22.7235 7.2386 20.6146 7.2386V8.2386C22.0978 8.2386 23.2302 9.5029 23.3613 10.9683L24.3573 10.8793ZM20.6146 7.2386C18.5009 7.2386 17.0634 9.0179 16.8725 10.8726L17.8672 10.975C18.0192 9.4983 19.1361 8.2386 20.6146 8.2386V7.2386ZM17.3698 11.4238H23.8593V10.4238H17.3698V11.4238ZM32.93 7.7292C32.882 7.7292 32.8411 7.7074 32.8162 7.6816C32.795 7.6596 32.773 7.622 32.773 7.5659H33.773C33.773 7.1383 33.4214 6.7292 32.93 6.7292V7.7292ZM32.773 7.5659C32.773 7.5313 32.7883 7.4853 32.8257 7.4489C32.862 7.4136 32.9032 7.4025 32.93 7.4025V8.4025C33.3871 8.4025 33.773 8.0499 33.773 7.5659H32.773ZM32.93 7.4025H31.0888V8.4025H32.93V7.4025ZM30.5888 7.9025V14.995H31.5888V7.9025H30.5888ZM30.5888 14.995C30.5888 14.9344 30.6131 14.8969 30.6319 14.8776C30.6539 14.855 30.6935 14.8317 30.7458 14.8317V15.8317C31.2284 15.8317 31.5888 15.427 31.5888 14.995H30.5888ZM30.7458 14.8317C30.7938 14.8317 30.8347 14.8534 30.8597 14.8792C30.8809 14.9012 30.9029 14.9388 30.9029 14.995H29.9029C29.9029 15.4226 30.2545 15.8317 30.7458 15.8317V14.8317ZM30.9029 14.995V7.9025H29.9029V14.995H30.9029ZM30.4029 7.4025H28.6338V8.4025H30.4029V7.4025ZM28.6338 7.4025C28.6607 7.4025 28.7031 7.4141 28.7398 7.4504C28.7763 7.4866 28.7909 7.5314 28.7909 7.5659H27.7909C27.7909 8.0369 28.1635 8.4025 28.6338 8.4025V7.4025ZM28.7909 7.5659C28.7909 7.6265 28.7666 7.6639 28.7478 7.6833C28.7257 7.7059 28.6862 7.7292 28.6338 7.7292V6.7292C28.1513 6.7292 27.7909 7.1339 27.7909 7.5659H28.7909ZM28.6338 7.7292H30.4029V6.7292H28.6338V7.7292ZM30.9029 7.2292V4.6332H29.9029V7.2292H30.9029ZM30.9029 4.6332C30.9029 4.6648 30.8925 4.6951 30.8721 4.7209C30.8505 4.7483 30.8119 4.7768 30.7589 4.7855L30.5974 3.7986C30.1626 3.8698 29.9029 4.2566 29.9029 4.6332H30.9029ZM30.7542 4.7863C30.7379 4.7888 30.6949 4.7866 30.6518 4.751C30.6085 4.7154 30.5888 4.6649 30.5888 4.6243H31.5888C31.5888 4.0853 31.1151 3.7189 30.6021 3.7979L30.7542 4.7863ZM30.5888 4.6243V7.2292H31.5888V4.6243H30.5888ZM31.0888 7.7292H32.93V6.7292H31.0888V7.7292ZM43.6625 10.658V14.9551H44.6625V10.658H43.6625ZM43.6625 14.9551C43.6625 14.8988 43.6888 14.8545 43.7148 14.8304C43.7369 14.8099 43.7708 14.7918 43.8195 14.7918V15.7918C44.2323 15.7918 44.6625 15.4597 44.6625 14.9551H43.6625ZM43.8195 14.7918C43.8463 14.7918 43.8887 14.8033 43.9254 14.8397C43.9619 14.8758 43.9765 14.9206 43.9765 14.9551H42.9765C42.9765 15.4261 43.3492 15.7918 43.8195 15.7918V14.7918ZM43.9765 14.9551V10.658H42.9765V14.9551H43.9765ZM43.9765 10.658C43.9765 9.8451 43.7435 9.0085 43.2506 8.3628C42.7475 7.7035 41.9836 7.2608 40.9945 7.2608V8.2608C41.6525 8.2608 42.1297 8.5423 42.4557 8.9695C42.7921 9.4102 42.9765 10.0223 42.9765 10.658H43.9765ZM40.9945 7.2608C39.7747 7.2608 38.8656 7.7939 38.2955 8.6131C37.7388 9.4131 37.5274 10.4504 37.5938 11.4616L38.5916 11.3961C38.5362 10.5511 38.7197 9.7543 39.1163 9.1843C39.4995 8.6336 40.1022 8.2608 40.9945 8.2608V7.2608ZM37.5927 11.4288C37.5927 11.4635 37.5959 11.5056 37.5977 11.5295C37.6001 11.5604 37.6031 11.5954 37.606 11.6273C37.609 11.6608 37.6116 11.689 37.6136 11.7128C37.6147 11.7244 37.6153 11.7326 37.6157 11.7378C37.6159 11.7404 37.6159 11.7408 37.6159 11.7397C37.6158 11.7391 37.6157 11.7371 37.6156 11.7342C37.6155 11.732 37.6153 11.7255 37.6153 11.7168H38.6153C38.6153 11.6997 38.6144 11.6851 38.6142 11.6812C38.6138 11.6744 38.6133 11.6678 38.6129 11.6623C38.612 11.6512 38.611 11.6384 38.6099 11.6258C38.6077 11.6011 38.6046 11.5678 38.602 11.5383C38.5992 11.507 38.5966 11.4772 38.5948 11.453C38.5924 11.4218 38.5927 11.4185 38.5927 11.4288H37.5927ZM37.6153 11.7168V14.9418H38.6153V11.7168H37.6153ZM37.6153 14.9418C37.6153 14.9102 37.6257 14.88 37.6461 14.8541C37.6677 14.8268 37.7062 14.7982 37.7593 14.7895L37.9207 15.7764C38.3555 15.7052 38.6153 15.3184 38.6153 14.9418H37.6153ZM37.7639 14.7888C37.7803 14.7862 37.8232 14.7884 37.8664 14.824C37.9096 14.8596 37.9293 14.9101 37.9293 14.9507H36.9293C36.9293 15.4897 37.4031 15.8561 37.9161 15.7771L37.7639 14.7888ZM37.9293 14.9507V0.8367H36.9293V14.9507H37.9293ZM37.9293 0.8367C37.9293 0.8973 37.9051 0.9347 37.8862 0.9541C37.8642 0.9767 37.8247 1 37.7723 1V0C37.2898 0 36.9293 0.4047 36.9293 0.8367H37.9293ZM37.7723 1C37.7243 1 37.6834 0.9783 37.6585 0.9524C37.6372 0.9304 37.6153 0.8928 37.6153 0.8367H38.6153C38.6153 0.4091 38.2636 0 37.7723 0V1ZM37.6153 0.8367V8.824H38.6153V0.8367H37.6153ZM38.5496 9.0717C39.063 8.1714 39.9636 7.5874 40.9899 7.5874V6.5874C39.5613 6.5874 38.3499 7.4033 37.6809 8.5763L38.5496 9.0717ZM40.9899 7.5874C42.6405 7.5874 43.6625 8.9999 43.6625 10.658H44.6625C44.6625 8.648 43.3738 6.5874 40.9899 6.5874V7.5874ZM55.9779 11.2516C55.9779 11.1491 56.0565 11.0972 56.1214 11.0972V12.0972C56.5745 12.0972 56.9779 11.7351 56.9779 11.2516H55.9779ZM56.1214 11.0972H49.2484V12.0972H56.1214V11.0972ZM48.751 11.6484C48.942 13.5031 50.3794 15.2823 52.4931 15.2823V14.2823C51.0146 14.2823 49.8978 13.0226 49.7458 11.546L48.751 11.6484ZM52.4931 15.2823C53.8755 15.2823 54.9416 14.7489 55.7252 13.6507L54.9111 13.0699C54.3228 13.8944 53.5657 14.2823 52.4931 14.2823V15.2823ZM55.7187 13.6595C55.7299 13.6445 55.7209 13.6641 55.6798 13.6797C55.6577 13.688 55.6323 13.6926 55.6067 13.6919C55.5816 13.6911 55.5659 13.6855 55.562 13.6839L55.9498 12.7621C55.7443 12.6756 55.527 12.6685 55.3266 12.7441C55.1388 12.815 55.0056 12.9432 54.9176 13.0611L55.7187 13.6595ZM55.5596 13.6828C55.5079 13.6608 55.4676 13.6127 55.457 13.5503L56.4429 13.3829C56.3962 13.1079 56.2115 12.8738 55.9522 12.7631L55.5596 13.6828ZM55.4564 13.5471C55.456 13.5442 55.4548 13.535 55.4554 13.5208C55.456 13.5063 55.4583 13.4913 55.4619 13.4772C55.4654 13.4636 55.4691 13.455 55.4697 13.4536C55.4699 13.4531 55.4695 13.4542 55.4677 13.4578C55.4658 13.4617 55.4635 13.4662 55.4593 13.4745L56.3503 13.9283C56.3637 13.9022 56.4048 13.825 56.4301 13.7274C56.4578 13.6201 56.4631 13.5068 56.4434 13.3862L55.4564 13.5471ZM55.473 13.4493C54.8964 14.4371 53.7141 14.9646 52.4886 14.9646V15.9646C53.9617 15.9646 55.5323 15.3313 56.3366 13.9535L55.473 13.4493ZM52.4886 14.9646C50.5025 14.9646 49.0309 13.2104 49.0309 11.2649H48.0309C48.0309 13.6608 49.8536 15.9646 52.4886 15.9646V14.9646ZM49.0309 11.2649C49.0309 9.3194 50.5025 7.5653 52.4886 7.5653V6.5653C49.8536 6.5653 48.0309 8.869 48.0309 11.2649H49.0309ZM52.4896 7.5653C54.484 7.5615 55.9739 9.3157 55.9779 11.2527L56.9779 11.2506C56.9729 8.855 55.1234 6.5602 52.4877 6.5653L52.4896 7.5653ZM56.2358 10.8793C56.069 9.0133 54.6021 7.2386 52.4931 7.2386V8.2386C53.9763 8.2386 55.1088 9.5029 55.2398 10.9683L56.2358 10.8793ZM52.4931 7.2386C50.3794 7.2386 48.942 9.0179 48.751 10.8726L49.7458 10.975C49.8978 9.4983 51.0146 8.2386 52.4931 8.2386V7.2386ZM49.2484 11.4238H55.7378V10.4238H49.2484V11.4238ZM64.4079 7.5437C64.4079 7.5515 64.4068 7.5435 64.413 7.5254C64.4197 7.5061 64.4325 7.4819 64.4534 7.4591C64.4975 7.4109 64.5378 7.4092 64.5211 7.4114L64.6538 8.4025C64.8358 8.3782 65.0362 8.3033 65.1909 8.1345C65.3484 7.9624 65.4079 7.748 65.4079 7.5437H64.4079ZM64.5168 7.412C63.3774 7.5746 62.5222 8.1219 61.961 8.9136C61.4076 9.6941 61.1632 10.6779 61.1632 11.6946H62.1632C62.1632 10.8286 62.3723 10.0625 62.7768 9.4919C63.1734 8.9324 63.7804 8.5273 64.6581 8.402L64.5168 7.412ZM61.1632 11.6946V14.9197H62.1632V11.6946H61.1632ZM61.1632 14.9197C61.1632 14.888 61.1736 14.8578 61.194 14.832C61.2156 14.8046 61.2541 14.776 61.3072 14.7673L61.4686 15.7542C61.9034 15.6831 62.1632 15.2963 62.1632 14.9197H61.1632ZM61.3118 14.7666C61.3282 14.7641 61.3711 14.7663 61.4143 14.8019C61.4575 14.8375 61.4772 14.888 61.4772 14.9285H60.4772C60.4772 15.4676 60.951 15.834 61.464 15.755L61.3118 14.7666ZM61.4772 14.9285V7.5791H60.4772V14.9285H61.4772ZM61.4772 7.5791C61.4772 7.6108 61.4668 7.641 61.4464 7.6669C61.4248 7.6942 61.3863 7.7228 61.3332 7.7315L61.1718 6.7446C60.737 6.8157 60.4772 7.2025 60.4772 7.5791H61.4772ZM61.3286 7.7322C61.3122 7.7347 61.2693 7.7325 61.2261 7.697C61.1829 7.6613 61.1632 7.6108 61.1632 7.5703H62.1632C62.1632 7.0313 61.6894 6.6649 61.1764 6.7439L61.3286 7.7322ZM61.1632 7.5703V9.0676H62.1632V7.5703H61.1632ZM62.0918 9.3251C62.6006 8.4781 63.5943 7.7336 64.5378 7.7336V6.7336C63.1257 6.7336 61.854 7.7789 61.2345 8.8102L62.0918 9.3251ZM64.5507 7.7334C64.5203 7.7342 64.5016 7.7266 64.4837 7.713C64.4604 7.6951 64.4079 7.638 64.4079 7.5437H65.4079C65.4079 7.2589 65.2561 7.0445 65.0906 6.9182C64.9306 6.796 64.7269 6.7286 64.5249 6.7338L64.5507 7.7334ZM75.6899 11.2516C75.6899 11.1491 75.7685 11.0972 75.8334 11.0972V12.0972C76.2865 12.0972 76.6899 11.7351 76.6899 11.2516H75.6899ZM75.8334 11.0972H68.9649V12.0972H75.8334V11.0972ZM68.4675 11.6484C68.6585 13.5031 70.0959 15.2823 72.2096 15.2823V14.2823C70.7311 14.2823 69.6143 13.0226 69.4623 11.546L68.4675 11.6484ZM72.2096 15.2823C73.592 15.2823 74.6581 14.7489 75.4417 13.6507L74.6276 13.0699C74.0393 13.8944 73.2822 14.2823 72.2096 14.2823V15.2823ZM75.4352 13.6595C75.4465 13.6445 75.4374 13.6641 75.3963 13.6797C75.3742 13.688 75.3488 13.6926 75.3232 13.6919C75.2981 13.6911 75.2824 13.6855 75.2785 13.6839L75.6663 12.7621C75.4608 12.6756 75.2435 12.6685 75.0431 12.7441C74.8553 12.815 74.7221 12.9432 74.6341 13.0611L75.4352 13.6595ZM75.2761 13.6828C75.2244 13.6608 75.1841 13.6127 75.1735 13.5503L76.1594 13.3829C76.1127 13.1079 75.928 12.8738 75.6687 12.7631L75.2761 13.6828ZM75.173 13.5471C75.1725 13.5442 75.1713 13.535 75.1719 13.5208C75.1725 13.5063 75.1748 13.4913 75.1784 13.4772C75.1819 13.4636 75.1856 13.455 75.1862 13.4536C75.1864 13.4531 75.186 13.4542 75.1842 13.4578C75.1823 13.4617 75.18 13.4662 75.1758 13.4745L76.0669 13.9283C76.0802 13.9022 76.1214 13.825 76.1466 13.7274C76.1743 13.6201 76.1796 13.5068 76.1599 13.3862L75.173 13.5471ZM75.1895 13.4493C74.6129 14.4371 73.4306 14.9646 72.2051 14.9646V15.9646C73.6783 15.9646 75.2488 15.3313 76.0531 13.9535L75.1895 13.4493ZM72.2051 14.9646C70.219 14.9646 68.7474 13.2104 68.7474 11.2649H67.7474C67.7474 13.6608 69.5701 15.9646 72.2051 15.9646V14.9646ZM68.7474 11.2649C68.7474 9.3194 70.219 7.5653 72.2051 7.5653V6.5653C69.5701 6.5653 67.7474 8.869 67.7474 11.2649H68.7474ZM72.2061 7.5653C74.1956 7.5615 75.6859 9.3153 75.6899 11.2527L76.6899 11.2506C76.6849 8.8554 74.8357 6.5602 72.2042 6.5653L72.2061 7.5653ZM75.9524 10.8793C75.7855 9.0133 74.3186 7.2386 72.2096 7.2386V8.2386C73.6928 8.2386 74.8253 9.5029 74.9563 10.9683L75.9524 10.8793ZM72.2096 7.2386C70.0959 7.2386 68.6585 9.0179 68.4675 10.8726L69.4623 10.975C69.6143 9.4983 70.7311 8.2386 72.2096 8.2386V7.2386ZM68.9649 11.4238H75.4544V10.4238H68.9649V11.4238ZM86.7783 7.6279V14.995H87.7783V7.6279H86.7783ZM86.7783 14.995C86.7783 14.9386 86.8043 14.8944 86.8303 14.8703C86.8523 14.8497 86.8863 14.8317 86.9353 14.8317V15.8317C87.3474 15.8317 87.7783 15.4996 87.7783 14.995H86.7783ZM86.9353 14.8317C86.9613 14.8317 87.0043 14.8432 87.0413 14.8796C87.0773 14.9157 87.0923 14.9605 87.0923 14.995H86.0923C86.0923 15.466 86.4643 15.8317 86.9353 15.8317V14.8317ZM87.0923 14.995V13.5951H86.0923V14.995H87.0923ZM86.1463 13.3689C85.6453 14.356 84.7843 15 83.7403 15V16C85.2494 16 86.4103 15.0581 87.0383 13.8213L86.1463 13.3689ZM83.7403 15C82.8773 15 82.2243 14.6388 81.7773 14.0875C81.3213 13.5257 81.0674 12.749 81.0674 11.9294H80.0674C80.0674 12.9438 80.3799 13.9524 81.0005 14.7175C81.6294 15.4929 82.5633 16 83.7403 16V15ZM81.0674 11.9294V7.6102H80.0674V11.9294H81.0674ZM81.0674 7.6102C81.0674 7.6708 81.0431 7.7082 81.0243 7.7276C81.0023 7.7502 80.9627 7.7735 80.9103 7.7735V6.7735C80.4278 6.7735 80.0674 7.1782 80.0674 7.6102H81.0674ZM80.9103 7.7735C80.8624 7.7735 80.8215 7.7517 80.7965 7.7259C80.7753 7.7039 80.7533 7.6663 80.7533 7.6102H81.7533C81.7533 7.1826 81.4017 6.7735 80.9103 6.7735V7.7735ZM80.7533 7.6102V11.9294H81.7533V7.6102H80.7533ZM80.7533 11.9294C80.7533 12.7423 80.9864 13.5789 81.4792 14.2246C81.9823 14.8839 82.7463 15.3266 83.7353 15.3266V14.3266C83.0773 14.3266 82.6003 14.0451 82.2743 13.6179C81.9373 13.1772 81.7533 12.5651 81.7533 11.9294H80.7533ZM83.7353 15.3266C84.3923 15.3266 84.9543 15.1749 85.4213 14.8821C85.8874 14.59 86.2273 14.1768 86.4723 13.7017C86.9533 12.7689 87.0873 11.5533 87.0873 10.3612H86.0873C86.0873 11.5126 85.9513 12.5297 85.5833 13.2437C85.4043 13.592 85.1753 13.8558 84.8903 14.0348C84.6053 14.2131 84.2343 14.3266 83.7353 14.3266V15.3266ZM87.0873 10.3612V7.6102H86.0873V10.3612H87.0873ZM87.0873 7.6102C87.0873 7.6767 87.0583 7.7157 87.0333 7.7362C87.0173 7.7493 86.9943 7.7617 86.9663 7.768C86.9363 7.7747 86.9093 7.7724 86.8903 7.7669L87.1693 6.8067C86.5633 6.6304 86.0873 7.1276 86.0873 7.6102H87.0873ZM86.8743 7.762C86.8433 7.7517 86.8193 7.7324 86.8043 7.7112C86.7893 7.6905 86.7783 7.6623 86.7783 7.6279H87.7783C87.7783 7.2639 87.5424 6.9284 87.1853 6.8116L86.8743 7.762ZM104.152 10.6314V14.9507H105.152V10.6314H104.152ZM104.152 14.9507C104.152 14.8943 104.178 14.8501 104.204 14.826C104.226 14.8054 104.26 14.7874 104.309 14.7874V15.7874C104.722 15.7874 105.152 15.4553 105.152 14.9507H104.152ZM104.309 14.7874C104.336 14.7874 104.378 14.7989 104.415 14.8353C104.451 14.8714 104.466 14.9162 104.466 14.9507H103.466C103.466 15.4217 103.839 15.7874 104.309 15.7874V14.7874ZM104.466 14.9507V10.6314H103.466V14.9507H104.466ZM104.466 10.6314C104.466 9.8182 104.233 8.9871 103.738 8.3472C103.234 7.6938 102.47 7.2608 101.484 7.2608V8.2608C102.146 8.2608 102.623 8.5387 102.947 8.9586C103.282 9.3918 103.466 9.996 103.466 10.6314H104.466ZM101.484 7.2608C100.24 7.2608 99.3803 7.9286 98.8553 8.7988C98.3413 9.6502 98.1323 10.7106 98.1323 11.6193H99.1323C99.1323 10.8402 99.3153 9.9713 99.7113 9.3154C100.095 8.6783 100.662 8.2608 101.484 8.2608V7.2608ZM98.1323 11.6193V14.9507H99.1323V11.6193H98.1323ZM98.1323 14.9507C98.1323 14.8943 98.1583 14.8501 98.1843 14.826C98.2064 14.8054 98.2403 14.7874 98.2893 14.7874V15.7874C98.7023 15.7874 99.1323 15.4553 99.1323 14.9507H98.1323ZM98.2893 14.7874C98.3163 14.7874 98.3583 14.7989 98.3953 14.8353C98.4314 14.8714 98.4464 14.9162 98.4464 14.9507H97.4464C97.4464 15.4217 97.8193 15.7874 98.2893 15.7874V14.7874ZM98.4464 14.9507V10.6314H97.4464V14.9507H98.4464ZM98.4464 10.6314C98.4464 9.8182 98.2133 8.9871 97.7183 8.3472C97.2133 7.6938 96.4503 7.2608 95.4643 7.2608V8.2608C96.1254 8.2608 96.6033 8.5387 96.9273 8.9586C97.2623 9.3918 97.4464 9.996 97.4464 10.6314H98.4464ZM95.4643 7.2608C94.2723 7.2608 93.3733 7.7322 92.8043 8.5527C92.2523 9.3471 92.0493 10.4103 92.0903 11.5441L93.0893 11.5084C93.0533 10.4937 93.2423 9.6741 93.6253 9.123C93.9903 8.5979 94.5663 8.2608 95.4643 8.2608V7.2608ZM92.0893 11.5263C92.0893 11.5688 92.0943 11.6088 92.0953 11.6237C92.0983 11.6492 92.0993 11.6536 92.0993 11.6627C92.1003 11.6727 92.0984 11.6549 92.1003 11.6253C92.1023 11.6098 92.1053 11.5755 92.1193 11.5323C92.1323 11.4915 92.1634 11.4122 92.2393 11.3378L92.9393 12.0514C93.0213 11.9716 93.0564 11.8843 93.0723 11.8337C93.0893 11.7808 93.0953 11.7348 93.0973 11.7063C93.1023 11.6507 93.0983 11.6014 93.0963 11.5781C93.0943 11.554 93.0903 11.5235 93.0903 11.5164C93.0883 11.4986 93.0893 11.5082 93.0893 11.5263H92.0893ZM92.0893 11.6946V14.9418H93.0893V11.6946H92.0893ZM92.0893 14.9418C92.0893 14.91 92.1003 14.8787 92.1213 14.8519C92.1443 14.8232 92.1823 14.7968 92.2313 14.7891L92.3883 15.7767C92.8263 15.7071 93.0893 15.3223 93.0893 14.9418H92.0893ZM92.2333 14.7888C92.2503 14.7862 92.2934 14.7884 92.3363 14.824C92.3793 14.8596 92.3993 14.9101 92.3993 14.9507H91.3993C91.3993 15.4897 91.8733 15.8561 92.3863 15.7771L92.2333 14.7888ZM92.3993 14.9507V7.5791H91.3993V14.9507H92.3993ZM92.3993 7.5791C92.3993 7.6108 92.3883 7.641 92.3683 7.6669C92.3463 7.6942 92.3083 7.7228 92.2553 7.7315L92.0933 6.7446C91.6593 6.8157 91.3993 7.2025 91.3993 7.5791H92.3993ZM92.2503 7.7322C92.2343 7.7347 92.1913 7.7325 92.1483 7.697C92.1043 7.6613 92.0854 7.6108 92.0854 7.5703H93.0854C93.0854 7.0313 92.6113 6.6649 92.0983 6.7439L92.2503 7.7322ZM92.0854 7.5703V8.8018H93.0854V7.5703H92.0854ZM93.0193 9.0495C93.5294 8.155 94.4273 7.5874 95.4593 7.5874V6.5874C94.0373 6.5874 92.8233 7.3755 92.1503 8.5541L93.0193 9.0495ZM95.4593 7.5874C96.6243 7.5874 97.5313 8.2998 97.9113 9.3992L98.8563 9.0727C98.3523 7.6116 97.0933 6.5874 95.4593 6.5874V7.5874ZM98.8403 9.4411C99.3413 8.327 100.29 7.5874 101.479 7.5874V6.5874C99.8163 6.5874 98.5553 7.6375 97.9283 9.0308L98.8403 9.4411ZM101.479 7.5874C103.134 7.5874 104.152 8.9785 104.152 10.6314H105.152C105.152 8.6163 103.859 6.5874 101.479 6.5874V7.5874Z" fill="#939393"/>
</g>
<defs>
<clipPath id="clip0_417_2848">
<rect width="105.333" height="16" fill="white" transform="translate(0.666992)"/>
</clipPath>
</defs>
</svg>
