<svg width="63" height="12" viewBox="0 0 63 12" fill="none" xmlns="http://www.w3.org/2000/svg">
<g clip-path="url(#clip0_9427_18837)">
<path d="M8.00877 11.8458C7.70021 11.8458 7.45334 11.5989 7.45334 11.2903C7.45334 10.9818 7.70021 10.7349 8.00877 10.7349C8.3174 10.7349 8.56423 10.9818 8.56423 11.2903C8.56423 11.5989 8.3174 11.8458 8.00877 11.8458ZM8.00877 10.6012C7.6282 10.6012 7.31962 10.9098 7.31962 11.3006C7.31962 11.6812 7.6282 12.0001 8.00877 12.0001C8.3894 12.0001 8.70823 11.6915 8.70823 11.3006C8.69795 10.9098 8.3894 10.6012 8.00877 10.6012ZM10.5391 1.07634H17.4411V2.63982H12.3392V4.91302H15.7335V6.47649H12.3392V9.02745H17.6056V10.5909H10.5494V1.07634H10.5391ZM17.0914 3.82271H18.9222L20.5269 8.544L22.0183 3.82271H23.7978L21.3291 10.5909H19.6834L17.0914 3.82271ZM23.5304 7.22737C23.5304 5.15988 24.9601 3.69927 27.0173 3.69927C29.0539 3.69927 30.4837 5.15988 30.4837 7.22737C30.4837 9.264 29.0231 10.7246 26.9659 10.7246C24.9293 10.7246 23.5304 9.2949 23.5304 7.22737ZM28.6734 7.26852V7.2068C28.6734 5.92105 28.0459 5.13932 27.007 5.13932C25.9579 5.13932 25.3304 5.91076 25.3304 7.2068V7.26852C25.3304 8.53372 25.9476 9.27427 26.9762 9.27427C28.0254 9.27427 28.6734 8.53372 28.6734 7.26852ZM31.2963 0.942627H33.0861V10.5909H31.2963V0.942627ZM34.1044 7.88565V3.82271H35.8839V7.78282C35.8839 8.688 36.3159 9.21255 37.1182 9.21255C38.0542 9.21255 38.4348 8.42055 38.4348 7.25823V3.81242H40.2143V10.5806H38.4348V9.624C38.0748 10.3234 37.4576 10.7143 36.5833 10.7143C35.0507 10.7246 34.1044 9.63427 34.1044 7.88565ZM41.8395 8.8011V5.26275H40.8829V3.83299H41.8395V2.54724L43.5778 1.57007V3.82271H44.915V5.25246H43.5676V8.62627C43.5676 8.95545 43.7218 9.09945 44.0509 9.10972H44.843V10.5909H43.4647C42.1583 10.5292 41.8703 9.92227 41.8395 8.8011ZM45.7173 1.1072H47.5688V2.84553H45.7173V1.1072ZM45.7482 3.82271H47.5379V10.5909H45.7482V3.82271ZM48.3505 7.22737C48.3505 5.15988 49.7802 3.69927 51.8375 3.69927C53.8741 3.69927 55.3038 5.15988 55.3038 7.22737C55.3038 9.264 53.8432 10.7246 51.786 10.7246C49.7597 10.7246 48.3505 9.2949 48.3505 7.22737ZM53.5038 7.26852V7.2068C53.5038 5.92105 52.8763 5.13932 51.8375 5.13932C50.7883 5.13932 50.1609 5.91076 50.1609 7.2068V7.26852C50.1609 8.53372 50.778 9.27427 51.8066 9.27427C52.8558 9.27427 53.5038 8.53372 53.5038 7.26852ZM56.1061 3.82271H57.8857V4.92331C58.2456 4.13129 58.9039 3.6787 59.8605 3.6787C61.3417 3.6787 62.2161 4.66616 62.2161 6.52793V10.5909H60.4365V6.63078C60.4365 5.68447 60.0765 5.20103 59.2434 5.20103C58.3999 5.20103 57.8857 5.89019 57.8857 7.15537V10.6012H56.1061V3.82271ZM7.74135 11.1772H7.63849V11.1052H7.93678V11.1772H7.83393V11.4755H7.74135V11.1772ZM7.96764 11.1155H8.10133L8.16305 11.3521L8.23505 11.1155H8.36878V11.4755H8.2865V11.1875L8.19395 11.4755H8.12195L8.02932 11.1875V11.4755H7.95736V11.1155H7.96764ZM6.87733 5.49933C7.43277 5.5199 8.03967 5.49933 8.70823 5.4479C8.61567 4.10043 8.17333 2.97925 7.51506 2.11523C7.54591 2.35181 7.56648 2.59867 7.56648 2.84553C7.5562 3.81242 7.30934 4.71759 6.87733 5.49933ZM6.64075 5.8902C5.65329 7.37138 3.96639 8.34855 2.05319 8.34855C1.91947 8.34855 1.78575 8.33827 1.65203 8.328C1.1583 9.07882 0.849724 9.912 0.5 10.6938C3.93552 12.5247 8.36877 10.5909 8.70823 5.92105C7.93678 5.86962 7.25791 5.85933 6.64075 5.8902Z" fill="#A7AEBE"/>
<path d="M0.5 0.685392C1.4566 2.83517 2.16634 5.35524 6.87733 5.50953C7.30934 4.71751 7.56648 3.81234 7.56648 2.84546C7.56648 2.59859 7.54591 2.36201 7.51506 2.11515C5.88987 -0.0140567 2.93779 -0.620931 0.5 0.685392Z" fill="#A7AEBE"/>
<path d="M6.64106 5.89014C3.81241 6.03414 2.47523 7.06274 1.65234 8.3382C1.78606 8.34847 1.91978 8.35875 2.0535 8.35875C3.9667 8.34847 5.6536 7.37132 6.64106 5.89014Z" fill="#A7AEBE"/>
</g>
<defs>
<clipPath id="clip0_9427_18837">
<rect width="62.25" height="12" fill="white" transform="translate(0.5)"/>
</clipPath>
</defs>
</svg>
