<svg width="40" height="40" viewBox="0 0 40 40" fill="none" xmlns="http://www.w3.org/2000/svg">
<g clip-path="url(#clip0_417_2861)">
<path d="M20.2852 17.4546V22.8764H27.9735C27.6359 24.6201 26.6228 26.0965 25.1033 27.0892L29.7397 30.6147C32.441 28.1712 33.9994 24.582 33.9994 20.3184C33.9994 19.3257 33.9086 18.371 33.7397 17.4547L20.2852 17.4546Z" fill="#D4D4D4"/>
<path d="M12.2793 22.6646L11.2336 23.449L7.53223 26.2744C9.88288 30.8435 14.7007 33.9999 20.2851 33.9999C24.1422 33.9999 27.3759 32.7526 29.7397 30.6145L25.1033 27.089C23.8305 27.929 22.2071 28.4381 20.2851 28.4381C16.5709 28.4381 13.4151 25.9818 12.2851 22.6726L12.2793 22.6646Z" fill="#D4D4D4"/>
<path d="M7.53236 13.7256C6.55839 15.6092 6 17.7347 6 20.0001C6 22.2655 6.55839 24.391 7.53236 26.2746C7.53236 26.2872 12.2857 22.66 12.2857 22.66C12 21.82 11.8311 20.9292 11.8311 19.9999C11.8311 19.0707 12 18.1799 12.2857 17.3399L7.53236 13.7256Z" fill="#D4D4D4"/>
<path d="M20.2854 11.5746C22.3894 11.5746 24.2595 12.2873 25.753 13.6619L29.8439 9.6528C27.3633 7.38737 24.1426 6 20.2854 6C14.701 6 9.88288 9.14365 7.53223 13.7255L12.2854 17.3401C13.4152 14.0309 16.5711 11.5746 20.2854 11.5746Z" fill="#D4D4D4"/>
</g>
<defs>
<clipPath id="clip0_417_2861">
<rect width="28" height="28" fill="white" transform="translate(6 6)"/>
</clipPath>
</defs>
</svg>
