<svg width="39" height="18" viewBox="0 0 39 18" fill="none" xmlns="http://www.w3.org/2000/svg">
<g clip-path="url(#clip0_9427_18806)">
<path fill-rule="evenodd" clip-rule="evenodd" d="M7.69503 1.79502C11.0388 0.617496 14.5942 0.106202 18.1354 0.00635376C22.4481 -0.0633681 26.8285 0.43157 30.8797 1.94479C32.5841 2.59037 34.2305 3.43477 35.633 4.59422C36.5791 5.38267 37.39 6.36912 37.792 7.53373C38.1132 8.44098 38.0824 9.44203 37.8201 10.3605C37.8718 10.4164 37.9254 10.4724 37.9797 10.5283C38.0518 10.3562 38.1237 10.184 38.2054 10.0153C38.0228 11.0999 37.3276 12.0286 36.5685 12.8051C35.259 14.0944 33.6319 15.0301 31.9364 15.7437C28.8664 17.0107 25.5541 17.6313 22.2454 17.8921C21.8667 17.939 21.4856 17.9438 21.1046 17.9484C20.9612 17.9501 20.8177 17.9519 20.6744 17.9559C20.4609 17.9589 20.2475 17.9682 20.0341 17.9774H20.034C19.5455 17.9984 19.0573 18.0195 18.5699 17.9679C15.6043 17.9274 12.6405 17.5323 9.77942 16.7628C7.90829 16.2404 6.07577 15.5397 4.41792 14.5317C2.98736 13.6296 1.60157 12.5038 0.892432 10.9484C0.373747 9.83024 0.300025 8.49778 0.787992 7.35813C0.783985 7.42987 0.779609 7.5018 0.775223 7.57389C0.737358 8.19632 0.69885 8.82932 0.891555 9.43257C1.35758 11.0956 2.66439 12.373 4.06335 13.3413C5.37367 14.2055 6.79983 14.8958 8.28831 15.4114C11.6611 16.6061 15.2586 17.0753 18.8296 17.1768C20.9184 17.2113 23.009 17.0925 25.0784 16.8128C27.0725 16.5037 29.063 16.0975 30.9569 15.4002C32.3673 14.9208 33.7214 14.2769 34.9747 13.4815C36.1297 12.7267 37.2242 11.8108 37.9069 10.6058L37.7509 10.6432L37.5945 10.6807L37.7814 10.6221L37.9684 10.5636L37.9052 10.4935C37.8463 10.4282 37.7751 10.3492 37.734 10.3028C37.8586 9.27161 37.591 8.21803 37.0565 7.32887C36.4089 6.2202 35.4145 5.35513 34.3595 4.62779C32.6332 3.5088 30.712 2.69882 28.7303 2.12727C26.2273 1.39735 23.6268 1.02894 21.0255 0.862813C20.684 0.858796 20.3426 0.843299 20.0012 0.827803C19.3185 0.796817 18.636 0.765837 17.9538 0.826661C17.1429 0.823164 16.3353 0.886178 15.528 0.949178C15.342 0.963701 15.1559 0.978221 14.9697 0.991927C11.8901 1.3173 8.81402 1.95168 5.97397 3.19117C4.69613 3.76359 3.449 4.43498 2.37038 5.32673C1.47256 6.0756 0.672145 6.97853 0.25 8.07256C0.293004 7.59742 0.504515 7.16015 0.726558 6.74269C1.247 5.7795 2.02635 4.97296 2.90047 4.31017C4.33718 3.20925 5.98977 2.41047 7.69503 1.79502ZM4.28488 5.24504C4.65876 5.18221 5.03965 5.19339 5.41616 5.21491C5.83575 5.23815 6.2561 5.23404 6.67641 5.22995H6.67643H6.67645C7.03504 5.22646 7.39358 5.22296 7.75156 5.23644V5.36124C7.69317 5.37252 7.63018 5.38099 7.56564 5.38967C7.27031 5.4294 6.94266 5.47346 6.87568 5.8097C6.65089 6.64345 6.46099 7.48623 6.27108 8.32905V8.32906V8.32907C6.14514 8.88802 6.0192 9.44699 5.88307 10.0033C5.86074 10.1358 5.82676 10.2681 5.79273 10.4007C5.71574 10.7007 5.63839 11.002 5.69437 11.31C5.81822 11.4267 5.98815 11.4354 6.15615 11.444C6.23577 11.448 6.31494 11.4521 6.38859 11.4675C6.30345 11.5881 6.18146 11.6853 6.02173 11.6577L5.5873 11.6587C4.68577 11.6612 3.78377 11.6636 2.88241 11.6301L2.88318 11.6207V11.6206C2.88686 11.5746 2.89312 11.4964 2.89558 11.4563C2.96398 11.4448 3.03879 11.4405 3.11504 11.436H3.11508C3.3431 11.4226 3.58419 11.4084 3.70651 11.2032C3.8228 10.9623 3.87872 10.7011 3.93454 10.4404C3.95749 10.3332 3.98043 10.226 4.00755 10.1204C4.14367 9.5559 4.27204 8.98965 4.40039 8.42346V8.42345C4.55836 7.7266 4.71631 7.02984 4.88869 6.33649C4.89647 6.29835 4.90496 6.25979 4.91349 6.22095C4.96471 5.9881 5.0182 5.74487 4.93696 5.51619C4.81104 5.41172 4.64829 5.39903 4.48932 5.38662H4.48931H4.4893H4.48929C4.43999 5.38278 4.39104 5.37896 4.34368 5.37244C4.32964 5.34059 4.29979 5.27689 4.28488 5.24504ZM32.0079 5.3765C31.5735 5.09159 30.9873 5.27493 30.6344 5.60375C30.1227 6.07975 29.8534 6.74253 29.6357 7.38638C29.3706 7.38466 29.1056 7.38466 28.8415 7.39585C28.8468 7.47935 28.8545 7.5637 28.8669 7.6472C29.0349 7.6602 29.2029 7.65717 29.3713 7.65412C29.4369 7.65293 29.5024 7.65174 29.5681 7.6515C29.4728 8.00661 29.3778 8.36179 29.2827 8.71696V8.71707V8.71719L29.2826 8.7173V8.71741V8.71752L29.2825 8.71764C28.8866 10.1977 28.4905 11.6777 28.0779 13.1526C28.0351 13.3707 27.8876 13.5277 27.7404 13.6843C27.6855 13.7428 27.6305 13.8012 27.5811 13.8628C28.1788 13.8852 28.7774 13.8791 29.3751 13.8645C29.9262 11.8185 30.3361 9.73971 30.6986 7.65494C30.9732 7.65064 31.2479 7.65322 31.5226 7.65838C31.528 7.61623 31.5332 7.57407 31.5383 7.53202V7.53184L31.5384 7.53167C31.5442 7.48452 31.5499 7.43749 31.556 7.39069C31.3618 7.38822 31.1681 7.38797 30.9744 7.38771H30.9743H30.9742H30.9741L30.7416 7.38725C30.7658 7.2718 30.7885 7.15562 30.8111 7.03926C30.9001 6.583 30.9896 6.12416 31.1777 5.69756C31.2654 5.48409 31.4937 5.42901 31.7087 5.43847C31.4892 5.71651 31.255 6.06511 31.3988 6.43179C31.4603 6.74081 31.8675 6.96547 32.1387 6.74684C32.5495 6.39565 32.474 5.65281 32.0079 5.3765ZM32.9461 5.31476L33.2058 5.31395C33.5695 5.31259 33.9332 5.31121 34.2968 5.32164C34.185 5.81707 34.0599 6.30897 33.9348 6.8008V6.80084V6.80087V6.80089V6.80093V6.80096C33.8849 6.99698 33.835 7.19298 33.786 7.3892H33.7871C34.0053 7.39007 34.2252 7.39093 34.4442 7.39609C34.4355 7.48216 34.4266 7.5691 34.4187 7.65517C34.187 7.65517 33.9562 7.65518 33.7254 7.65432C33.5909 8.21347 33.4514 8.77134 33.3119 9.32919V9.32928V9.32936V9.32944V9.32952V9.32961C33.1948 9.79784 33.0778 10.2661 32.9637 10.735C32.9595 10.7644 32.954 10.7954 32.9483 10.8274C32.9166 11.0062 32.8797 11.2147 33.0479 11.3315C33.4077 11.1564 33.5407 10.8023 33.6745 10.4465C33.7636 10.2095 33.853 9.97173 34.0098 9.78557C34.0128 10.0859 33.8924 10.3615 33.7739 10.6328L33.7738 10.6329V10.633C33.7524 10.682 33.731 10.7309 33.7105 10.7797C33.5341 11.1688 33.2673 11.5665 32.8382 11.7111C32.502 11.805 32.0781 11.773 31.8551 11.4761C31.5813 11.112 31.6349 10.6257 31.7306 10.2099C31.9085 9.44882 32.1018 8.69046 32.2949 7.933L32.3642 7.6612C32.3056 7.65996 32.247 7.65965 32.1884 7.65934C32.0441 7.65857 31.8998 7.65782 31.7568 7.64313C31.6936 7.56651 31.6998 7.48732 31.7736 7.40641C31.9313 7.38168 32.0916 7.38312 32.2516 7.38456C32.3088 7.38506 32.3659 7.38558 32.423 7.38489C32.5094 7.06397 32.5877 6.74116 32.6658 6.41839V6.41826C32.7551 6.04941 32.8445 5.68061 32.9461 5.31476ZM9.79819 7.37109C9.44537 7.14126 8.99603 7.29792 8.66165 7.4847C7.7331 8.05539 7.27234 9.17094 7.29867 10.2185C7.29779 10.7186 7.42418 11.2807 7.85071 11.5992C8.08767 11.7945 8.44399 11.7919 8.70816 11.6516C8.95386 11.5364 9.11932 11.3294 9.28413 11.1232C9.36187 11.0259 9.43946 10.9289 9.52524 10.8417C9.5037 10.9375 9.48258 11.0339 9.4614 11.1306C9.28922 11.9166 9.11256 12.723 8.66867 13.4059C8.46594 13.7493 7.97445 13.7235 7.72695 13.4446C8.25266 13.4128 8.51859 12.806 8.27812 12.3765C8.15262 12.0434 7.67781 11.9632 7.42242 12.2008C7.13982 12.4805 7.14947 12.935 7.30744 13.2733C7.51807 13.6934 8.02097 13.8794 8.47647 13.8621C9.25581 13.8983 10.0194 13.4334 10.3458 12.7396C10.5606 12.2708 10.6894 11.7692 10.8173 11.2708C10.8374 11.1928 10.8574 11.1148 10.8777 11.0371C10.9994 10.5025 11.1373 9.97174 11.2751 9.44108C11.4545 8.75063 11.6339 8.06041 11.7773 7.36248C11.5724 7.3698 11.3674 7.36764 11.1624 7.36549H11.1624H11.1624H11.1624H11.1623C10.9088 7.36282 10.6553 7.36017 10.402 7.37539C10.3525 7.50932 10.3169 7.64719 10.2813 7.78522C10.2569 7.87962 10.2325 7.9741 10.2037 8.06744C10.1833 8.01727 10.1647 7.96484 10.146 7.9119L10.1459 7.91189C10.0727 7.70506 9.99664 7.49033 9.79819 7.37109ZM9.03958 9.42244V9.4224L9.0396 9.42232C9.14928 8.98131 9.25899 8.54024 9.37956 8.10188C9.42958 7.88754 9.56912 7.71281 9.72008 7.55529C10.0583 7.83951 10.0197 8.31419 9.98738 8.7105V8.71052L9.98425 8.74917C9.87806 9.57378 9.59106 10.3915 9.1031 11.0758C9.00831 11.2049 8.77662 11.4528 8.64585 11.235C8.62645 11.0477 8.67289 10.8644 8.71877 10.6832L8.71878 10.6832C8.72897 10.643 8.73912 10.6028 8.74854 10.5628C8.85018 10.184 8.94486 9.80327 9.03956 9.42253L9.03958 9.42244ZM12.9618 7.3194C13.3164 7.12916 13.7885 7.36243 13.9026 7.72825C14.0133 8.01126 13.9895 8.31125 13.9658 8.6082C13.958 8.70683 13.9502 8.80512 13.9474 8.90234C14.0538 8.72218 14.1299 8.52579 14.2058 8.32947V8.32946V8.32944C14.3214 8.03052 14.4371 7.73175 14.66 7.49069C14.8435 7.31853 15.1384 7.17392 15.3823 7.31853C15.7826 7.51651 15.8071 8.02952 15.7606 8.41256C15.7255 8.71985 15.514 9.10806 15.148 9.07535C14.9233 9.09343 14.7619 8.89717 14.6793 8.71556C14.6079 8.52465 14.6116 8.32188 14.6154 8.12034C14.617 8.03472 14.6186 7.94931 14.6144 7.86512C14.0574 8.8598 13.7766 9.96821 13.4985 11.0657C13.4493 11.2599 13.4002 11.4536 13.3498 11.6465C12.8837 11.6628 12.415 11.6757 11.9508 11.6318C12.0772 11.1425 12.1966 10.6517 12.316 10.161V10.1608C12.4602 9.56825 12.6044 8.97578 12.7609 8.38587C12.7697 8.34401 12.7806 8.30136 12.7916 8.25829C12.8399 8.07024 12.8901 7.87408 12.7766 7.69899C12.4547 7.94441 12.3191 8.31941 12.1845 8.69208C12.1179 8.87621 12.0515 9.05976 11.9631 9.22684C11.8704 8.99236 11.9676 8.76494 12.0611 8.54587C12.0854 8.4891 12.1094 8.4329 12.1299 8.37727C12.3088 7.96841 12.5142 7.50274 12.9618 7.3194ZM19.605 8.06834C19.2627 7.5097 18.5756 7.20241 17.9209 7.27127C17.3724 7.32636 16.8475 7.58631 16.4886 7.99861C15.8619 8.67346 15.6785 9.68571 15.9602 10.5473C16.1436 11.0827 16.5877 11.545 17.1539 11.6862C17.927 11.9073 18.7906 11.5794 19.2865 10.9751C19.9877 10.1996 20.1948 8.96008 19.605 8.06834ZM17.8089 8.18938C17.8713 7.94701 17.9365 7.69453 18.1332 7.52519C18.4351 7.35649 18.7336 7.67755 18.6379 7.97193C18.538 8.49117 18.4091 9.00425 18.2803 9.5173V9.51732V9.51734L18.2802 9.51741C18.1782 9.9237 18.0761 10.33 17.9885 10.7393C17.9737 10.7892 17.9605 10.8415 17.9471 10.8947C17.8867 11.1329 17.8223 11.3877 17.6005 11.52L17.5708 11.5228C17.4519 11.5345 17.3034 11.5491 17.2267 11.446C17.0702 11.2965 17.1156 11.0764 17.1548 10.8863C17.1587 10.8674 17.1625 10.8488 17.1661 10.8305C17.2509 10.4693 17.3404 10.1092 17.43 9.74916V9.74909C17.5471 9.27774 17.6643 8.80641 17.7708 8.33259C17.7841 8.28576 17.7964 8.23779 17.8089 8.18943V8.18941V8.18938ZM20.8997 7.93131C21.4974 7.15921 22.7813 7.05763 23.544 7.64381C23.9355 7.93475 24.1057 8.6707 23.6046 8.93582C23.1332 9.13121 22.6392 8.59668 22.8077 8.14048C22.8324 7.89472 23.0848 7.82151 23.2927 7.76124V7.76123C23.3141 7.75501 23.3351 7.74892 23.3553 7.7428C23.0745 7.51814 22.6971 7.44411 22.3434 7.49232C22.0696 7.53707 21.8573 7.79186 21.8686 8.06472C21.8371 8.40042 22.109 8.65865 22.3689 8.82908C22.4478 8.88086 22.5298 8.93079 22.6123 8.98101C22.9397 9.18046 23.2749 9.3846 23.4572 9.72772C23.7968 10.3681 23.4633 11.2117 22.8243 11.5345C22.2021 11.8434 21.3886 11.8486 20.7978 11.4674C20.3784 11.2057 20.1036 10.6238 20.3625 10.1702C20.5083 9.88093 20.9033 9.89471 21.1603 10.0118C21.515 10.2252 21.5518 10.7692 21.2631 11.0499C21.1713 11.1273 21.0525 11.149 20.9347 11.1705C20.8743 11.1815 20.8144 11.1924 20.7584 11.2108C21.1139 11.5147 21.6167 11.6008 22.0687 11.5051C22.5093 11.3804 22.5698 10.7494 22.2635 10.4654C22.0755 10.2787 21.844 10.1453 21.6127 10.0121C21.3257 9.84676 21.0392 9.68168 20.8365 9.41526C20.4986 8.98403 20.5767 8.34877 20.8997 7.93131ZM27.6644 7.74708C27.23 7.32616 26.5647 7.19016 25.9802 7.32702C25.0868 7.53102 24.4049 8.32378 24.2372 9.19315C24.1064 9.89899 24.21 10.7038 24.7296 11.2444C25.1649 11.7169 25.8748 11.8503 26.4884 11.6997C27.4143 11.4604 28.0787 10.5996 28.2393 9.6967C28.3691 9.00896 28.1883 8.24115 27.6644 7.74708ZM26.1787 8.08954C26.2349 7.88496 26.296 7.66213 26.4822 7.53533C26.5694 7.49087 26.6663 7.5045 26.7627 7.51805C26.8099 7.52469 26.8569 7.5313 26.9026 7.53102C26.9055 7.54236 26.9083 7.55373 26.9112 7.56512C26.9581 7.75093 27.0069 7.94377 26.9465 8.13356C26.9283 8.20825 26.9102 8.28294 26.892 8.35763C26.7038 9.13155 26.5156 9.90512 26.3435 10.6823C26.3329 10.7228 26.3226 10.7639 26.3124 10.8053C26.2574 11.0288 26.2005 11.2597 26.0443 11.4354C25.9099 11.5938 25.6195 11.5784 25.5186 11.3924C25.4342 11.2253 25.473 11.0349 25.5087 10.8596C25.5105 10.8507 25.5124 10.8418 25.5142 10.8329C25.6228 10.371 25.7356 9.90997 25.8483 9.44893C25.9552 9.01219 26.062 8.57544 26.1654 8.13786C26.1699 8.1219 26.1742 8.10578 26.1787 8.08954Z" fill="#A7AEBE"/>
</g>
<defs>
<clipPath id="clip0_9427_18806">
<rect width="38.25" height="18" fill="white" transform="translate(0.25)"/>
</clipPath>
</defs>
</svg>
