<svg width="76" height="16" viewBox="0 0 76 16" fill="none" xmlns="http://www.w3.org/2000/svg">
<g clip-path="url(#clip0_417_2851)">
<path d="M20.959 13.8445C20.8375 13.8445 20.7381 13.8049 20.6608 13.7258C20.5835 13.6466 20.5449 13.5448 20.5449 13.4204V2.22465C20.5449 2.10025 20.5835 1.99848 20.6608 1.91931C20.7381 1.84015 20.8375 1.80056 20.959 1.80056H22.582C22.6924 1.80056 22.7863 1.84015 22.8636 1.91931C22.9409 1.99848 22.9795 2.10025 22.9795 2.22465V7.95826L25.53 5.31195C25.6183 5.23283 25.6956 5.16494 25.7619 5.10842C25.8392 5.05185 25.9551 5.02361 26.1097 5.02361H27.9812C28.0916 5.02361 28.1799 5.06317 28.2461 5.14234C28.3124 5.21018 28.3455 5.29499 28.3455 5.3968C28.3455 5.44204 28.3345 5.49292 28.3124 5.54945C28.2903 5.60601 28.2517 5.65122 28.1965 5.68518L25 8.97605L28.6105 13.1999C28.7099 13.2904 28.7596 13.3808 28.7596 13.4713C28.7596 13.5731 28.7209 13.6636 28.6437 13.7427C28.5774 13.8106 28.4946 13.8445 28.3952 13.8445H26.4741C26.3084 13.8445 26.187 13.8162 26.1097 13.7597C26.0434 13.7031 25.9662 13.6353 25.8778 13.5561L22.9795 10.2313V13.4204C22.9795 13.5448 22.9409 13.6466 22.8636 13.7258C22.7863 13.8049 22.6924 13.8445 22.582 13.8445H20.959ZM32.9892 13.8445C32.8235 13.8445 32.6966 13.8049 32.6083 13.7258C32.531 13.6353 32.4647 13.5335 32.4095 13.4204L29.2959 5.54945C29.2738 5.5042 29.2628 5.45332 29.2628 5.3968C29.2628 5.29499 29.2959 5.21018 29.3621 5.14234C29.4394 5.06317 29.5278 5.02361 29.6271 5.02361H31.2336C31.3771 5.02361 31.482 5.06317 31.5483 5.14234C31.6256 5.2215 31.6753 5.29499 31.6974 5.36287L33.7344 10.9607L35.7716 5.36287C35.8047 5.29499 35.8544 5.2215 35.9206 5.14234C35.9979 5.06317 36.1028 5.02361 36.2353 5.02361H37.8418C37.9412 5.02361 38.024 5.06317 38.0902 5.14234C38.1675 5.21018 38.2062 5.29499 38.2062 5.3968C38.2062 5.45332 38.2006 5.5042 38.1896 5.54945L35.0594 13.4204C35.0152 13.5335 34.949 13.6353 34.8607 13.7258C34.7723 13.8049 34.6454 13.8445 34.4798 13.8445H32.9892ZM40.0111 13.8445C39.9006 13.8445 39.8069 13.8049 39.7295 13.7258C39.6522 13.6466 39.6135 13.5448 39.6135 13.4204V5.44768C39.6135 5.32327 39.6522 5.2215 39.7295 5.14234C39.8069 5.06317 39.9006 5.02361 40.0111 5.02361H41.6671C41.7886 5.02361 41.8882 5.06317 41.9655 5.14234C42.0428 5.2215 42.0815 5.32327 42.0815 5.44768V13.4204C42.0815 13.5448 42.0428 13.6466 41.9655 13.7258C41.8882 13.8049 41.7886 13.8445 41.6671 13.8445H40.0111ZM39.9615 3.66652C39.851 3.66652 39.7573 3.62695 39.6799 3.54779C39.6026 3.46862 39.5639 3.36685 39.5639 3.24245V1.88539C39.5639 1.76099 39.6026 1.6592 39.6799 1.58004C39.7573 1.48957 39.851 1.44434 39.9615 1.44434H41.7003C41.8218 1.44434 41.9214 1.48957 41.9987 1.58004C42.087 1.6592 42.1311 1.76099 42.1311 1.88539V3.24245C42.1311 3.36685 42.087 3.46862 41.9987 3.54779C41.9214 3.62695 41.8218 3.66652 41.7003 3.66652H39.9615ZM48.2988 13.8445C47.6142 13.8445 47.0291 13.7314 46.5433 13.5052C46.0574 13.2678 45.6875 12.9059 45.4337 12.4196C45.1907 11.9333 45.0693 11.3226 45.0693 10.5876V7.02527H43.7777C43.6562 7.02527 43.5566 6.98567 43.4793 6.9065C43.402 6.82734 43.3633 6.72557 43.3633 6.60116V5.44768C43.3633 5.32327 43.402 5.2215 43.4793 5.14234C43.5566 5.06317 43.6562 5.02361 43.7777 5.02361H45.0693V2.22465C45.0693 2.10025 45.1079 1.99848 45.1853 1.91931C45.2735 1.84015 45.3731 1.80056 45.4833 1.80056H47.1064C47.2279 1.80056 47.3271 1.84015 47.4044 1.91931C47.4818 1.99848 47.5204 2.10025 47.5204 2.22465V5.02361H49.5908C49.7009 5.02361 49.7951 5.06317 49.8724 5.14234C49.9497 5.2215 49.9884 5.32327 49.9884 5.44768V6.60116C49.9884 6.72557 49.9497 6.82734 49.8724 6.9065C49.7951 6.98567 49.7009 7.02527 49.5908 7.02527H47.5204V10.384C47.5204 10.8137 47.5923 11.153 47.7356 11.4018C47.8903 11.6393 48.1555 11.758 48.5308 11.758H49.7396C49.8501 11.758 49.9439 11.7976 50.0212 11.8768C50.0985 11.9559 50.1372 12.0521 50.1372 12.1652V13.4204C50.1372 13.5448 50.0985 13.6466 50.0212 13.7258C49.9439 13.8049 49.8501 13.8445 49.7396 13.8445H48.2988ZM54.7454 14.0142C54.1049 14.0142 53.5366 13.8671 53.0394 13.5731C52.5536 13.2678 52.1728 12.8324 51.8967 12.2669C51.6319 11.6902 51.4995 10.9947 51.4995 10.1805V5.44768C51.4995 5.32327 51.5381 5.2215 51.6151 5.14234C51.6924 5.06317 51.7865 5.02361 51.8967 5.02361H53.6522C53.7737 5.02361 53.8733 5.06317 53.9506 5.14234C54.0279 5.2215 54.0662 5.32327 54.0662 5.44768V10.0786C54.0662 11.3453 54.6075 11.9785 55.6894 11.9785C56.2084 11.9785 56.617 11.8146 56.915 11.4866C57.2243 11.1474 57.379 10.678 57.379 10.0786V5.44768C57.379 5.32327 57.4172 5.2215 57.4946 5.14234C57.5719 5.06317 57.6715 5.02361 57.7929 5.02361H59.5485C59.6586 5.02361 59.7528 5.06317 59.8301 5.14234C59.907 5.2215 59.9457 5.32327 59.9457 5.44768V13.4204C59.9457 13.5448 59.907 13.6466 59.8301 13.7258C59.7528 13.8049 59.6586 13.8445 59.5485 13.8445H57.9253C57.8039 13.8445 57.7043 13.8049 57.6273 13.7258C57.55 13.6466 57.5114 13.5448 57.5114 13.4204V12.7589C57.2243 13.166 56.8544 13.477 56.4018 13.6919C55.9491 13.9067 55.3969 14.0142 54.7454 14.0142ZM62.4277 13.8445C62.3172 13.8445 62.2235 13.8049 62.1461 13.7258C62.0688 13.6466 62.0301 13.5448 62.0301 13.4204V5.44768C62.0301 5.32327 62.0688 5.2215 62.1461 5.14234C62.2235 5.06317 62.3172 5.02361 62.4277 5.02361H63.9681C64.0786 5.02361 64.1723 5.06317 64.2497 5.14234C64.3379 5.2215 64.3821 5.32327 64.3821 5.44768V6.02444C64.6027 5.70778 64.9066 5.43636 65.2929 5.21018C65.6905 4.98401 66.1595 4.86528 66.7008 4.85396C67.9815 4.83136 68.8595 5.32895 69.334 6.34674C69.5879 5.90567 69.9522 5.54945 70.4272 5.27803C70.913 4.99533 71.443 4.85396 72.0171 4.85396C72.5913 4.85396 73.1103 4.98965 73.5739 5.26107C74.0375 5.52117 74.4019 5.92831 74.6671 6.48243C74.9428 7.02527 75.0811 7.7264 75.0811 8.5859V13.4204C75.0811 13.5448 75.0424 13.6466 74.9651 13.7258C74.8878 13.8049 74.794 13.8445 74.6835 13.8445H73.0439C72.9334 13.8445 72.8397 13.8049 72.7623 13.7258C72.685 13.6466 72.6463 13.5448 72.6463 13.4204V8.72159C72.6463 8.25792 72.5803 7.89605 72.4475 7.63595C72.3151 7.36454 72.1386 7.17228 71.9175 7.05919C71.7078 6.94611 71.4704 6.88954 71.2056 6.88954C70.9736 6.88954 70.7474 6.94611 70.5264 7.05919C70.3166 7.17228 70.1401 7.36454 69.9964 7.63595C69.864 7.89605 69.798 8.25792 69.798 8.72159V13.4204C69.798 13.5448 69.7593 13.6466 69.682 13.7258C69.6046 13.8049 69.5051 13.8445 69.3836 13.8445H67.7608C67.6394 13.8445 67.5398 13.8049 67.4624 13.7258C67.3851 13.6466 67.3468 13.5448 67.3468 13.4204V8.72159C67.3468 8.25792 67.2804 7.89605 67.148 7.63595C67.0152 7.36454 66.8387 7.17228 66.618 7.05919C66.4083 6.94611 66.1763 6.88954 65.9225 6.88954C65.6905 6.88954 65.4639 6.95175 65.2433 7.07616C65.0226 7.18924 64.8402 7.37586 64.6969 7.63595C64.5641 7.89605 64.4981 8.25228 64.4981 8.70463V13.4204C64.4981 13.5448 64.4594 13.6466 64.3821 13.7258C64.3048 13.8049 64.211 13.8445 64.1005 13.8445H62.4277Z" fill="#939393"/>
<path fill-rule="evenodd" clip-rule="evenodd" d="M0.782681 3.18931C0.0909457 3.18931 -0.259422 4.04225 0.224257 4.54876L3.18373 7.64794C3.1863 7.65066 3.1863 7.65494 3.18373 7.65766C3.17952 7.66206 3.18257 7.66946 3.18858 7.66946H5.08015C5.77359 7.66946 6.12318 6.81296 5.63611 6.30745L2.86111 3.42736C2.71434 3.27503 2.5141 3.18931 2.30514 3.18931H0.782681ZM3.08429 2.40053C3.08429 2.61091 3.16518 2.8128 3.30944 2.96253L6.12134 5.88086C6.61189 6.39001 7.45843 6.03423 7.45843 5.3189V3.74631C7.45843 3.53717 7.37848 3.33636 7.23573 3.18687L4.42385 0.242243C3.93432 -0.27038 3.08429 0.0846044 3.08429 0.801663V2.40053Z" fill="#939393"/>
<path fill-rule="evenodd" clip-rule="evenodd" d="M0.782679 12.8108C0.0909439 12.8108 -0.259422 11.9578 0.224258 11.4513L3.1837 8.35213C3.18628 8.34941 3.18628 8.34509 3.1837 8.34241C3.17949 8.33801 3.18254 8.33057 3.18856 8.33057H5.08013C5.77357 8.33057 6.1232 9.18711 5.63613 9.69262L2.8611 12.5727C2.71432 12.725 2.51408 12.8108 2.30513 12.8108H0.782679ZM3.08427 13.5995C3.08427 13.3892 3.16516 13.1873 3.30942 13.0375L6.12132 10.1192C6.61186 9.61006 7.4584 9.96584 7.4584 10.6812V12.2538C7.4584 12.4629 7.37846 12.6637 7.23571 12.8132L4.42383 15.7578C3.9343 16.2704 3.08427 15.9154 3.08427 15.1984V13.5995Z" fill="#939393"/>
<path fill-rule="evenodd" clip-rule="evenodd" d="M14.8398 3.18935C15.5315 3.18935 15.8819 4.04229 15.3982 4.5488L12.4387 7.64798C12.4362 7.6507 12.4362 7.65498 12.4387 7.6577C12.443 7.6621 12.4399 7.6695 12.4339 7.6695H10.5423C9.8489 7.6695 9.49927 6.813 9.98634 6.30749L12.7614 3.4274C12.9082 3.27507 13.1084 3.18935 13.3173 3.18935H14.8398ZM12.5382 2.40057C12.5382 2.61091 12.4573 2.8128 12.3131 2.96253L9.50114 5.8809C9.0106 6.39001 8.16406 6.03423 8.16406 5.3189V3.74631C8.16406 3.53717 8.24401 3.33636 8.38676 3.18687L11.1987 0.242244C11.6882 -0.270381 12.5382 0.0846044 12.5382 0.801663V2.40057Z" fill="#939393"/>
<path fill-rule="evenodd" clip-rule="evenodd" d="M14.8398 12.8108C15.5315 12.8108 15.8819 11.9578 15.3982 11.4513L12.4387 8.35213C12.4362 8.34941 12.4362 8.34509 12.4387 8.34241C12.443 8.33801 12.4399 8.33057 12.4339 8.33057H10.5423C9.8489 8.33057 9.49927 9.18711 9.98634 9.69262L12.7613 12.5727C12.9081 12.725 13.1084 12.8108 13.3173 12.8108H14.8398ZM12.5382 13.5995C12.5382 13.3892 12.4573 13.1873 12.3131 13.0375L9.50114 10.1192C9.0106 9.61006 8.16406 9.96584 8.16406 10.6812V12.2538C8.16406 12.4629 8.24401 12.6637 8.38676 12.8132L11.1987 15.7578C11.6882 16.2705 12.5382 15.9155 12.5382 15.1984V13.5995Z" fill="#939393"/>
</g>
<defs>
<clipPath id="clip0_417_2851">
<rect width="75.3333" height="16" fill="white"/>
</clipPath>
</defs>
</svg>
