<svg width="51" height="16" viewBox="0 0 51 16" fill="none" xmlns="http://www.w3.org/2000/svg">
<g clip-path="url(#clip0_417_2847)">
<path fill-rule="evenodd" clip-rule="evenodd" d="M14.8228 13.0807V5.73817C14.8228 3.65533 13.7422 2.6665 11.9276 2.6665C10.4188 2.6665 9.11388 3.59221 8.54299 4.51792C8.17599 3.36078 7.25848 2.6665 5.81087 2.6665C4.30208 2.6665 2.99718 3.63429 2.5894 4.24441V2.91897H0V13.0807H2.5894V6.2431C2.97679 5.67505 3.73119 5.04389 4.6283 5.04389C5.68853 5.04389 6.09631 5.71713 6.09631 6.66387V13.0807H8.7061V6.22206C9.07311 5.67505 9.8275 5.04389 10.745 5.04389C11.8052 5.04389 12.213 5.71713 12.213 6.66387V13.0807H14.8228ZM21.9386 13.3332C18.6967 13.3332 16.7394 10.8927 16.7394 7.98932C16.7394 5.107 18.6967 2.6665 21.9386 2.6665C25.2008 2.6665 27.1581 5.107 27.1581 7.98932C27.1581 10.8927 25.2008 13.3332 21.9386 13.3332ZM21.9386 10.9558C23.5493 10.9558 24.4668 9.58827 24.4668 7.98932C24.4668 6.41141 23.5493 5.04389 21.9386 5.04389C20.3278 5.04389 19.4307 6.41141 19.4307 7.98932C19.4307 9.58827 20.3278 10.9558 21.9386 10.9558ZM38.3109 13.0807V5.90648C38.3109 3.92883 37.2711 2.6665 35.1099 2.6665C33.4991 2.6665 32.2962 3.46598 31.6641 4.24441V2.91897H29.0747V13.0807H31.6641V6.2431C32.0923 5.63297 32.8875 5.04389 33.9069 5.04389C35.0079 5.04389 35.7215 5.52778 35.7215 6.93738V13.0807H38.3109ZM45.4471 13.3332C42.2052 13.3332 40.2479 10.8927 40.2479 7.98932C40.2479 5.107 42.2052 2.6665 45.4471 2.6665C48.7093 2.6665 50.6667 5.107 50.6667 7.98932C50.6667 10.8927 48.7093 13.3332 45.4471 13.3332ZM45.4471 10.9558C47.0578 10.9558 47.9753 9.58827 47.9753 7.98932C47.9753 6.41141 47.0578 5.04389 45.4471 5.04389C43.8363 5.04389 42.9392 6.41141 42.9392 7.98932C42.9392 9.58827 43.8363 10.9558 45.4471 10.9558Z" fill="#939393"/>
</g>
<defs>
<clipPath id="clip0_417_2847">
<rect width="50.6667" height="16" fill="white"/>
</clipPath>
</defs>
</svg>
