<svg width="45" height="10" viewBox="0 0 45 10" fill="none" xmlns="http://www.w3.org/2000/svg">
<path fill-rule="evenodd" clip-rule="evenodd" d="M13.6012 9.28698V3.09172C13.6012 1.33432 12.6734 0.5 11.1154 0.5C9.82007 0.5 8.69975 1.28107 8.20961 2.06213C7.89452 1.0858 7.10679 0.5 5.86393 0.5C4.56856 0.5 3.44824 1.31657 3.09814 1.83136V0.713018H0.875V9.28698H3.09814V3.51775C3.43073 3.03846 4.07842 2.50592 4.84864 2.50592C5.7589 2.50592 6.109 3.07397 6.109 3.87278V9.28698H8.34965V3.5C8.66474 3.03846 9.31242 2.50592 10.1002 2.50592C11.0104 2.50592 11.3605 3.07397 11.3605 3.87278V9.28698H13.6012ZM19.7104 9.5C16.9271 9.5 15.2466 7.44083 15.2466 4.99113C15.2466 2.55917 16.9271 0.5 19.7104 0.5C22.5112 0.5 24.1917 2.55917 24.1917 4.99113C24.1917 7.44083 22.5112 9.5 19.7104 9.5ZM19.7104 7.49408C21.0933 7.49408 21.881 6.34024 21.881 4.99113C21.881 3.65976 21.0933 2.50592 19.7104 2.50592C18.3275 2.50592 17.5573 3.65976 17.5573 4.99113C17.5573 6.34024 18.3275 7.49408 19.7104 7.49408ZM33.767 9.28698V3.23373C33.767 1.56509 32.8742 0.5 31.0187 0.5C29.6358 0.5 28.603 1.17456 28.0603 1.83136V0.713018H25.8372V9.28698H28.0603V3.51775C28.4279 3.00296 29.1106 2.50592 29.9859 2.50592C30.9311 2.50592 31.5438 2.9142 31.5438 4.10355V9.28698H33.767ZM39.8937 9.5C37.1104 9.5 35.4299 7.44083 35.4299 4.99113C35.4299 2.55917 37.1104 0.5 39.8937 0.5C42.6945 0.5 44.375 2.55917 44.375 4.99113C44.375 7.44083 42.6945 9.5 39.8937 9.5ZM39.8937 7.49408C41.2766 7.49408 42.0643 6.34024 42.0643 4.99113C42.0643 3.65976 41.2766 2.50592 39.8937 2.50592C38.5108 2.50592 37.7406 3.65976 37.7406 4.99113C37.7406 6.34024 38.5108 7.49408 39.8937 7.49408Z" fill="#A7AEBE"/>
</svg>
