<svg width="44" height="16" viewBox="0 0 44 16" fill="none" xmlns="http://www.w3.org/2000/svg">
<g id="7729a3b605337a006fdceae7e2bacf268893a2fb 1" clip-path="url(#clip0_9427_18809)">
<path id="Vector" d="M22.4831 0.502476C22.6312 0.501651 22.7802 0.500825 22.9301 0.5C22.9309 1.46071 22.9292 2.4206 22.9301 3.38131C24.7683 3.38296 26.6066 3.38049 28.4447 3.38214C28.4456 3.96897 28.4447 4.55497 28.4456 5.1418C27.0286 5.14427 25.6117 5.14097 24.1955 5.14262C24.1947 5.793 24.1938 6.44338 24.1955 7.09376C25.4061 7.09623 26.6165 7.09046 27.827 7.09707C27.8295 7.68223 27.8279 8.26741 27.8279 8.85259C26.6207 8.85837 25.4135 8.86085 24.2063 8.85177C24.1814 9.52278 24.198 10.1946 24.1972 10.8657C25.6134 10.8657 27.0286 10.8657 28.4447 10.8657C28.4456 11.4508 28.4456 12.036 28.4447 12.6211C26.6066 12.6228 24.7692 12.6211 22.9309 12.622C22.9285 13.581 22.9309 14.5409 22.9292 15.5C22.7802 15.4992 22.6312 15.4983 22.4831 15.4983C22.4822 10.5 22.4822 5.50082 22.4831 0.502476Z" fill="#A7AEBE"/>
<path id="Vector_2" d="M29.369 3.39539C29.9277 3.39539 30.4863 3.39291 31.0458 3.39704C32.2471 5.27886 33.4676 7.14828 34.6282 9.05568C34.6339 7.16974 34.6273 5.28298 34.6315 3.39704C35.2533 3.39374 35.8753 3.39456 36.4972 3.39621C36.4989 6.47645 36.4972 9.55667 36.4989 12.6377C35.9377 12.6418 35.3774 12.6377 34.8171 12.6402C33.6008 10.7642 32.4095 8.87244 31.2197 6.97991C31.2139 8.86667 31.2198 10.7526 31.2173 12.6394C30.6003 12.6385 29.9843 12.641 29.3682 12.6385C29.369 9.55749 29.3674 6.47644 29.369 3.39539Z" fill="#A7AEBE"/>
<path id="Vector_3" d="M37.2548 3.39523C39.2903 3.39358 41.3258 3.39606 43.3614 3.39441C43.3647 3.98536 43.363 4.57632 43.3622 5.16727C42.6595 5.16892 41.9577 5.16645 41.2551 5.16893C41.2551 7.6582 41.2551 10.1483 41.2559 12.6383C40.6306 12.6392 40.0062 12.6425 39.3819 12.6359C39.3811 10.1467 39.3819 7.65737 39.3819 5.1681C38.6726 5.16727 37.9641 5.16892 37.2556 5.16727C37.2531 4.57714 37.2539 3.98619 37.2548 3.39523Z" fill="#A7AEBE"/>
<path id="Vector_4" d="M0.500624 3.38216C1.05259 3.38134 1.60456 3.38216 2.15653 3.38216C3.36953 5.25407 4.5742 7.13176 5.74307 9.0309C5.74392 7.14826 5.74308 5.26563 5.74392 3.38382C6.36581 3.38052 6.98854 3.38052 7.61128 3.38382C7.61044 6.46239 7.61128 9.54179 7.61044 12.6203C7.04932 12.6229 6.48736 12.6229 5.92624 12.6203C4.7199 10.7369 3.51605 8.85179 2.33386 6.9543C2.33136 8.84354 2.33386 10.7328 2.33219 12.622C1.72195 12.622 1.11087 12.622 0.500624 12.622C0.499792 9.54179 0.499792 6.46239 0.500624 3.38216Z" fill="#A7AEBE"/>
<path id="Vector_5" d="M8.64844 3.3825C10.6873 3.38332 12.7253 3.3792 14.7634 3.38497C14.7634 3.96933 14.7634 4.55451 14.7643 5.13968C13.3472 5.14628 11.9302 5.14216 10.5133 5.14216C10.5042 5.79254 10.5108 6.44374 10.5091 7.09412C11.7196 7.09494 12.9293 7.09412 14.1399 7.09494C14.1399 7.68177 14.139 8.26943 14.1399 8.85708C12.931 8.85708 11.7213 8.85708 10.5125 8.85708C10.5058 9.52644 10.5091 10.1958 10.5108 10.866C11.9286 10.8677 13.3464 10.8618 14.7643 10.8693C14.7634 11.4528 14.7634 12.0363 14.7634 12.6207C12.7253 12.6248 10.6873 12.6215 8.64844 12.6224C8.64844 9.54213 8.64844 6.46272 8.64844 3.3825Z" fill="#A7AEBE"/>
<path id="Vector_6" d="M15.5039 3.38135C17.5444 3.38217 19.5842 3.38134 21.6247 3.38216C21.6256 3.97064 21.6247 4.55913 21.6256 5.14761C20.9213 5.14926 20.2169 5.14843 19.5134 5.14843C19.4993 7.63853 19.5109 10.1295 19.5068 12.6203C18.8849 12.6244 18.2629 12.6212 17.6411 12.6212C17.6369 10.1302 17.6469 7.63935 17.6361 5.14843C16.925 5.14926 16.2141 5.14843 15.5032 5.14843C15.5032 4.55913 15.5023 3.97065 15.5039 3.38135Z" fill="#A7AEBE"/>
</g>
<defs>
<clipPath id="clip0_9427_18809">
<rect width="43.5" height="15" fill="white" transform="translate(0.5 0.5)"/>
</clipPath>
</defs>
</svg>
