<svg width="40" height="17" viewBox="0 0 40 17" fill="none" xmlns="http://www.w3.org/2000/svg">
<g clip-path="url(#clip0_9427_18848)">
<path fill-rule="evenodd" clip-rule="evenodd" d="M7.24177 3.25312C3.90433 3.25312 1.18898 5.99043 1.18898 9.35526C1.18898 12.7199 3.90433 15.4575 7.24177 15.4575H32.4708C35.8079 15.4575 38.5235 12.7199 38.5235 9.35526C38.5235 5.99043 35.8079 3.25312 32.4708 3.25312H7.24177ZM32.4712 15.9773H7.24215C3.62036 15.9773 0.673828 13.0065 0.673828 9.35526C0.673828 5.70402 3.62036 2.7334 7.24215 2.7334H32.4712C36.093 2.7334 39.0395 5.70402 39.0395 9.35526C39.0395 13.0065 36.093 15.9773 32.4712 15.9773Z" fill="#A7AEBE"/>
<path fill-rule="evenodd" clip-rule="evenodd" d="M29.4445 8.35506C28.9421 8.35506 28.5343 7.94465 28.5343 7.43801C28.5343 6.93089 28.9421 6.52035 29.4445 6.52035C29.947 6.52035 30.3547 6.93089 30.3547 7.43801C30.3547 7.94465 29.947 8.35506 29.4445 8.35506ZM29.4445 5.64941C28.4652 5.64941 27.6709 6.45018 27.6709 7.43802C27.6709 8.42536 28.4652 9.2255 29.4445 9.2255C30.4245 9.2255 31.2182 8.42536 31.2182 7.43802C31.2182 6.45018 30.4245 5.64941 29.4445 5.64941Z" fill="#A7AEBE"/>
<path fill-rule="evenodd" clip-rule="evenodd" d="M21.3104 8.35506C20.8084 8.35506 20.4009 7.94465 20.4009 7.43801C20.4009 6.93089 20.8084 6.52035 21.3104 6.52035C21.8134 6.52035 22.2206 6.93089 22.2206 7.43801C22.2206 7.94465 21.8134 8.35506 21.3104 8.35506ZM21.3105 5.64941C20.3312 5.64941 19.5371 6.45018 19.5371 7.43802C19.5371 8.42536 20.3312 9.2255 21.3105 9.2255C22.2905 9.2255 23.0848 8.42536 23.0848 7.43802C23.0848 6.45018 22.2905 5.64941 21.3105 5.64941Z" fill="#A7AEBE"/>
<path fill-rule="evenodd" clip-rule="evenodd" d="M27.5566 8.40514C27.4444 8.43804 27.2728 8.47044 27.2075 8.47044C26.9045 8.47044 26.8385 8.36513 26.8385 8.07262V6.42062H27.5637V5.73027H26.8385V4.75439H26.0225L25.8511 5.73027H25.2826V5.73077H25.2363C24.7715 5.73301 24.4209 6.01892 24.196 6.46672L23.9122 5.73027H23.3271V9.16141H24.3272V7.66856C24.3272 6.91615 24.7682 6.43545 25.2909 6.42062H25.8379V8.12633C25.8379 8.92921 26.2461 9.22784 26.9108 9.22784C27.2539 9.22784 27.5169 9.1548 27.6746 9.10208L27.5566 8.40514Z" fill="#A7AEBE"/>
<path fill-rule="evenodd" clip-rule="evenodd" d="M32.4302 6.81553V9.16111H31.458V5.72998H32.048L32.2458 6.25406" fill="#A7AEBE"/>
<path fill-rule="evenodd" clip-rule="evenodd" d="M32.2412 6.25748C32.5368 5.91176 32.9412 5.6499 33.4149 5.6499C34.2249 5.6499 34.5581 6.30086 34.5581 6.90458V9.16131H33.5569V6.93362C33.5569 6.63949 33.3141 6.47983 33.0507 6.47983C32.7703 6.47983 32.5901 6.64173 32.4317 6.8146" fill="#A7AEBE"/>
<path fill-rule="evenodd" clip-rule="evenodd" d="M15.6357 4.48828H16.7501L18.2804 7.42662V4.48828H19.2033V9.16201H18.1937L16.5591 5.93116V9.16201H15.6357V4.48828Z" fill="#A7AEBE"/>
<path fill-rule="evenodd" clip-rule="evenodd" d="M15.3574 13.3036L15.5888 12.9409C15.7767 13.0808 16.0586 13.2108 16.4025 13.2108C16.7369 13.2108 16.9432 13.0581 16.9432 12.793C16.9432 12.488 16.6825 12.4073 16.254 12.2569C15.8698 12.1209 15.492 11.9255 15.492 11.3767C15.492 10.8625 15.8942 10.5824 16.4354 10.5824C16.7951 10.5824 17.0602 10.6539 17.2737 10.7806L17.0886 11.1664C16.9094 11.0726 16.6954 11.0089 16.444 11.0089C16.1425 11.0089 15.9617 11.1236 15.9617 11.3646C15.9617 11.6478 16.1713 11.7197 16.5654 11.8503C16.9764 11.9847 17.4288 12.1763 17.4288 12.7843C17.4288 13.2987 17.0641 13.6378 16.4097 13.6378C15.9242 13.6378 15.5675 13.4688 15.3574 13.3036Z" fill="#A7AEBE"/>
<path fill-rule="evenodd" clip-rule="evenodd" d="M18.3057 10.6289H20.0578V11.0394H18.8042V11.8501H19.7941V12.2518H18.8042V13.1887H20.1339V13.5986H18.3057V10.6289Z" fill="#A7AEBE"/>
<path fill-rule="evenodd" clip-rule="evenodd" d="M20.8486 12.1165C20.8486 11.25 21.2602 10.5833 22.0816 10.5833C22.4496 10.5833 22.7403 10.7006 22.9451 10.941L22.6543 11.2802C22.4785 11.1066 22.3294 11.0216 22.0899 11.0216C21.6076 11.0216 21.3849 11.4195 21.3849 12.1545C21.3849 12.8443 21.6199 13.1939 22.0942 13.1939C22.3576 13.1939 22.5427 13.0544 22.705 12.8811L22.9985 13.2109C22.785 13.465 22.5177 13.6378 22.0899 13.6378C21.2427 13.6378 20.8486 12.9869 20.8486 12.1165Z" fill="#A7AEBE"/>
<path fill-rule="evenodd" clip-rule="evenodd" d="M23.8105 12.4623V10.6292H24.313V12.5441C24.313 12.9523 24.4133 13.2195 24.8407 13.2195C25.2642 13.2195 25.3691 12.9523 25.3691 12.5441V10.6292H25.8765V12.4623C25.8765 13.1981 25.5956 13.6378 24.8368 13.6378C24.0904 13.6378 23.8105 13.1981 23.8105 12.4623Z" fill="#A7AEBE"/>
<path fill-rule="evenodd" clip-rule="evenodd" d="M27.8181 11.9516C28.1916 11.9516 28.3837 11.8292 28.3837 11.4862C28.3837 11.1564 28.1877 11.0388 27.8473 11.0388H27.3739V11.9516H27.8181ZM28.9497 13.599H28.4047L27.8391 12.3395H27.3737V13.599H26.875V10.6289H27.8359C28.4308 10.6289 28.8953 10.844 28.8953 11.4948C28.8953 11.9389 28.6312 12.1618 28.3372 12.2678L28.9497 13.599Z" fill="#A7AEBE"/>
<path fill-rule="evenodd" clip-rule="evenodd" d="M29.8027 10.6292H31.5547V11.0397H30.3008V11.8504H31.2895V12.252H30.3008V13.1889H31.6297V13.5988H29.8027V10.6292Z" fill="#A7AEBE"/>
<path fill-rule="evenodd" clip-rule="evenodd" d="M33.1781 13.1887C33.8658 13.1887 34.101 12.8687 34.101 12.1031C34.101 11.4313 33.9163 11.0388 33.2401 11.0388H32.9723V13.1887H33.1781ZM32.4717 10.6289H33.2071C34.1675 10.6289 34.629 11.153 34.629 12.1031C34.629 13.0711 34.1593 13.599 33.2326 13.599H32.4717V10.6289Z" fill="#A7AEBE"/>
<path fill-rule="evenodd" clip-rule="evenodd" d="M7.21222 4.47054C5.91871 4.47054 4.70197 4.97879 3.78577 5.90132C2.87067 6.82435 2.36665 8.05098 2.36665 9.35502C2.36665 10.6588 2.87067 11.8854 3.78577 12.8091C4.70135 13.731 5.91809 14.2392 7.21222 14.2397C8.50561 14.2392 9.72235 13.731 10.6386 12.8085C11.5525 11.8854 12.0566 10.6588 12.0572 9.35502C12.0566 8.05098 11.5525 6.82435 10.6381 5.90083C9.72185 4.97879 8.50511 4.47054 7.21222 4.47054ZM7.21243 16.4999C3.30481 16.4999 0.125 13.2943 0.125 9.35502C0.125 5.41563 3.30481 2.21057 7.21243 2.21057C11.1195 2.21057 14.2986 5.41563 14.2992 9.35502C14.2986 13.2943 11.1195 16.4999 7.21243 16.4999Z" fill="#A7AEBE"/>
<path fill-rule="evenodd" clip-rule="evenodd" d="M14.9319 0.55823H15.4845V0H14.9319V0.55823ZM14.9319 1.66734H15.4845V1.11023H14.9319V1.66734ZM13.893 2.20725H13.377V1.66335H13.893V2.20725Z" fill="#A7AEBE"/>
<path fill-rule="evenodd" clip-rule="evenodd" d="M14.3854 1.11035H14.9321V0.558228H14.3854V1.11035ZM14.472 2.73158L13.8935 2.73157V3.25179H13.3775V2.73157L13.8934 2.73158V2.2075H14.472V2.73158ZM12.8748 3.25179H12.3542V2.73157L11.8362 2.73158V2.23316H12.3543V2.73158L12.8748 2.73157V3.25179ZM14.3855 1.66347H13.3775V1.11036H14.3855V1.66347ZM12.875 2.73158H13.3775V1.66359H12.875V2.73158ZM12.8752 3.776V3.25179H13.3776V4.35603H12.9324V4.7935H12.4696V5.42949H12.0587L12.0597 5.95632H11.5468V5.42402H11.0227V5.95632H11.5468V6.54196H11.0286V7.14943H10.5948V7.67364H10.1821V8.2548C9.40908 9.37661 8.75632 10.7425 8.30608 11.958C8.0943 12.5334 7.03988 12.4455 6.80462 11.8806C6.76188 11.7777 6.719 11.6723 6.6751 11.5643C6.26214 10.5487 5.75872 9.31075 4.43654 7.84488C3.79973 7.18245 4.26185 6.76145 4.6451 6.87785C5.35608 7.11167 6.25868 7.75814 7.42152 9.3892C7.74369 8.57922 8.81072 6.5897 9.23637 5.95146H9.61541V5.42949H9.95995V4.90977H10.4793V4.0953H11.0286V4.61453H11.5452V4.0953H11.0286V3.62942H11.4913V3.25179H12.3548V3.776H12.8752Z" fill="#A7AEBE"/>
</g>
<defs>
<clipPath id="clip0_9427_18848">
<rect width="39" height="16.5" fill="white" transform="translate(0.125)"/>
</clipPath>
</defs>
</svg>
