<svg width="57" height="18" viewBox="0 0 57 18" fill="none" xmlns="http://www.w3.org/2000/svg">
<path d="M10.1737 9.72479L12.1113 6.85948V9.72479H10.1737Z" fill="#A7AEBE"/>
<path fill-rule="evenodd" clip-rule="evenodd" d="M17.7692 8.83045C17.7692 4.03837 13.8774 0.157227 9.0721 0.157227C4.26683 0.157227 0.375 4.03837 0.375 8.83045C0.375 13.6225 4.26683 17.5037 9.0721 17.5037C13.8774 17.5037 17.7692 13.6225 17.7692 8.83045ZM12.8421 9.73031V5.7001L12.1279 5.70562L9.36545 9.6751V10.4591H12.1058V11.9662H12.8421V10.4591H13.6946V9.73031H12.8421ZM8.5572 11.9607V11.2265H5.35737C5.4238 10.9615 5.56774 10.7351 5.78365 10.5308C5.9608 10.3652 6.16009 10.2272 6.48672 10.034C6.52547 10.0064 6.67494 9.91802 6.70816 9.90146C6.7137 9.89869 6.71785 9.89593 6.722 9.89317C6.72616 9.89041 6.73031 9.88765 6.73584 9.88489C7.41677 9.47083 7.72125 9.26656 8.01466 8.95739C8.40772 8.55437 8.61256 8.09614 8.61256 7.5275C8.61256 6.41781 7.83751 5.7001 6.64727 5.7001C5.42934 5.7001 4.62108 6.52823 4.62108 7.76489L4.62662 7.93052V7.94708H5.35737V7.93052C5.37952 7.00854 5.79472 6.39021 6.60851 6.39021C7.30605 6.39021 7.79322 6.85948 7.79322 7.54406C7.79322 7.8974 7.67143 8.19552 7.43338 8.47156C7.23962 8.68687 7.00157 8.87458 6.63066 9.11198C6.55869 9.15614 6.3151 9.31073 6.3151 9.31073C5.6231 9.74135 5.2854 9.99531 5.0086 10.3376C4.66537 10.7517 4.48821 11.2541 4.44946 11.9386V11.9607H8.5572Z" fill="#A7AEBE"/>
<path d="M22.2646 5.33569H25.16C25.8797 5.33569 26.4444 5.50684 26.8596 5.84361C27.2748 6.1859 27.4851 6.6883 27.4851 7.36184C27.4851 7.99673 27.2914 8.49913 26.9038 8.86902C26.5163 9.23892 25.9904 9.42663 25.3205 9.42663H23.4383V11.9883H22.2646V5.33569ZM23.4383 6.31288V8.49361H25.0714C25.924 8.49361 26.3447 8.12923 26.3447 7.40048C26.3447 6.67725 25.8852 6.3184 24.9662 6.3184H23.4383V6.31288Z" fill="#A7AEBE"/>
<path d="M30.9617 7.0747V8.09605C30.7735 8.07949 30.6517 8.06845 30.5853 8.06845C29.6552 8.06845 29.1902 8.67022 29.1902 9.87376V11.9938H28.1328V7.16855H29.1348V8.12917C29.4781 7.41147 30.0206 7.05261 30.7569 7.05261L30.9617 7.0747Z" fill="#A7AEBE"/>
<path d="M32.7052 5.30811V6.35706H31.6367V5.30811H32.7052ZM32.7052 7.16862V11.9938H31.6367V7.16862H32.7052Z" fill="#A7AEBE"/>
<path d="M33.4639 7.16858H34.6264L35.8665 10.8786L37.0567 7.16858H38.1639L36.4312 12.0048H35.2299L33.4639 7.16858Z" fill="#A7AEBE"/>
<path d="M38.5287 8.65956C38.6394 7.56643 39.3481 7.02539 40.649 7.02539C41.2525 7.02539 41.7396 7.14133 42.0995 7.37873C42.4593 7.61612 42.6365 7.98602 42.6365 8.48289V10.9286C42.6365 11.0666 42.6531 11.1605 42.6863 11.2102C42.7195 11.2599 42.7859 11.2875 42.8856 11.2875C42.9631 11.2875 43.0406 11.282 43.1292 11.2709V12.0217C42.8524 12.088 42.6254 12.1266 42.4372 12.1266C41.9832 12.1266 41.7175 11.9334 41.6511 11.547C41.2469 11.9334 40.6767 12.1266 39.9515 12.1266C39.4532 12.1266 39.0547 11.9997 38.7612 11.7402C38.4678 11.4807 38.3184 11.1329 38.3184 10.6857C38.3184 10.5477 38.335 10.4207 38.3626 10.3048C38.3959 10.1888 38.4291 10.0839 38.4734 9.9956C38.5121 9.90727 38.5785 9.82997 38.6727 9.75268C38.7612 9.67539 38.8387 9.61466 38.8996 9.56497C38.9605 9.51529 39.0546 9.47112 39.193 9.42695C39.3259 9.38279 39.4256 9.34966 39.492 9.32758C39.5584 9.30549 39.6691 9.28341 39.8352 9.25581C39.9958 9.23372 40.1065 9.21164 40.1563 9.20612C40.2117 9.19508 40.3224 9.18404 40.4885 9.16195C40.8705 9.11227 41.1307 9.0681 41.2691 9.03497C41.4075 9.00185 41.5016 8.94664 41.5514 8.88039C41.5957 8.8307 41.6178 8.71477 41.6178 8.53258C41.6178 8.04675 41.2857 7.80383 40.6213 7.80383C40.2726 7.80383 40.0179 7.87008 39.8518 8.00258C39.6913 8.13508 39.5861 8.35591 39.5418 8.66508H38.5287V8.65956ZM41.6012 9.57601C41.5182 9.62018 41.4241 9.65883 41.3189 9.69195C41.2137 9.72508 41.1251 9.74716 41.0587 9.7582C40.9923 9.76924 40.8926 9.78029 40.7487 9.80237C40.6103 9.81893 40.5162 9.83549 40.4719 9.84101C40.339 9.85758 40.2394 9.87966 40.1619 9.8907C40.0844 9.90727 39.9958 9.93487 39.8851 9.96799C39.7743 10.0066 39.6913 10.0508 39.6304 10.106C39.5695 10.1612 39.5197 10.233 39.4754 10.3213C39.4311 10.4097 39.409 10.5201 39.409 10.6415C39.409 10.8734 39.4865 11.0501 39.6359 11.1715C39.7909 11.2985 40.0013 11.3592 40.2781 11.3592C40.7542 11.3592 41.1196 11.2323 41.3742 10.9783C41.5182 10.8348 41.5902 10.5587 41.5902 10.1447V9.57601H41.6012Z" fill="#A7AEBE"/>
<path d="M46.1968 7.16865V7.94709H45.2224V10.4867C45.2224 10.6357 45.228 10.7406 45.2335 10.8014C45.239 10.8621 45.2556 10.9283 45.2889 11.0001C45.3221 11.0719 45.3774 11.1216 45.4549 11.1436C45.5324 11.1713 45.6432 11.1823 45.776 11.1823C45.9532 11.1823 46.0916 11.1768 46.1968 11.1657V12.0049C45.9864 12.027 45.7428 12.0435 45.4771 12.0435C45.2889 12.0435 45.1228 12.027 44.9844 11.9994C44.846 11.9718 44.7242 11.9386 44.6301 11.9C44.536 11.8614 44.4584 11.8006 44.3976 11.7068C44.3367 11.6184 44.2868 11.5411 44.2536 11.4804C44.2204 11.4197 44.1927 11.3148 44.1761 11.1657C44.1595 11.0167 44.154 10.9007 44.154 10.8234C44.154 10.7462 44.154 10.6081 44.154 10.4149C44.154 10.3928 44.154 10.3707 44.154 10.3542C44.154 10.3376 44.154 10.321 44.154 10.299C44.154 10.2769 44.154 10.2548 44.154 10.2382V7.94709H43.3457V7.16865H44.154V5.71667H45.2224V7.16865H46.1968Z" fill="#A7AEBE"/>
<path d="M51.8156 11.0498V11.9938H47.3369C47.3425 11.7012 47.3812 11.4307 47.4587 11.1878C47.5362 10.9449 47.6193 10.7351 47.7189 10.5639C47.813 10.3928 47.957 10.2161 48.1507 10.0395C48.3389 9.86279 48.5106 9.71373 48.6656 9.59779C48.8206 9.48186 49.0309 9.33279 49.2967 9.15613C49.3133 9.14509 49.4074 9.08436 49.5735 8.97394C49.7396 8.86352 49.8392 8.79727 49.878 8.76967C49.9167 8.74207 49.9997 8.67582 50.1326 8.57092C50.2655 8.46602 50.3485 8.38321 50.3928 8.32248C50.4316 8.26175 50.4869 8.17342 50.5589 8.06853C50.6309 7.96363 50.6807 7.85321 50.7028 7.74832C50.725 7.6379 50.7416 7.52196 50.7416 7.40051C50.7416 7.05821 50.6475 6.78769 50.4537 6.59446C50.2655 6.39571 50.0053 6.30186 49.6787 6.30186C49.4904 6.30186 49.3299 6.32947 49.1915 6.39019C49.0531 6.45092 48.9479 6.52821 48.8704 6.61655C48.7929 6.7104 48.7265 6.83186 48.6766 6.9754C48.6268 7.12446 48.5936 7.26248 48.577 7.38946C48.5604 7.52196 48.5493 7.67103 48.5438 7.84769H47.503V7.68207C47.503 6.9754 47.7023 6.4178 48.1009 6.00374C48.4995 5.58967 49.0365 5.37988 49.7063 5.37988C50.343 5.37988 50.8578 5.55655 51.2454 5.9154C51.6329 6.27426 51.8266 6.74905 51.8266 7.33978C51.8266 7.57717 51.7879 7.80353 51.7159 8.01332C51.6384 8.22311 51.5609 8.39425 51.4779 8.52675C51.3948 8.65925 51.2454 8.80832 51.0405 8.98498C50.8357 9.16165 50.6807 9.28311 50.581 9.34936C50.4814 9.41561 50.2987 9.54259 50.0274 9.72477C49.2469 10.2272 48.7763 10.6688 48.6213 11.0443H51.8156V11.0498Z" fill="#A7AEBE"/>
<path d="M56.9094 9.54263V10.4425H56.0734V11.9939H55.0437L55.0327 10.4425H52.248V9.38805L55.0604 5.39648H56.0734V9.54815L56.9094 9.54263ZM55.0493 9.54263V6.71044L53.1283 9.54263H55.0493Z" fill="#A7AEBE"/>
</svg>
